<?xml version="1.0" encoding="iso-8859-1"?>
<!-- Generator: Adobe Illustrator 21.0.0, SVG Export Plug-In . SVG Version: 6.00 Build 0)  -->
<svg version="1.1" id="Layer_1" xmlns="http://www.w3.org/2000/svg" xmlns:xlink="http://www.w3.org/1999/xlink" x="0px" y="0px"
	 viewBox="0 0 24 24" enable-background="new 0 0 24 24" xml:space="preserve">
<g>
	<polygon fill="#0DB14B" points="12,3.4887695 6.5,9.4887695 9.5,9.4887695 5,14.9887695 8,14.9887695 3.5,20.4887695 
		20.5,20.4887695 16,14.9887695 19,14.9887695 14.5,9.4887695 17.5,9.4887695 	"/>
	<polygon opacity="0.2" fill="#FFFFFF" enable-background="new    " points="12,3.4887695 6.5,9.4887695 9.0882568,9.4887695 	"/>
	<polygon opacity="0.1" enable-background="new    " points="17.5,9.4887695 12,3.4887695 14.9117432,9.4887695 	"/>
	<polygon opacity="0.2" fill="#FFFFFF" enable-background="new    " points="8.2941284,14.9887695 10.6764526,9.4887695 
		9.5,9.4887695 5,14.9887695 8,14.9887695 3.5,20.4887695 7.5,20.4887695 9.8823242,14.9887695 	"/>
	<polygon opacity="0.1" enable-background="new    " points="16,14.9887695 19,14.9887695 14.5,9.4887695 13.3235474,9.4887695 
		15.7058716,14.9887695 14.1176758,14.9887695 16.5,20.4887695 20.5,20.4887695 	"/>
	<g>
		<circle fill="#FFCF01" cx="11.5" cy="7.9887695" r="1"/>
		<circle fill="#FFCF01" cx="14" cy="12.9887695" r="1"/>
		<circle fill="#FFCF01" cx="10" cy="16.9887695" r="1"/>
		<circle fill="#FFCF01" cx="15" cy="17.9887695" r="1"/>
	</g>
	<path id="XMLID_38_" fill="#9D581F" d="M10.4433594,20.4887695c-0.1437378,1.0946045-0.5918579,2.3613739-1.4433594,3h6
		c-0.8515015-0.6386261-1.2996216-1.9053955-1.4433594-3H10.4433594z"/>
	<path opacity="0.2" fill="#FFFFFF" enable-background="new    " d="M10.4433594,20.4887695
		c-0.1437378,1.0946045-0.5918579,2.3613892-1.4433594,3h2c0.2838135-0.6386108,0.4332275-1.9053955,0.4811401-3H10.4433594z"/>
	<path opacity="0.1" enable-background="new    " d="M13.5566406,20.4887695h-1.0377808
		c0.0479126,1.0946045,0.1973267,2.3613892,0.4811401,3h2C14.1484985,22.8501587,13.7003784,21.583374,13.5566406,20.4887695z"/>
	<polygon fill="#FFCF01" points="12,0.4887695 12.8018675,2.1135254 14.7089043,2.5204468 13.2974491,3.6387787 
		13.603735,5.4245605 12,4.5814209 10.396265,5.4245605 10.7025509,3.6387787 9.2910957,2.5204468 11.1981325,2.1135254 	"/>
	<path fill="#303C42" d="M20.887207,20.1723633l-3.8320312-4.6835938H19c0.1933594,0,0.3691406-0.1113281,0.4516602-0.2856445
		c0.0830078-0.1748047,0.0576172-0.3813477-0.0644531-0.5307617l-3.8320312-4.6835938H17.5
		c0.1982422,0,0.3779297-0.1171875,0.4575195-0.2988281c0.0800781-0.1811523,0.0449219-0.3930664-0.0888672-0.5390625
		L14.0320435,4.965332L13.840332,3.8466797l1.1791992-0.934082c0.1518555-0.1206055,0.2202148-0.3173828,0.1762695-0.5058594
		c-0.0439453-0.1889648-0.1933594-0.3349609-0.3823242-0.375L13.1430664,1.675293l-0.6948242-1.4077148
		c-0.1679688-0.3417969-0.7285156-0.3417969-0.8964844,0L10.8569336,1.675293L9.1865234,2.0317383
		c-0.1889648,0.0400391-0.3383789,0.1860352-0.3823242,0.375C8.7602539,2.5952148,8.8286133,2.7919922,8.9804688,2.9125977
		l1.1791992,0.934082L9.9679565,4.965332L6.1313477,9.1508789C5.9975586,9.296875,5.9624023,9.5087891,6.0424805,9.6899414
		C6.1220703,9.871582,6.3017578,9.9887695,6.5,9.9887695h1.9448242L4.612793,14.6723633
		c-0.1220703,0.1494141-0.1474609,0.355957-0.0644531,0.5307617C4.6308594,15.3774414,4.8066406,15.4887695,5,15.4887695h1.9448242
		L3.112793,20.1723633c-0.1220703,0.1494141-0.1474609,0.355957-0.0644531,0.5307617
		C3.1308594,20.8774414,3.3066406,20.9887695,3.5,20.9887695h6.333252c-0.2132568,0.93927-0.6122437,1.7094116-1.1330566,2.1000977
		c-0.1723633,0.1289062-0.2426758,0.3540039-0.1743164,0.5581055C8.59375,23.8510742,8.784668,23.9887695,9,23.9887695h6
		c0.215332,0,0.40625-0.1376953,0.4741211-0.3417969c0.0683594-0.2041016-0.0019531-0.4291992-0.1743164-0.5581055
		c-0.520813-0.390686-0.9197998-1.1608276-1.1330566-2.1000977H20.5c0.1933594,0,0.3691406-0.1113281,0.4516602-0.2856445
		C21.034668,20.5283203,21.0092773,20.3217773,20.887207,20.1723633z M11.3027344,2.6025391
		c0.1494141-0.0317383,0.2763672-0.1303711,0.34375-0.2675781L12,1.6186523l0.3535156,0.7163086
		c0.0673828,0.137207,0.1943359,0.2358398,0.34375,0.2675781l0.8686523,0.1855469L12.9868164,3.246582
		c-0.1430664,0.1137695-0.2133789,0.2963867-0.1821289,0.4765625l0.1347656,0.7871094l-0.7070312-0.3710938
		C12.159668,4.1005859,12.0800781,4.081543,12,4.081543s-0.159668,0.019043-0.2324219,0.0576172l-0.7070312,0.3710938
		l0.1347656-0.7871094c0.03125-0.1801758-0.0390625-0.362793-0.1821289-0.4765625L10.434082,2.7880859L11.3027344,2.6025391z
		 M13.8857422,22.9887695h-3.7714844c0.4291992-0.675293,0.6459961-1.4477539,0.7539062-2h2.2636719
		C13.2397461,21.5410156,13.456543,22.3134766,13.8857422,22.9887695z M4.5551758,19.9887695l3.8320312-4.6835938
		c0.1220703-0.1494141,0.1474609-0.355957,0.0644531-0.5307617C8.3691406,14.6000977,8.1933594,14.4887695,8,14.4887695H6.0551758
		L9.887207,9.8051758c0.1220703-0.1494141,0.1474609-0.355957,0.0644531-0.5307617
		C9.8691406,9.1000977,9.6933594,8.9887695,9.5,8.9887695H7.6367188l2.8304443-3.0878906
		c0.0549316-0.0081787,0.1113892-0.0073242,0.1617432-0.0341797L12,5.1464844l1.3710938,0.7202148
		c0.0527954,0.0280151,0.1112061,0.0341797,0.1687622,0.0418091l2.8234253,3.0802612H14.5
		c-0.1933594,0-0.3691406,0.1113281-0.4516602,0.2856445c-0.0830078,0.1748047-0.0576172,0.3813477,0.0644531,0.5307617
		l3.8320312,4.6835938H16c-0.1933594,0-0.3691406,0.1113281-0.4516602,0.2856445
		c-0.0830078,0.1748047-0.0576172,0.3813477,0.0644531,0.5307617l3.8320312,4.6835938H4.5551758z"/>
	
		<linearGradient id="SVGID_1_" gradientUnits="userSpaceOnUse" x1="5.4242134" y1="14.3703012" x2="22.4197426" y2="6.4451609" gradientTransform="matrix(1 0 0 -1 0 24)">
		<stop  offset="0" style="stop-color:#FFFFFF;stop-opacity:0.2"/>
		<stop  offset="1" style="stop-color:#FFFFFF;stop-opacity:0"/>
	</linearGradient>
	<path fill="url(#SVGID_1_)" d="M20.887207,20.1723633l-3.8320312-4.6835938H19
		c0.1933594,0,0.3691406-0.1113281,0.4516602-0.2856445c0.0830078-0.1748047,0.0576172-0.3813477-0.0644531-0.5307617
		l-3.8320312-4.6835938H17.5c0.1982422,0,0.3779297-0.1171875,0.4575195-0.2988281
		c0.0800781-0.1811523,0.0449219-0.3930664-0.0888672-0.5390625L14.0320435,4.965332L13.840332,3.8466797l1.1791992-0.934082
		c0.1518555-0.1206055,0.2202148-0.3173828,0.1762695-0.5058594c-0.0439453-0.1889648-0.1933594-0.3349609-0.3823242-0.375
		L13.1430664,1.675293l-0.6948242-1.4077148c-0.1679688-0.3417969-0.7285156-0.3417969-0.8964844,0L10.8569336,1.675293
		L9.1865234,2.0317383c-0.1889648,0.0400391-0.3383789,0.1860352-0.3823242,0.375
		C8.7602539,2.5952148,8.8286133,2.7919922,8.9804688,2.9125977l1.1791992,0.934082L9.9679565,4.965332L6.1313477,9.1508789
		C5.9975586,9.296875,5.9624023,9.5087891,6.0424805,9.6899414C6.1220703,9.871582,6.3017578,9.9887695,6.5,9.9887695h1.9448242
		L4.612793,14.6723633c-0.1220703,0.1494141-0.1474609,0.355957-0.0644531,0.5307617
		C4.6308594,15.3774414,4.8066406,15.4887695,5,15.4887695h1.9448242L3.112793,20.1723633
		c-0.1220703,0.1494141-0.1474609,0.355957-0.0644531,0.5307617C3.1308594,20.8774414,3.3066406,20.9887695,3.5,20.9887695h6.333252
		c-0.2132568,0.93927-0.6122437,1.7094116-1.1330566,2.1000977c-0.1723633,0.1289062-0.2426758,0.3540039-0.1743164,0.5581055
		C8.59375,23.8510742,8.784668,23.9887695,9,23.9887695h6c0.215332,0,0.40625-0.1376953,0.4741211-0.3417969
		c0.0683594-0.2041016-0.0019531-0.4291992-0.1743164-0.5581055c-0.520813-0.390686-0.9197998-1.1608276-1.1330566-2.1000977H20.5
		c0.1933594,0,0.3691406-0.1113281,0.4516602-0.2856445C21.034668,20.5283203,21.0092773,20.3217773,20.887207,20.1723633z"/>
</g>
</svg>
