<svg width="623" height="333" viewBox="0 0 623 333" fill="none" xmlns="http://www.w3.org/2000/svg">
    <path d="M3.062 273.044L620.259 272.176L621.088 105.628C621.088 105.628 619.639 100.994 617.262 98.7304C613.438 95.0898 602.234 90.448 602.234 90.448C602.234 90.448 583.475 78.588 576.129 70.2801C574.801 68.7787 574.377 66.549 573.021 65.0755C571.4 63.3137 568.442 63.0402 567.22 60.9551C562.982 53.7222 563.611 43.6658 559.347 35.1489C557.389 31.2368 556.979 26.5631 554.789 22.7879C553.164 19.9862 550.946 17.5538 548.574 15.4147C545.395 12.5489 541.833 10.061 538.007 8.25829C534.02 6.37903 529.686 5.30494 525.369 4.57171C519.909 3.64423 514.323 3.90359 508.795 3.70425C479.594 2.65138 450.373 2.21091 421.156 1.96939C376.821 1.60287 288.145 2.40309 288.145 2.40309L137.523 1.75253C137.523 1.75253 118.974 2.22844 109.761 3.27055C104.264 3.89232 98.6841 4.40785 93.3936 6.08972C88.6029 7.61269 83.8662 9.65847 79.7195 12.5955C76.0787 15.1742 72.799 18.4346 70.1891 22.1373C68.6306 24.3485 67.713 26.9902 66.6671 29.5105C64.3773 35.0279 62.3913 40.69 60.6588 46.4255C59.3458 50.7721 58.3861 55.2278 57.3438 59.654C57.1233 60.5904 57.2408 61.6759 56.7223 62.4732C55.2132 64.7937 52.1263 65.4144 50.0924 67.244C48.9438 68.2774 47.5417 69.2395 46.9847 70.7138C46.1007 73.0537 24.5856 89.0753 23.5731 89.7974C21.3247 91.4009 18.586 92.0766 16.1145 93.2672C13.1961 94.673 9.74004 95.2862 7.41282 97.6044C5.19688 99.8117 3.80006 102.955 3.062 106.062C0.529209 116.725 1.8042 142.858 1.8042 142.858L3.18339 213.867L3.062 273.044Z" fill="#AF9883" stroke="#7C5E45" stroke-width="1.70079" stroke-linecap="round"/>
    <path d="M22.268 90.5578C26.8144 89.7787 31.6119 90.4505 36.0391 91.7845C39.5231 92.8343 42.7539 94.7983 45.7081 96.9982C48.016 98.7168 50.6974 100.429 51.8611 103.132C56.1978 113.204 53.0331 136.254 53.0331 136.254C53.0331 136.254 54.0702 152.683 53.0331 160.789C52.8853 161.944 52.5787 163.085 52.1541 164.162C50.5695 168.183 45.7673 171.167 46.0011 175.51C46.0758 176.898 47.8973 177.574 48.3451 178.883C49.4662 182.161 48.9311 189.31 48.9311 189.31C48.9311 189.31 47.3957 199.424 48.3451 204.338C48.7088 206.221 49.787 207.879 50.689 209.552C51.2084 210.515 52.4471 212.312 52.4471 212.312L52.1541 272.729L2.637 273.342C5.78368 274.505 0.844777 164.079 2.92996 106.199C3.04359 103.045 4.58028 99.8148 6.73896 97.6116C10.779 93.4882 16.6994 91.512 22.268 90.5578Z" stroke="#7C5E45" stroke-width="1.70079" stroke-linecap="round"/>
    <path d="M56.5491 63.5694C59.8067 62.1696 63.0481 60.558 66.5111 59.8892C70.2581 59.1655 74.1404 59.2586 77.9381 59.5825C82.1 59.9374 86.6061 59.8904 90.2441 62.036C92.5336 63.3862 94.2454 65.7631 95.5181 68.1697C96.5511 70.1231 97.4982 72.3895 97.2761 74.6101C97.0805 76.5658 95.847 78.3176 94.6391 79.8237C92.4912 82.5019 89.5663 84.4196 86.7281 86.2641C81.1986 89.8576 75.0331 92.2481 69.1481 95.158C65.3549 97.0336 61.7948 99.6296 57.721 100.678C55.8219 101.168 53.7423 101.544 51.861 100.985C48.5515 100 46.452 96.4393 43.364 94.8511C41.0632 93.6677 38.5434 92.9714 36.039 92.3976C32.0984 91.4945 24.026 90.8641 24.026 90.8641C24.026 90.8641 27.517 86.3367 29.593 84.4237C34.5957 79.814 41.0351 77.116 46.001 72.463C46.7746 71.7382 47.358 70.8178 48.052 70.0095C49.2071 68.6644 50.1745 67.0919 51.568 66.0226C53.0479 64.887 54.8516 64.2988 56.5491 63.5694Z" stroke="#7C5E45" stroke-width="1.70079" stroke-linecap="round"/>
    <path d="M93.4671 81.8172L94.3461 136.561L53.6191 162.936C53.6191 162.936 53.0142 145.15 53.2543 136.262C53.4178 130.211 54.7774 124.194 54.4826 118.149C54.1946 112.245 51.5681 100.678 51.5681 100.678L57.4281 100.985C57.4281 100.985 73.1944 92.6863 81.1611 88.7173C83.4893 87.5575 85.9292 86.6357 88.1931 85.3438C90.0247 84.2987 93.4671 81.8172 93.4671 81.8172Z" fill="#AF9883" stroke="#7C5E45" stroke-width="1.70079" stroke-linecap="round"/>
    <path d="M571.937 272.116V209.858C571.937 209.858 573.632 209.244 574.281 208.632C575.226 207.739 576.166 206.58 576.332 205.258C577.457 196.312 575.966 177.35 576.039 177.35C576.039 177.35 577.911 177.803 578.676 177.35C579.667 176.762 580.266 175.462 580.434 174.283C580.671 172.615 580.043 170.851 579.262 169.376C577.42 165.898 573.026 164.677 572.23 160.789C571.524 157.342 571.497 151.333 571.497 146.528C571.497 138.043 572.23 129.405 572.23 120.92C572.23 116.013 570.643 110.816 572.23 106.199C573.216 103.329 575.726 101.291 577.797 99.145C579.672 97.2017 581.557 95.095 583.95 93.9314C588.189 91.8704 593.047 91.1511 597.721 91.1712C600.211 91.1817 602.642 92.0257 605.046 92.7046C608.833 93.774 612.757 95.4217 615.814 97.995C618.307 100.094 621.11 102.217 621.161 105.279C621.434 121.698 619.989 272.729 619.989 272.729L571.937 272.116Z" stroke="#7C5E45" stroke-width="1.70079" stroke-linecap="round"/>
    <path d="M602.995 91.4779L575.453 70.0099L571.937 64.4896L566.37 60.8094L556.408 57.7425L539.121 57.1291L532.382 61.116L526.229 67.2497L525.643 75.5302L532.968 84.4241L548.204 92.0913L559.045 96.9982L565.491 99.4517H573.402L578.383 98.8383L583.657 93.9314L597.428 91.4779H602.995Z" stroke="#7C5E45" stroke-width="1.70079" stroke-linecap="round"/>
    <path d="M530.331 82.2773L530.623 136.254L571.057 161.402C572.616 161.946 571.166 125.02 572.229 105.892C572.391 102.991 577.503 99.1449 577.503 99.1449C577.503 99.1449 569.396 99.7678 565.49 98.838C552.959 95.8547 530.331 82.2773 530.331 82.2773Z" fill="#AF9883" stroke="#7C5E45" stroke-width="1.70079" stroke-linecap="round"/>
    <path d="M48.638 177.81C48.638 177.81 62.1028 179.087 68.8551 179.343C113.655 181.04 158.517 179.975 203.342 179.343C237.779 178.858 306.625 176.43 306.625 176.43C306.625 176.43 308.792 175.956 309.569 175.208C310.452 174.357 310.909 173.057 311.166 171.829C312.878 163.657 312.965 155.045 311.606 146.221C311.176 143.43 308.525 141.431 306.332 139.781C304.321 138.269 301.875 137.368 299.446 136.867C289.672 134.852 269.56 136.714 269.56 136.714L94.6365 136.422L52.9929 163.313C52.9929 163.313 48.8486 168.394 47.3989 171.337C46.8484 172.454 46.4169 173.668 46.2594 174.915C46.1823 175.525 46.0276 176.252 46.3629 176.758C46.8357 177.471 48.638 177.81 48.638 177.81Z" fill="#9D8167" stroke="#7C5E45" stroke-width="1.70079" stroke-linecap="round"/>
    <path d="M54.236 177.842C52.2362 177.73 48.2278 177.842 48.2278 177.842L48.4349 185.649C48.4349 185.649 48.1266 194.18 48.2278 198.444C48.2793 200.617 48.1754 202.832 48.6421 204.95C49.0947 207.003 48.9077 210.818 50.9211 210.805C147.39 210.177 306.584 210.154 306.584 210.154C306.584 210.154 307.617 209.673 308.035 209.287C308.811 208.569 309.531 207.698 309.899 206.685C310.195 205.871 310.062 204.952 310.106 204.082C310.56 195.273 310.728 177.625 310.728 177.625L310.469 175.403C310.469 175.403 308.135 175.932 306.947 176.162C305.197 176.5 295.604 176.975 295.604 176.975C295.604 176.975 152.096 183.336 54.236 177.842Z" fill="#9D8167" stroke="#7C5E45" stroke-width="1.70079" stroke-linecap="round"/>
    <path d="M318.083 176.107C318.083 176.107 489.308 179.306 574.886 177.192C576.234 177.16 577.849 177.824 578.926 176.975C579.946 176.17 580.087 174.514 580.169 173.18C580.28 171.376 580.032 169.41 579.133 167.867C577.842 165.65 573.332 162.987 573.332 162.987L529.927 135.663L486.523 135.121L429.755 134.687L335.072 135.772L322.02 136.531C322.02 136.531 318.537 137.601 316.944 138.482C315.631 139.209 314.341 140.066 313.318 141.193C312.612 141.971 311.66 143.904 311.66 143.904L312.593 154.205L312.178 168.301C312.178 168.301 312.106 171.067 312.593 172.312C312.909 173.122 313.553 173.756 314.147 174.373C314.705 174.953 315.28 175.585 316.011 175.891C316.656 176.16 318.083 176.107 318.083 176.107Z" fill="#9D8167" stroke="#7C5E45" stroke-width="1.70079" stroke-linecap="round"/>
    <path d="M311.459 173.363C311.459 173.363 308.582 195.177 311.167 205.565C311.365 206.362 311.827 207.085 312.339 207.712C313.152 208.706 315.269 210.165 315.269 210.165H523.006C549.881 210.095 531.687 210.422 571.644 209.858C572.824 209.842 574.017 209.182 574.867 208.325C575.811 207.373 576.512 206.011 576.625 204.645C577.327 196.179 576.012 177.735 576.332 177.656H460.597L365.372 176.736L318.491 175.816C318.491 175.816 316.431 176.094 315.488 175.74C314.67 175.432 314.033 174.716 313.437 174.053C312.643 173.17 311.459 171.063 311.459 171.063L311.459 173.363Z" fill="#9D8167" stroke="#7C5E45" stroke-width="1.70079" stroke-linecap="round"/>
    <path d="M556.654 271.959L565.148 330.945L576.336 330.728L584.002 271.959H556.654Z" fill="#3D2311" stroke="black" stroke-width="1.70079" stroke-linecap="round"/>
    <path d="M40.562 273.477L47.8135 332.029H59.0013L67.2886 273.477H40.562Z" fill="#3D2311" stroke="#2D1A0C" stroke-width="1.70079" stroke-linecap="round"/>
    <path d="M500.518 107.752C497.015 107.701 493.791 105.583 490.346 104.899C485.81 104 481.202 103.093 476.594 103.269C471.683 103.457 466.756 104.457 462.089 106.122C457.902 107.615 453.929 109.859 450.221 112.438C447.969 114.004 445.7 115.698 444.005 117.939C440.857 122.101 437.968 126.92 437.035 132.201C436.383 135.892 437.307 139.766 438.165 143.407C438.735 145.827 440.298 148.388 441.744 150.335C443.948 153.302 446.387 155.017 449.468 156.855C452.572 158.707 455.882 160.183 459.263 161.337C461.835 162.215 464.514 162.696 467.175 163.171C470.918 163.839 474.686 164.473 478.478 164.597C483.004 164.746 487.528 164.179 492.041 163.782C495.566 163.472 499.219 163.715 502.59 162.56C503.823 162.137 505.207 161.643 505.981 160.522C506.327 160.02 506.358 158.688 506.358 158.688C506.358 158.688 506.929 159.334 507.299 159.503C509.165 160.355 511.306 160.182 513.327 160.318C517.276 160.584 521.249 160.615 525.195 160.318C527.915 160.114 530.987 160.664 533.295 159.096C533.871 158.705 533.79 157.52 534.426 157.262C535.096 156.991 535.787 157.785 536.498 157.873C538.183 158.083 539.904 157.928 541.584 157.67C543.122 157.434 544.724 157.215 546.105 156.447C547.571 155.632 548.856 154.386 549.873 152.984C550.826 151.669 551.507 150.103 551.945 148.501C552.267 147.322 552.408 146.06 552.322 144.834C552.193 143.01 551.694 141.205 551.003 139.536C550.206 137.611 547.331 134.963 547.801 134.239C548.311 133.452 551.399 130.66 553.075 128.738C555.061 126.46 557.125 124.215 558.726 121.607C559.425 120.468 560.884 119.211 560.422 117.939C559.637 115.779 556.485 116.017 554.394 115.494C551.198 114.695 544.598 114.476 544.598 114.476L542.714 114.679C542.714 114.679 539.35 111.079 537.44 109.586C535.912 108.391 534.218 107.462 532.542 106.529C531.193 105.779 529.81 105.092 528.398 104.492C527.289 104.021 526.42 103.869 525.572 102.964C524.484 101.802 524.239 100.015 523.5 98.5833C522.497 96.641 521.568 94.6284 520.297 92.8784C519.036 91.1408 518.007 88.1923 515.965 88.1923C514.455 88.1923 513.699 90.3755 512.762 91.656C511.205 93.7844 510.041 96.2206 508.806 98.5833C507.659 100.778 507.172 103.441 505.604 105.307C504.901 106.144 503.93 106.701 502.967 107.141C502.195 107.493 501.356 107.764 500.518 107.752Z" fill="#8C8C8C" stroke="#505050" stroke-width="0.927995" stroke-linecap="round"/>
    <path d="M543.136 114.985C543.136 114.985 545.355 118.532 546.199 120.46C546.825 121.887 547.404 123.371 547.664 124.926C548.131 127.714 548.11 130.612 547.798 133.426C547.442 136.629 546.903 139.924 545.533 142.79C544.709 144.517 543.5 146.081 542.07 147.257C540.361 148.661 538.271 149.494 536.209 150.138C535.262 150.434 533.279 150.57 533.279 150.57C533.279 150.57 531.119 149.255 529.949 148.841C528.103 148.189 524.221 147.689 524.221 147.689C524.221 147.689 520.312 148.055 518.36 148.265C516.716 148.442 513.431 148.841 513.431 148.841" stroke="#505050" stroke-width="0.927995" stroke-linecap="round"/>
    <path d="M519.216 147.675C519.216 147.675 515.885 146.001 514.241 145.125C512.091 143.978 509.759 143.09 507.846 141.582C506.083 140.194 504.768 138.317 503.298 136.623C501.536 134.592 499.559 132.695 498.181 130.388C497.029 128.459 496.124 126.343 495.623 124.153C495.096 121.847 494.998 119.582 495.498 117.269C495.927 115.286 497.222 113.328 498.542 111.784C500.232 109.807 502.025 108.288 504.293 107.008C506.696 105.651 509.292 104.577 511.967 103.891C514.323 103.286 516.783 103.08 519.216 103.041C521.45 103.005 525.895 103.607 525.895 103.607L526.606 103.749" stroke="#505050" stroke-width="0.95064" stroke-linecap="round"/>
    <path d="M509.768 103.928C509.768 103.928 511.16 99.2645 512.099 97.6965C513.076 96.0659 513.767 93.2867 515.563 93.2303C517.698 93.1631 518.7 96.4062 519.958 98.2728C520.825 99.5579 522.023 102.595 522.023 102.595C522.023 102.595 518.217 102.543 516.129 102.595C514.123 102.645 509.768 103.928 509.768 103.928Z" fill="#C6BBB9"/>
    <path d="M545.533 117.83C545.533 117.83 549.551 117.115 551.527 117.434C553.18 117.701 555.735 117.326 556.323 119.019C557.002 120.978 554.438 122.691 553.259 124.35C552.034 126.074 548.497 128.924 548.497 128.924C548.497 128.924 548.308 124.745 547.665 122.693C547.084 120.841 545.533 117.83 545.533 117.83Z" fill="#C6BBB9"/>
    <path d="M533.412 150.57C533.412 150.57 535.23 152.058 535.543 153.164C535.74 153.859 534.75 155.894 534.544 156.585C534.313 157.363 533.478 158.746 533.478 158.746" stroke="#505050" stroke-width="0.927995" stroke-linecap="round"/>
    <path d="M468.409 123.629C468.409 123.629 472.083 123.66 473.87 124.061C475.713 124.475 477.525 125.148 479.198 126.078C480.502 126.803 481.736 127.719 482.795 128.816C483.846 129.906 484.922 131.097 485.459 132.561C485.952 133.907 486.474 135.335 486.518 136.782C486.56 138.174 486.08 139.722 485.725 141.062C485.261 142.82 484.312 144.444 483.195 145.816C482.126 147.128 480.808 148.274 479.332 148.986C478.258 149.503 477.041 149.62 475.868 149.706C474.271 149.822 472.665 149.6 471.073 149.418C468.794 149.157 466.525 148.765 464.28 148.265C462.349 147.835 460.383 147.469 458.552 146.68C457.703 146.315 456.154 145.24 456.154 145.24" stroke="#505050" stroke-width="0.927995" stroke-linecap="round"/>
    <path d="M474.803 149.85C474.803 149.85 479.244 150.317 481.463 150.57C484.262 150.89 487.079 151.074 489.855 151.579C492.234 152.012 494.572 152.683 496.914 153.308C498.253 153.665 499.597 154.009 500.91 154.46C502.129 154.879 503.351 155.31 504.507 155.901C505.065 156.186 505.774 156.347 506.105 156.909C506.369 157.357 506.239 158.494 506.239 158.494" stroke="#505050" stroke-width="0.927995" stroke-linecap="round"/>
    <path d="M527.884 129.176C527.884 129.176 527.757 131.254 528.084 132.201C528.336 132.932 528.816 133.591 529.382 134.074C529.933 134.543 530.626 134.83 531.314 134.975C532.251 135.172 534.178 134.903 534.178 134.903" stroke="black" stroke-width="0.927995" stroke-linecap="round"/>
    <path d="M510.501 118.046C510.501 118.046 510.643 119.236 510.867 119.775C511.102 120.34 511.44 120.874 511.866 121.288C512.454 121.859 513.203 122.215 513.931 122.549C514.325 122.73 514.735 122.928 515.163 122.945C515.833 122.971 516.518 122.779 517.128 122.477C517.38 122.351 517.794 121.936 517.794 121.936" stroke="black" stroke-width="0.927995" stroke-linecap="round"/>
    <path d="M516.961 129.536C516.646 129.678 516.431 130.074 516.362 130.436C516.194 131.315 516.52 132.265 516.895 133.066C517.115 133.536 517.44 133.987 517.86 134.254C518.497 134.659 519.291 134.674 520.025 134.759C520.522 134.816 521.064 134.97 521.523 134.759C521.892 134.589 522.287 134.249 522.356 133.822C522.432 133.356 522.088 132.902 521.823 132.525C521.24 131.697 520.411 131.091 519.592 130.544C519.034 130.172 518.423 129.882 517.794 129.68C517.524 129.594 517.221 129.419 516.961 129.536Z" fill="black" stroke="black" stroke-width="0.927995" stroke-linecap="round"/>
    <path d="M522.356 140.593C522.356 140.593 520.924 141.28 520.158 141.35C519.522 141.408 518.855 141.314 518.26 141.062C517.844 140.885 517.448 140.604 517.161 140.233C516.855 139.838 516.66 139.333 516.562 138.829C516.415 138.077 516.431 137.271 516.595 136.523C516.76 135.771 517.527 134.434 517.527 134.434L515.996 135.659C515.996 135.659 515.247 136.508 514.763 136.74C514.168 137.025 513.473 137.191 512.832 137.064C512.015 136.901 511.173 136.444 510.667 135.731C510.346 135.278 510.316 134.643 510.268 134.074C510.226 133.583 510.368 132.598 510.368 132.598" stroke="black" stroke-width="0.927995" stroke-linecap="round"/>
    <path d="M453.357 110.807L456.82 109.078C456.82 109.078 460.509 114.032 461.349 117.002C461.674 118.151 462.422 119.962 461.482 120.604C460.676 121.154 459.672 119.838 458.951 119.163C456.549 116.91 453.357 110.807 453.357 110.807Z" fill="#505050"/>
    <path d="M463.347 106.485C463.347 106.485 464.746 112.477 466.144 115.129C466.691 116.165 467.19 118.075 468.276 117.866C469.299 117.67 469.322 115.821 469.341 114.697C469.396 111.417 466.544 105.332 466.544 105.332L463.347 106.485Z" fill="#505050"/>
    <path d="M473.604 103.891C473.604 103.891 473.581 111.132 474.803 114.409C475.135 115.299 475.519 116.602 476.401 116.714C477.09 116.801 477.732 115.965 477.999 115.273C479.407 111.626 477.067 103.459 477.067 103.459L473.604 103.891Z" fill="#505050"/>
    <path d="M483.328 103.892C483.328 103.892 482.495 110.644 482.928 113.976C483.045 114.879 483.149 115.907 483.727 116.57C484.055 116.946 484.616 117.34 485.059 117.146C485.962 116.752 486.018 115.285 486.258 114.265C486.992 111.137 486.924 104.612 486.924 104.612L483.328 103.892Z" fill="#505050"/>
    <path d="M493.318 106.053C493.318 106.053 491.045 112.206 491.187 115.417C491.231 116.434 491.213 118.023 492.119 118.299C492.726 118.483 493.234 117.57 493.584 117.002C495.385 114.082 496.381 106.917 496.381 106.917L493.318 106.053Z" fill="#505050"/>
    <path d="M460.205 147.279L457.097 160.166L461.853 161.796L465.291 148.399L460.205 147.279Z" fill="#505050"/>
    <path d="M472.356 149.724L469.765 163.273L474.71 164.037L477.206 150.488L472.356 149.724Z" fill="#505050"/>
    <path d="M483.611 151.048L482.151 164.24L487.096 163.986L488.65 151.557L483.611 151.048Z" fill="#505050"/>
    <path d="M495.008 152.78L494.584 163.018L499.011 162.712L499.529 154.257L495.008 152.78Z" fill="#505050"/>
    <path d="M538.174 110.879C538.174 110.879 535.831 113.592 535.01 115.201C534.623 115.959 534.073 116.797 534.211 117.65C534.265 117.986 534.499 118.385 534.81 118.443C535.36 118.545 535.822 117.903 536.242 117.506C537.759 116.075 540.039 112.428 540.039 112.428L538.174 110.879Z" fill="#505050"/>
    <path d="M533.212 107.313C533.212 107.313 530.423 111.156 529.283 113.256C528.835 114.08 528.231 114.897 528.15 115.849C528.11 116.319 528.15 116.913 528.483 117.218C528.764 117.475 529.235 117.458 529.582 117.326C530.848 116.844 531.614 115.41 532.479 114.301C533.762 112.657 535.843 108.97 535.843 108.97L533.212 107.313Z" fill="#505050"/>
    <path d="M528.017 104.576C528.017 104.576 526.017 107.348 525.353 108.934C525.092 109.557 524.681 110.256 524.854 110.915C524.92 111.168 525.153 111.38 525.386 111.455C525.699 111.557 526.058 111.428 526.352 111.275C527.195 110.836 527.809 109.995 528.45 109.258C529.312 108.268 530.781 106.053 530.781 106.053L528.017 104.576Z" fill="#505050"/>
    <path d="M535.499 153.251C535.818 153.297 534.639 152.34 532.702 152.098C531.841 151.99 530.138 152.566 530.138 152.566" stroke="#505050" stroke-width="0.927995" stroke-linecap="round"/>
    <path d="M535.11 155.217C535.11 155.217 533.88 154.359 533.179 154.208C532.034 153.962 529.682 154.424 529.682 154.424" stroke="#505050" stroke-width="0.927995" stroke-linecap="round"/>
    <path d="M533.845 157.522C533.845 157.522 532.486 156.411 531.68 156.333C530.988 156.266 529.682 156.981 529.682 156.981" stroke="#505050" stroke-width="0.927995" stroke-linecap="round"/>
    <path d="M509.968 125.646C509.968 125.646 504.52 120.302 501.443 118.155C500.108 117.223 497.181 115.849 497.181 115.849" stroke="#DCDCDC" stroke-width="0.927995" stroke-linecap="round"/>
    <path d="M508.103 127.663C508.103 127.663 502.862 123.552 499.778 122.116C497.713 121.155 493.451 119.883 493.451 119.883" stroke="#DCDCDC" stroke-width="0.927995" stroke-linecap="round"/>
    <path d="M507.038 129.68C507.038 129.68 501.598 127.171 498.779 126.222C496.949 125.607 493.185 124.782 493.185 124.782" stroke="#DCDCDC" stroke-width="0.927995" stroke-linecap="round"/>
    <path d="M528.617 138.612C528.617 138.612 533.729 139.744 536.076 140.918C537.82 141.79 540.871 144.375 540.871 144.375" stroke="#DCDCDC" stroke-width="0.927995" stroke-linecap="round"/>
    <path d="M525.686 140.341C525.686 140.341 531.88 142.032 534.744 143.511C536.944 144.647 540.871 147.833 540.871 147.833" stroke="#DCDCDC" stroke-width="0.927995" stroke-linecap="round"/>
    <path d="M524.354 143.511C524.354 143.511 529.61 144.588 531.813 146.104C533.245 147.089 536.276 149.994 536.276 149.994" stroke="#DCDCDC" stroke-width="0.927995" stroke-linecap="round"/>
</svg>
