<?xml version="1.0" encoding="UTF-8" standalone="no"?>
<!-- Created with Inkscape (http://www.inkscape.org/) -->

<svg
   width="50mm"
   height="72mm"
   viewBox="0 0 50 72"
   version="1.1"
   id="svg1"
   xml:space="preserve"
   sodipodi:docname="Arbol.svg"
   inkscape:version="1.4 (86a8ad7, 2024-10-11)"
   xmlns:inkscape="http://www.inkscape.org/namespaces/inkscape"
   xmlns:sodipodi="http://sodipodi.sourceforge.net/DTD/sodipodi-0.dtd"
   xmlns="http://www.w3.org/2000/svg"
   xmlns:svg="http://www.w3.org/2000/svg"><sodipodi:namedview
     id="namedview1"
     pagecolor="#505050"
     bordercolor="#ffffff"
     borderopacity="1"
     inkscape:showpageshadow="0"
     inkscape:pageopacity="0"
     inkscape:pagecheckerboard="1"
     inkscape:deskcolor="#505050"
     inkscape:document-units="mm"
     inkscape:zoom="1.5974979"
     inkscape:cx="62.284902"
     inkscape:cy="154.61679"
     inkscape:window-width="1440"
     inkscape:window-height="878"
     inkscape:window-x="-6"
     inkscape:window-y="-6"
     inkscape:window-maximized="1"
     inkscape:current-layer="layer1" /><defs
     id="defs1" /><g
     inkscape:label="Capa 1"
     inkscape:groupmode="layer"
     id="layer1"><ellipse
       style="fill:#000000;fill-opacity:0.29;stroke:none;stroke-width:0.081359;stroke-linecap:round;paint-order:markers fill stroke"
       id="path15"
       cx="25.009161"
       cy="63.516644"
       rx="23.849794"
       ry="6.7077551" /><g
       id="g14"
       transform="translate(-43.712021,-91.351091)"><g
         id="g12"><ellipse
           style="fill:#502d16;stroke:#3a261b;stroke-width:0.308;stroke-linecap:round;stroke-dasharray:none;stroke-opacity:1;paint-order:markers fill stroke"
           id="path1"
           cx="67.652214"
           cy="154.05792"
           rx="7.6971664"
           ry="2.9768946" /><ellipse
           style="fill:#502d16;stroke:#3a261b;stroke-width:0.308036;stroke-linecap:round;stroke-opacity:1;paint-order:markers fill stroke"
           id="path1-8"
           cx="67.661919"
           cy="152.83952"
           rx="7.6971664"
           ry="2.9768946" /><path
           style="fill:#502d16;stroke:#3a261b;stroke-width:0.257598;stroke-linecap:round;stroke-dasharray:none;stroke-opacity:1;paint-order:markers fill stroke"
           d="m 59.959277,152.76223 c 0,1.55648 0,1.55648 0,1.55648"
           id="path2" /><path
           style="fill:#502d16;stroke:#3a261b;stroke-width:0.257598;stroke-linecap:round;stroke-dasharray:none;stroke-opacity:1;paint-order:markers fill stroke"
           d="m 75.362817,152.80745 c 0,1.55648 0,1.55648 0,1.55648"
           id="path2-1" /><rect
           style="fill:#502d16;stroke:#3a261b;stroke-width:0.184;stroke-linecap:round;stroke-dasharray:none;stroke-opacity:1;paint-order:markers fill stroke"
           id="rect2"
           width="4.0990982"
           height="9.7303009"
           x="65.359253"
           y="143.20232" /><path
           style="fill:#245c24;fill-opacity:1;stroke:#1b451b;stroke-width:0.349;stroke-linecap:round;stroke-dasharray:none;stroke-opacity:1;paint-order:markers fill stroke"
           d="m 53.961759,134.0026 -1.11372,2.32089 -2.004692,3.31554 -1.484959,1.74065 c 0,0 -1.668993,0.28668 -2.227436,0.91177 -0.409127,0.45797 -0.580125,1.17695 -0.593985,1.82355 -0.01797,0.83873 0.154732,1.79123 0.668232,2.40378 0.706636,0.84295 1.881692,1.01637 2.895667,1.24333 0.849671,0.19017 2.598679,0.0828 2.598679,0.0828 0,0 -0.130559,0.70963 0.07425,0.91177 0.575103,0.56761 2.301685,-0.0828 2.301685,-0.0828 0,0 -0.254878,0.73003 -0.07425,0.99466 0.488387,0.71549 2.375933,0.49734 2.375933,0.49734 0,0 1.708548,-0.68269 2.524428,-0.41444 0.504744,0.16594 0.679575,1.00901 1.187969,1.16043 1.585121,0.47211 4.826114,-1.07755 4.826114,-1.07755 0,0 -0.290871,1.0055 -0.07425,1.40911 0.182131,0.33934 0.610868,0.4988 0.965221,0.49733 0.464995,-0.002 1.262215,-0.66312 1.262215,-0.66312 0,0 0.154762,0.59595 0.37124,0.746 0.44205,0.30641 1.046872,0.18428 1.559207,0.0829 0.502385,-0.0994 1.038375,-0.27366 1.41071,-0.6631 0.403855,-0.42242 0.742481,-1.65778 0.742481,-1.65778 0,0 -0.05635,1.04798 0.222742,1.40911 0.306752,0.39692 0.884175,0.63831 1.336462,0.49732 0.625706,-0.19502 1.262214,-1.65776 1.262214,-1.65776 0,0 0.894691,1.0657 1.484958,1.07755 0.577155,0.0116 0.912863,-0.90875 1.484959,-0.99466 0.636794,-0.0956 1.21505,0.53322 1.856198,0.58022 0.698513,0.0511 1.472629,0.059 2.078943,-0.33155 0.381667,-0.24587 0.816726,-1.16044 0.816726,-1.16044 0,0 2.544518,0.0559 2.747173,-0.99467 0.07746,-0.40154 -0.816726,-0.82889 -0.816726,-0.82889 0,0 1.702358,0.11961 2.524429,-0.0828 0.736235,-0.18134 1.46486,-0.50635 2.07894,-0.99467 0.599347,-0.47659 1.129348,-1.10436 1.484959,-1.82355 0.223441,-0.45188 0.435921,-0.9809 0.37124,-1.49199 -0.05286,-0.4176 -0.330852,-0.77494 -0.593984,-1.07755 -0.721958,-0.8303 -1.798877,-1.1704 -2.598678,-1.90643 -1.120884,-1.03154 -3.044165,-3.48132 -3.044165,-3.48132 l -2.004691,-3.48133 -2.598677,-0.41444 0.965222,0.99466 c 0,0 0.148496,0.82889 -0.148496,0.82889 -0.296992,0 -3.118413,-0.33156 -3.118413,-0.33156 l -0.742478,1.24334 -1.930447,0.0828 -2.672924,-1.74066 0.519735,1.65778 -0.965221,0.91177 -3.118413,-1.40911 -1.930447,-2.81821 -0.07425,1.65777 -0.668231,0.66311 -1.187966,-0.41444 -1.039472,-2.56955 -1.707701,2.07222 -1.336462,0.49733 -1.559207,-1.16045 -0.07425,-0.91177 -1.781951,1.98933 -1.262214,0.33155 -0.445487,-1.16044 0.222743,-1.07754 z"
           id="path3"
           sodipodi:nodetypes="ccccsssscscscsscsscssscsscsssscscssssssccccsccccccccccccccccccccc" /><path
           style="fill:#245c24;fill-opacity:1;stroke:#273a1b;stroke-width:0.349;stroke-linecap:round;stroke-dasharray:none;stroke-opacity:1;paint-order:markers fill stroke"
           d="m 55.46849,128.02546 c 0,0 -1.754005,3.0583 -2.752167,4.50887 -0.796741,1.15786 -1.690545,2.24663 -2.576499,3.33774 -0.663261,0.81685 -1.797773,1.37917 -2.049489,2.40083 -0.105346,0.42758 -0.0214,0.97968 0.292785,1.28824 0.341405,0.33529 0.926907,0.28544 1.405364,0.29279 0.673817,0.0104 1.372638,-0.0833 1.990928,-0.35134 0.984957,-0.42702 2.5765,-1.93237 2.5765,-1.93237 0,0 -0.528288,1.28069 -0.234228,1.81525 0.155728,0.28309 0.555654,0.42592 0.878353,0.4099 0.725515,-0.036 1.338946,-0.62107 1.873816,-1.11258 0.494537,-0.45445 1.171136,-1.63959 1.171136,-1.63959 0,0 0.166181,1.30382 0.585568,1.75671 0.273405,0.29524 0.71072,0.44772 1.112578,0.46845 0.468644,0.0242 0.937869,-0.17972 1.346806,-0.4099 0.867319,-0.48819 2.225159,-1.99093 2.225159,-1.99093 0,0 0.330323,2.00523 0.995466,2.69361 0.322391,0.33365 0.824288,0.52755 1.288248,0.52702 0.358851,-4.1e-4 0.785642,-0.11878 0.995466,-0.4099 0.331761,-0.46029 0.117112,-1.69815 0.117112,-1.69815 0,0 1.414776,1.68348 2.283714,2.34227 0.389784,0.29552 0.848254,0.489 1.288251,0.70269 0.534862,0.25977 1.047876,0.64409 1.639589,0.70268 0.377145,0.0373 0.865248,0.0529 1.11258,-0.23423 0.216925,-0.25186 0.111795,-0.66737 0.05855,-0.99547 -0.06735,-0.41502 -0.468452,-1.17113 -0.468452,-1.17113 0,0 1.630573,0.90766 2.517941,1.17113 0.529242,0.15714 1.089754,0.18451 1.639589,0.23423 0.505804,0.0457 1.095137,0.33303 1.522476,0.0586 0.301952,-0.19391 0.409898,-0.99547 0.409898,-0.99547 0,0 8.93e-4,-0.0515 0.05237,-0.18247 0.267559,-0.68096 1.173209,0.21266 1.762894,0.29958 0.467054,0.0688 0.989124,0.39844 1.405363,0.17568 0.26937,-0.14416 0.409895,-0.58557 0.409895,-0.8198 0,-0.23423 -0.421754,-0.72088 -0.761238,-0.93691 -0.135793,-0.0864 -0.468452,-0.11711 -0.468452,-0.11711 l 3.513407,0.17567 c 0,0 2.186544,-0.11659 2.986394,-0.76124 0.339825,-0.27389 0.57389,-0.73484 0.585568,-1.17114 0.0131,-0.48936 -0.241164,-0.99891 -0.585568,-1.3468 -0.706914,-0.71407 -1.938951,-0.63952 -2.752169,-1.22969 -0.89475,-0.64933 -1.540145,-1.59165 -2.225156,-2.45939 -0.513259,-0.65017 -1.000639,-1.32674 -1.405364,-2.04949 -0.584865,-1.04442 -0.429888,-2.67612 -1.463918,-3.27917 -0.355682,-0.20744 -0.829344,0.21334 -1.229694,0.11711 -0.494896,-0.11896 -1.288248,-0.8198 -1.288248,-0.8198 l -0.409898,1.34681 -1.405363,0.23423 -1.229693,0.11711 -2.869282,-1.81526 0.234227,1.81526 -1.112578,-0.23423 -0.936908,-1.17113 -3.220625,3.04495 -2.752166,0.81979 -1.756704,-0.17567 -1.171136,-1.11257 -1.463921,0.87835 -2.986394,0.58556 -0.585568,-1.05402 z"
           id="path4"
           sodipodi:nodetypes="csssssscssscssscssscssssscssscsssssccsssssssscccccccccccccccc" /><path
           style="fill:#245c24;fill-opacity:1;stroke:#273a1b;stroke-width:0.349;stroke-linecap:round;stroke-dasharray:none;stroke-opacity:1;paint-order:markers fill stroke"
           d="m 57.307594,120.14479 -0.822276,1.78195 -1.480091,2.54564 -1.096364,1.33644 c 0,0 -1.232238,0.22011 -1.644545,0.70007 -0.302062,0.35162 -0.428313,0.90362 -0.438546,1.40008 -0.01329,0.64395 0.114239,1.37527 0.493365,1.84559 0.521717,0.6472 1.389278,0.78036 2.137907,0.95461 0.627324,0.14602 1.918638,0.0636 1.918638,0.0636 0,0 -0.09639,0.54483 0.05481,0.70003 0.424606,0.43579 1.699365,-0.0636 1.699365,-0.0636 0,0 -0.188182,0.56051 -0.05481,0.76369 0.360582,0.54934 1.754183,0.38185 1.754183,0.38185 0,0 1.261443,-0.52415 1.863817,-0.31821 0.372658,0.12742 0.501739,0.77473 0.877093,0.89098 1.170315,0.36246 3.563183,-0.82734 3.563183,-0.82734 0,0 -0.214754,0.77202 -0.05481,1.0819 0.134469,0.26054 0.451013,0.38298 0.712635,0.38185 0.343313,-9.5e-4 0.931911,-0.50915 0.931911,-0.50915 0,0 0.114262,0.45758 0.274092,0.57278 0.326369,0.23526 0.772917,0.14149 1.151181,0.0635 0.370918,-0.0764 0.766647,-0.21012 1.041545,-0.50912 0.298173,-0.32432 0.548183,-1.27282 0.548183,-1.27282 0,0 -0.0416,0.80462 0.164453,1.0819 0.22648,0.30474 0.652799,0.49007 0.986727,0.38185 0.461969,-0.14976 0.931911,-1.27283 0.931911,-1.27283 0,0 0.660562,0.81823 1.096363,0.82733 0.426121,0.009 0.67398,-0.69773 1.096365,-0.76369 0.470153,-0.0733 0.897087,0.40941 1.370456,0.44548 0.515721,0.0392 1.087259,0.0453 1.53491,-0.25455 0.281788,-0.18878 0.603002,-0.89097 0.603002,-0.89097 0,0 1.878644,0.043 2.028267,-0.76371 0.05719,-0.30827 -0.602992,-0.6364 -0.602992,-0.6364 0,0 1.256872,0.0918 1.863818,-0.0636 0.54357,-0.13923 1.081525,-0.38877 1.534909,-0.76369 0.442501,-0.36594 0.833806,-0.84792 1.096359,-1.4001 0.164969,-0.34694 0.321846,-0.75313 0.274093,-1.14553 -0.03899,-0.32063 -0.24427,-0.59499 -0.438543,-0.82734 -0.533032,-0.63749 -1.328139,-0.89861 -1.918642,-1.46373 -0.827564,-0.792 -2.247543,-2.67292 -2.247543,-2.67292 l -1.480092,-2.67292 -1.918637,-0.31819 0.712635,0.76369 c 0,0 0.109639,0.6364 -0.109635,0.6364 -0.219273,0 -2.302365,-0.25455 -2.302365,-0.25455 l -0.548183,0.95459 -1.425272,0.0636 -1.973454,-1.33646 0.383726,1.2728 -0.712636,0.70007 -2.302363,-1.0819 -1.425274,-2.16379 -0.05481,1.27282 -0.493365,0.50912 -0.877089,-0.3182 -0.767457,-1.97288 -1.260818,1.59102 -0.986728,0.38186 -1.151182,-0.89098 -0.05481,-0.70003 -1.315637,1.52736 -0.931908,0.25456 -0.328911,-0.89097 0.164454,-0.82732 z"
           id="path3-8"
           sodipodi:nodetypes="ccccsssscscscsscsscssscsscsssscscssssssccccsccccccccccccccccccccc" /><path
           style="fill:#245c24;fill-opacity:1;stroke:#273a1b;stroke-width:0.349;stroke-linecap:round;stroke-dasharray:none;stroke-opacity:1;paint-order:markers fill stroke"
           d="m 59.642705,114.09565 c 0,0 -1.150805,2.25742 -1.805702,3.32813 -0.522742,0.85464 -1.10917,1.65831 -1.690445,2.46369 -0.435166,0.60294 -1.179522,1.01799 -1.344673,1.77212 -0.06912,0.31561 -0.01404,0.72313 0.192096,0.9509 0.223997,0.24747 0.608147,0.21068 0.922063,0.21611 0.442091,0.008 0.900591,-0.0616 1.306251,-0.25933 0.646232,-0.3152 1.690446,-1.42634 1.690446,-1.42634 0,0 -0.346611,0.94531 -0.153677,1.33988 0.102167,0.20895 0.364564,0.31438 0.576289,0.30257 0.476011,-0.0266 0.878484,-0.45844 1.229414,-0.82124 0.324465,-0.33544 0.768384,-1.21022 0.768384,-1.21022 0,0 0.109032,0.96238 0.384192,1.29668 0.179382,0.21793 0.466304,0.33047 0.729964,0.34577 0.307478,0.0179 0.615339,-0.13266 0.883642,-0.30255 0.56905,-0.36037 1.45993,-1.46958 1.45993,-1.46958 0,0 0.216726,1.48012 0.653128,1.98825 0.211522,0.24626 0.540818,0.3894 0.845222,0.389 0.235443,-3e-4 0.515461,-0.0876 0.653126,-0.30256 0.217669,-0.33974 0.07684,-1.25345 0.07684,-1.25345 0,0 0.928237,1.24263 1.498349,1.72889 0.255738,0.21814 0.55654,0.36096 0.845224,0.51868 0.350925,0.19175 0.687513,0.47542 1.075737,0.51868 0.247446,0.0275 0.567691,0.0391 0.729966,-0.17289 0.142325,-0.18592 0.07335,-0.49262 0.03841,-0.7348 -0.0442,-0.30634 -0.307353,-0.86444 -0.307353,-0.86444 0,0 1.069822,0.66997 1.652026,0.86444 0.347236,0.11599 0.714989,0.13619 1.075737,0.17289 0.331858,0.0337 0.71852,0.24582 0.9989,0.0433 0.198111,-0.14313 0.268933,-0.73478 0.268933,-0.73478 0,0 5.87e-4,-0.0381 0.03436,-0.1347 0.175545,-0.50263 0.769744,0.15698 1.156637,0.22114 0.306434,0.0509 0.648966,0.2941 0.922061,0.12967 0.176734,-0.10641 0.268934,-0.43222 0.268934,-0.60512 0,-0.17289 -0.276714,-0.53211 -0.499451,-0.69157 -0.0891,-0.0638 -0.307351,-0.0864 -0.307351,-0.0864 l 2.305151,0.12966 c 0,0 1.434596,-0.086 1.95938,-0.5619 0.222957,-0.20216 0.376531,-0.5424 0.384194,-0.86443 0.0086,-0.36122 -0.158233,-0.73734 -0.384194,-0.99412 -0.463809,-0.52708 -1.27215,-0.47206 -1.805704,-0.90768 -0.587047,-0.47929 -1.010492,-1.17483 -1.459929,-1.81536 -0.33675,-0.4799 -0.656522,-0.9793 -0.922062,-1.51278 -0.383731,-0.77093 -0.28205,-1.97533 -0.960479,-2.42046 -0.233363,-0.15311 -0.544134,0.15748 -0.806804,0.0864 -0.324703,-0.0879 -0.845222,-0.60511 -0.845222,-0.60511 l -0.268934,0.99411 -0.922062,0.17289 -0.806803,0.0864 -1.882541,-1.3399 0.153677,1.3399 -0.729966,-0.17289 -0.614707,-0.86446 -2.113057,2.24759 -1.805701,0.60511 -1.152576,-0.12967 -0.768386,-0.82121 -0.96048,0.64832 -1.95938,0.43222 -0.384191,-0.778 z"
           id="path4-7"
           sodipodi:nodetypes="csssssscssscssscssscssssscssscsssssccsssssssscccccccccccccccc" /><path
           style="fill:#245c24;fill-opacity:1;stroke:#273a1b;stroke-width:0.349;stroke-linecap:round;stroke-dasharray:none;stroke-opacity:1;paint-order:markers fill stroke"
           d="m 61.665088,105.06888 c -0.569081,0.71557 -0.840282,1.64129 -1.427462,2.34209 -0.664513,0.79309 -1.969439,1.08352 -2.326811,2.05454 -0.155205,0.4217 -0.199512,1.11213 0.190984,1.33448 0.397071,0.22609 1.266052,-0.5255 1.266052,-0.5255 0,0 -0.631261,1.57083 -1.09295,2.27365 -0.658007,1.00167 -1.715325,1.70321 -2.35542,2.71642 -0.490085,0.77576 -1.553394,1.72203 -1.103679,2.52186 0.298859,0.53153 1.233029,0.43247 1.813009,0.24414 0.946983,-0.3075 2.161345,-2.06169 2.161345,-2.06169 0,0 -0.585433,1.51573 -0.08225,1.90289 0.581298,0.44727 1.410508,-0.40661 2.10055,-0.6552 0.743669,-0.26792 2.19401,-0.89983 2.19401,-0.89983 0,0 -0.273628,0.71693 -0.03934,0.91008 0.465181,0.38349 1.156421,-0.44372 1.758883,-0.42131 0.31452,0.0116 0.595128,0.36818 0.899353,0.28754 0.662773,-0.1757 1.199702,-0.8565 1.391699,-1.51474 0.07127,-0.24432 -0.133283,-0.75176 -0.133283,-0.75176 0,0 0.358367,0.94859 0.780854,1.1113 0.293704,0.11312 0.76848,0.0666 0.92081,-0.20886 0.143895,-0.26016 -0.295177,-0.84165 -0.295177,-0.84165 0,0 0.572455,1.74514 1.327811,1.88096 0.271682,0.0489 0.599271,-0.20488 0.683335,-0.4678 0.218565,-0.68361 -0.74152,-2.02139 -0.74152,-2.02139 0,0 2.196557,2.99087 3.540188,2.47392 0.707427,-0.27217 0.510228,-2.21595 0.510228,-2.21595 0,0 1.685778,1.8597 2.799154,2.359 1.01251,0.45407 2.497426,1.24541 3.295076,0.47398 0.260983,-0.25241 0.0072,-0.74226 -0.118977,-1.0827 -0.527542,-1.42362 -1.801562,-2.45066 -2.572891,-3.75834 -0.834995,-1.41562 -1.348641,-3.00822 -2.213338,-4.4059 -0.412821,-0.66728 -0.878689,-1.30763 -1.410547,-1.88453 -0.505536,-0.54834 -1.676631,-1.48159 -1.676631,-1.48159 l -1.420791,0.27014 -2.011146,-1.41315 -0.754855,2.12248 -1.507585,-1.55716 -1.863075,0.91413 -1.187375,-1.29465 c 0,0 -0.921413,0.79627 -1.298238,1.2701 z"
           id="path6"
           sodipodi:nodetypes="sssscsasscsscsssscsscsscscsssssscccccccs" /><path
           style="fill:#245c24;fill-opacity:1;stroke:#273a1b;stroke-width:0.349474;stroke-linecap:round;stroke-dasharray:none;stroke-opacity:1;paint-order:markers fill stroke"
           d="m 66.750397,95.268415 c -1.27453,2.126989 -1.448156,2.469513 -2.524495,4.439399 -0.697208,1.276006 -1.495914,2.496256 -2.275014,3.725676 -0.954346,1.50595 -3.879968,2.95702 -2.938557,4.47082 0.331153,0.5325 1.343973,0.12256 1.895844,-0.18629 0.647997,-0.36263 1.327091,-1.76969 1.327091,-1.76969 0,0 -0.581738,1.46584 -0.09479,1.86283 0.625185,0.50971 1.750071,-0.0427 2.369806,-0.55885 0.680505,-0.5667 1.042711,-2.42168 1.042711,-2.42168 0,0 -0.1577,3.04855 0.947921,3.72567 0.383936,0.23514 1.074447,0.0893 1.327092,-0.27943 0.30461,-0.4446 -0.700775,-1.23721 -0.284377,-1.58341 0.793439,-0.65966 1.902346,0.94517 2.938557,1.02456 0.512812,0.0392 1.287906,0.17326 1.516675,-0.27943 0.157118,-0.31089 -0.47396,-0.93142 -0.47396,-0.93142 0,0 2.186989,2.19827 3.317728,3.25997 0.711483,0.66804 1.205226,2.0872 2.18022,1.95599 0.295332,-0.0397 0.49337,-0.45286 0.473959,-0.74515 -0.04532,-0.68228 -1.327091,-1.58341 -1.327091,-1.58341 0,0 -2.505508,-3.03205 -3.602102,-4.65708 -1.087239,-1.61119 -2.249998,-3.21876 -2.938557,-5.029676 -0.631106,-1.659817 -1.083053,-2.399445 -1.829427,-4.30502 -0.199238,-0.508677 -0.867996,-0.436836 -1.049234,-0.134379 z"
           id="path5"
           sodipodi:nodetypes="ssssscsscssssscssscssss" /><path
           style="fill:none;stroke:#000000;stroke-width:0.583999;stroke-linecap:round;stroke-dasharray:none;stroke-opacity:1;paint-order:markers fill stroke"
           d="m 46.540229,143.51284 c 0,0 5.628253,0.46344 8.446802,0.41406 2.631252,-0.0461 5.250193,-0.38447 7.86712,-0.6625 4.095858,-0.43516 7.605395,-0.0327 11.612021,-0.98785 2.734631,-0.65194 5.966342,-1.40653 8.594057,-2.4057 1.643423,-0.6249 4.885897,-2.98295 4.885897,-2.98295"
           id="path7"
           sodipodi:nodetypes="cssssc" /><path
           style="fill:none;stroke:#000000;stroke-width:0.583999;stroke-linecap:round;stroke-dasharray:none;stroke-opacity:1;paint-order:markers fill stroke"
           d="m 49.604265,136.2254 c 0,0 4.158681,-0.37612 6.210885,-0.7453 3.129964,-0.56307 6.202465,-1.4151 9.274921,-2.23592 3.029563,-0.80936 6.108131,-1.50258 9.026485,-2.64998 2.297756,-0.9034 4.489507,-2.07323 6.624944,-3.31247 0.860823,-0.49956 2.484353,-1.65624 2.484353,-1.65624 l 0.165624,-0.33124"
           id="path8"
           sodipodi:nodetypes="csssscc" /><path
           style="fill:none;stroke:#000000;stroke-width:0.583999;stroke-linecap:round;stroke-dasharray:none;stroke-opacity:1;paint-order:markers fill stroke"
           d="m 53.827666,126.03955 c 0,0 5.840205,-0.18736 8.69524,-0.7453 2.013718,-0.39353 5.879637,-1.82186 5.879637,-1.82186 0,0 5.159915,-1.13219 7.618685,-2.0703 1.499403,-0.57208 4.306213,-2.15311 4.306213,-2.15311"
           id="path9"
           sodipodi:nodetypes="cscsc" /><path
           style="fill:none;stroke:#000000;stroke-width:0.583999;stroke-linecap:round;stroke-dasharray:none;stroke-opacity:1;paint-order:markers fill stroke"
           d="m 56.726079,119.00055 c 0,0 6.980463,-1.56148 10.351476,-2.73279 1.763277,-0.61268 3.463518,-1.18187 5.192886,-1.88458 1.23018,-0.49987 2.50982,-1.10961 3.667975,-1.75914 0.274508,-0.15395 0.745305,-0.57968 0.745305,-0.57968"
           id="path10"
           sodipodi:nodetypes="csssc" /><path
           style="fill:none;stroke:#000000;stroke-width:0.583999;stroke-linecap:round;stroke-dasharray:none;stroke-opacity:1;paint-order:markers fill stroke"
           d="m 58.547939,111.96155 c 0,0 6.024357,-1.33757 8.943673,-2.31873 1.700767,-0.57162 3.353814,-1.28833 4.968708,-2.0703 0.51158,-0.24772 1.490612,-0.82812 1.490612,-0.82812"
           id="path11"
           sodipodi:nodetypes="cssc" /><path
           style="fill:none;stroke:#000000;stroke-width:0.583999;stroke-linecap:round;stroke-dasharray:none;stroke-opacity:1;paint-order:markers fill stroke"
           d="m 61.280727,104.01161 c 0,0 2.719819,-0.60761 4.05778,-0.99374 1.006422,-0.29045 2.045532,-0.52286 2.981224,-0.99374 0.601969,-0.30294 1.656236,-1.15936 1.656236,-1.15936"
           id="path12"
           sodipodi:nodetypes="casc" /></g><path
         style="fill:#00ff00;fill-opacity:1;stroke:none;stroke-width:0.084;stroke-linecap:round;stroke-dasharray:none;stroke-opacity:1;paint-order:markers fill stroke"
         d="m 47.533468,143.53731 c -0.259294,0.015 -0.370848,0.44521 -0.336703,0.70268 0.03639,0.27441 0.27005,0.68296 0.541652,0.62949 0.227105,-0.0447 0.24738,-0.42897 0.219586,-0.65876 -0.03186,-0.26343 -0.159625,-0.68875 -0.424535,-0.67341 z"
         id="path13"
         sodipodi:nodetypes="sssss" /><path
         style="fill:#ffff00;fill-opacity:1;stroke:none;stroke-width:0.084;stroke-linecap:round;stroke-dasharray:none;stroke-opacity:1;paint-order:markers fill stroke"
         d="m 49.027562,142.42482 c -0.259294,0.015 -0.370848,0.44521 -0.336703,0.70268 0.03639,0.27441 0.27005,0.68296 0.541652,0.62949 0.227105,-0.0447 0.24738,-0.42897 0.219586,-0.65876 -0.03186,-0.26343 -0.159625,-0.68875 -0.424535,-0.67341 z"
         id="path13-1"
         sodipodi:nodetypes="sssss" /><path
         style="fill:#0000ff;fill-opacity:1;stroke:none;stroke-width:0.084;stroke-linecap:round;stroke-dasharray:none;stroke-opacity:1;paint-order:markers fill stroke"
         d="m 50.672091,143.69843 c -0.259294,0.015 -0.370848,0.44521 -0.336703,0.70268 0.03639,0.27441 0.27005,0.68296 0.541652,0.62949 0.227105,-0.0447 0.24738,-0.42897 0.219586,-0.65876 -0.03186,-0.26343 -0.159625,-0.68875 -0.424535,-0.67341 z"
         id="path13-5"
         sodipodi:nodetypes="sssss" /><path
         style="fill:#ff0000;fill-opacity:1;stroke:none;stroke-width:0.084;stroke-linecap:round;stroke-dasharray:none;stroke-opacity:1;paint-order:markers fill stroke"
         d="m 52.381016,142.5598 c -0.259294,0.015 -0.370848,0.44521 -0.336703,0.70268 0.03639,0.27441 0.27005,0.68296 0.541652,0.62949 0.227105,-0.0447 0.24738,-0.42897 0.219586,-0.65876 -0.03186,-0.26343 -0.159625,-0.68875 -0.424535,-0.67341 z"
         id="path13-6"
         sodipodi:nodetypes="sssss" /><path
         style="fill:#00ff00;fill-opacity:1;stroke:none;stroke-width:0.084;stroke-linecap:round;stroke-dasharray:none;stroke-opacity:1;paint-order:markers fill stroke"
         d="m 53.878074,143.75797 c -0.259294,0.015 -0.370848,0.44521 -0.336703,0.70268 0.03639,0.27441 0.27005,0.68296 0.541652,0.62949 0.227105,-0.0447 0.24738,-0.42897 0.219586,-0.65876 -0.03186,-0.26343 -0.159625,-0.68875 -0.424535,-0.67341 z"
         id="path13-8"
         sodipodi:nodetypes="sssss" /><path
         style="fill:#ffff00;fill-opacity:1;stroke:none;stroke-width:0.084;stroke-linecap:round;stroke-dasharray:none;stroke-opacity:1;paint-order:markers fill stroke"
         d="m 55.372168,142.64548 c -0.259294,0.015 -0.370848,0.44521 -0.336703,0.70268 0.03639,0.27441 0.27005,0.68296 0.541652,0.62949 0.227105,-0.0447 0.24738,-0.42897 0.219586,-0.65876 -0.03186,-0.26343 -0.159625,-0.68875 -0.424535,-0.67341 z"
         id="path13-1-6"
         sodipodi:nodetypes="sssss" /><path
         style="fill:#0000ff;fill-opacity:1;stroke:none;stroke-width:0.084;stroke-linecap:round;stroke-dasharray:none;stroke-opacity:1;paint-order:markers fill stroke"
         d="m 57.016697,143.91909 c -0.259294,0.015 -0.370848,0.44521 -0.336703,0.70268 0.03639,0.27441 0.27005,0.68296 0.541652,0.62949 0.227105,-0.0447 0.24738,-0.42897 0.219586,-0.65876 -0.03186,-0.26343 -0.159625,-0.68875 -0.424535,-0.67341 z"
         id="path13-5-5"
         sodipodi:nodetypes="sssss" /><path
         style="fill:#ff0000;fill-opacity:1;stroke:none;stroke-width:0.084;stroke-linecap:round;stroke-dasharray:none;stroke-opacity:1;paint-order:markers fill stroke"
         d="m 58.725622,142.48768 c -0.259294,0.015 -0.370848,0.44521 -0.336703,0.70268 0.03639,0.27441 0.27005,0.68296 0.541652,0.62949 0.227105,-0.0447 0.24738,-0.42897 0.219586,-0.65876 -0.03186,-0.26343 -0.159625,-0.68875 -0.424535,-0.67341 z"
         id="path13-6-0"
         sodipodi:nodetypes="sssss" /><path
         style="fill:#00ff00;fill-opacity:1;stroke:none;stroke-width:0.084;stroke-linecap:round;stroke-dasharray:none;stroke-opacity:1;paint-order:markers fill stroke"
         d="m 60.77098,143.35454 c -0.259294,0.015 -0.370848,0.44521 -0.336703,0.70268 0.03639,0.27441 0.27005,0.68296 0.541652,0.62949 0.227105,-0.0447 0.24738,-0.42897 0.219586,-0.65876 -0.03186,-0.26343 -0.159625,-0.68875 -0.424535,-0.67341 z"
         id="path13-61"
         sodipodi:nodetypes="sssss" /><path
         style="fill:#ffff00;fill-opacity:1;stroke:none;stroke-width:0.084;stroke-linecap:round;stroke-dasharray:none;stroke-opacity:1;paint-order:markers fill stroke"
         d="m 62.557858,141.83215 c -0.259294,0.015 -0.370848,0.44521 -0.336703,0.70268 0.03639,0.27441 0.27005,0.68296 0.541652,0.62949 0.227105,-0.0447 0.24738,-0.42897 0.219586,-0.65876 -0.03186,-0.26343 -0.159625,-0.68875 -0.424535,-0.67341 z"
         id="path13-1-3"
         sodipodi:nodetypes="sssss" /><path
         style="fill:#0000ff;fill-opacity:1;stroke:none;stroke-width:0.084;stroke-linecap:round;stroke-dasharray:none;stroke-opacity:1;paint-order:markers fill stroke"
         d="m 64.700119,142.81297 c -0.259294,0.015 -0.370848,0.44521 -0.336703,0.70268 0.03639,0.27441 0.27005,0.68296 0.541652,0.62949 0.227105,-0.0447 0.24738,-0.42897 0.219586,-0.65876 -0.03186,-0.26343 -0.159625,-0.68875 -0.424535,-0.67341 z"
         id="path13-5-8"
         sodipodi:nodetypes="sssss" /><path
         style="fill:#ff0000;fill-opacity:1;stroke:none;stroke-width:0.084;stroke-linecap:round;stroke-dasharray:none;stroke-opacity:1;paint-order:markers fill stroke"
         d="m 66.204096,141.58651 c -0.259294,0.015 -0.370848,0.44521 -0.336703,0.70268 0.03639,0.27441 0.27005,0.68296 0.541652,0.62949 0.227105,-0.0447 0.24738,-0.42897 0.219586,-0.65876 -0.03186,-0.26343 -0.159625,-0.68875 -0.424535,-0.67341 z"
         id="path13-6-9"
         sodipodi:nodetypes="sssss" /><path
         style="fill:#00ff00;fill-opacity:1;stroke:none;stroke-width:0.084;stroke-linecap:round;stroke-dasharray:none;stroke-opacity:1;paint-order:markers fill stroke"
         d="m 67.788989,142.81396 c -0.259294,0.015 -0.370848,0.44521 -0.336703,0.70268 0.03639,0.27441 0.27005,0.68296 0.541652,0.62949 0.227105,-0.0447 0.24738,-0.42897 0.219586,-0.65876 -0.03186,-0.26343 -0.159625,-0.68875 -0.424535,-0.67341 z"
         id="path13-8-3"
         sodipodi:nodetypes="sssss" /><path
         style="fill:#ffff00;fill-opacity:1;stroke:none;stroke-width:0.084;stroke-linecap:round;stroke-dasharray:none;stroke-opacity:1;paint-order:markers fill stroke"
         d="m 69.488032,141.5258 c -0.259294,0.015 -0.370848,0.44521 -0.336703,0.70268 0.03639,0.27441 0.27005,0.68296 0.541652,0.62949 0.227105,-0.0447 0.24738,-0.42897 0.219586,-0.65876 -0.03186,-0.26343 -0.159625,-0.68875 -0.424535,-0.67341 z"
         id="path13-1-6-4"
         sodipodi:nodetypes="sssss" /><path
         style="fill:#0000ff;fill-opacity:1;stroke:none;stroke-width:0.084;stroke-linecap:round;stroke-dasharray:none;stroke-opacity:1;paint-order:markers fill stroke"
         d="m 70.986169,142.74085 c -0.259294,0.015 -0.370848,0.44521 -0.336703,0.70268 0.03639,0.27441 0.27005,0.68296 0.541652,0.62949 0.227105,-0.0447 0.24738,-0.42897 0.219586,-0.65876 -0.03186,-0.26343 -0.159625,-0.68875 -0.424535,-0.67341 z"
         id="path13-5-5-4"
         sodipodi:nodetypes="sssss" /><path
         style="fill:#ff0000;fill-opacity:1;stroke:none;stroke-width:0.084;stroke-linecap:round;stroke-dasharray:none;stroke-opacity:1;paint-order:markers fill stroke"
         d="m 72.490145,141.33871 c -0.259294,0.015 -0.370848,0.44521 -0.336703,0.70268 0.03639,0.27441 0.27005,0.68296 0.541652,0.62949 0.227105,-0.0447 0.24738,-0.42897 0.219586,-0.65876 -0.03186,-0.26343 -0.159625,-0.68875 -0.424535,-0.67341 z"
         id="path13-6-0-6"
         sodipodi:nodetypes="sssss" /><path
         style="fill:#00ff00;fill-opacity:1;stroke:none;stroke-width:0.084;stroke-linecap:round;stroke-dasharray:none;stroke-opacity:1;paint-order:markers fill stroke"
         d="m 74.679694,142.10591 c -0.244071,0.0888 -0.227413,0.53294 -0.120785,0.76976 0.113642,0.25241 0.454761,0.57668 0.699577,0.44748 0.20471,-0.10802 0.113806,-0.48193 0.02121,-0.69407 -0.106151,-0.24319 -0.350648,-0.61392 -0.600002,-0.52317 z"
         id="path13-18"
         sodipodi:nodetypes="sssss" /><path
         style="fill:#ffff00;fill-opacity:1;stroke:none;stroke-width:0.084;stroke-linecap:round;stroke-dasharray:none;stroke-opacity:1;paint-order:markers fill stroke"
         d="m 75.791485,140.61129 c -0.244071,0.0888 -0.227413,0.53294 -0.120785,0.76977 0.113642,0.25241 0.454761,0.57667 0.699577,0.44748 0.20471,-0.10802 0.113806,-0.48194 0.02121,-0.69407 -0.106151,-0.2432 -0.350648,-0.61393 -0.600002,-0.52318 z"
         id="path13-1-4"
         sodipodi:nodetypes="sssss" /><path
         style="fill:#0000ff;fill-opacity:1;stroke:none;stroke-width:0.084;stroke-linecap:round;stroke-dasharray:none;stroke-opacity:1;paint-order:markers fill stroke"
         d="m 77.732437,141.35913 c -0.244071,0.0888 -0.227413,0.53294 -0.120785,0.76977 0.113642,0.25241 0.454761,0.57667 0.699577,0.44748 0.20471,-0.10803 0.113806,-0.48194 0.02121,-0.69407 -0.106151,-0.2432 -0.350648,-0.61393 -0.600002,-0.52318 z"
         id="path13-5-9"
         sodipodi:nodetypes="sssss" /><path
         style="fill:#ff0000;fill-opacity:1;stroke:none;stroke-width:0.084;stroke-linecap:round;stroke-dasharray:none;stroke-opacity:1;paint-order:markers fill stroke"
         d="m 79.04251,139.7778 c -0.244071,0.0888 -0.227413,0.53294 -0.120785,0.76977 0.113642,0.2524 0.454761,0.57667 0.699577,0.44747 0.20471,-0.10802 0.113806,-0.48193 0.02121,-0.69407 -0.106151,-0.24319 -0.350648,-0.61392 -0.600002,-0.52317 z"
         id="path13-6-6"
         sodipodi:nodetypes="sssss" /><path
         style="fill:#00ff00;fill-opacity:1;stroke:none;stroke-width:0.084;stroke-linecap:round;stroke-dasharray:none;stroke-opacity:1;paint-order:markers fill stroke"
         d="m 81.02549,140.49571 c -0.244071,0.0888 -0.227414,0.53294 -0.120786,0.76977 0.113643,0.25241 0.454762,0.57667 0.699578,0.44748 0.20471,-0.10802 0.113806,-0.48194 0.02121,-0.69407 -0.10615,-0.24319 -0.350647,-0.61393 -0.6,-0.52318 z"
         id="path13-8-37"
         sodipodi:nodetypes="sssss" /><path
         style="fill:#ffff00;fill-opacity:1;stroke:none;stroke-width:0.084;stroke-linecap:round;stroke-dasharray:none;stroke-opacity:1;paint-order:markers fill stroke"
         d="m 81.96161,138.73759 c -0.244071,0.0888 -0.227413,0.53294 -0.120785,0.76977 0.113642,0.25241 0.454761,0.57667 0.699577,0.44747 0.20471,-0.10802 0.113806,-0.48193 0.02121,-0.69407 -0.106151,-0.24319 -0.350648,-0.61392 -0.600002,-0.52317 z"
         id="path13-1-6-8"
         sodipodi:nodetypes="sssss" /><path
         style="fill:#0000ff;fill-opacity:1;stroke:none;stroke-width:0.084;stroke-linecap:round;stroke-dasharray:none;stroke-opacity:1;paint-order:markers fill stroke"
         d="m 83.785449,139.54399 c -0.244071,0.0888 -0.227414,0.53294 -0.120785,0.76977 0.113642,0.2524 0.454761,0.57667 0.699577,0.44747 0.20471,-0.10802 0.113806,-0.48193 0.02121,-0.69407 -0.106151,-0.24319 -0.350648,-0.61392 -0.600002,-0.52317 z"
         id="path13-5-5-8"
         sodipodi:nodetypes="sssss" /><path
         style="fill:#ff0000;fill-opacity:1;stroke:none;stroke-width:0.084;stroke-linecap:round;stroke-dasharray:none;stroke-opacity:1;paint-order:markers fill stroke"
         d="m 84.422119,137.72843 c -0.244071,0.0888 -0.227414,0.53294 -0.120785,0.76976 0.113642,0.25241 0.454761,0.57668 0.699577,0.44748 0.20471,-0.10802 0.113806,-0.48193 0.02121,-0.69407 -0.10615,-0.24319 -0.350647,-0.61392 -0.6,-0.52317 z"
         id="path13-6-0-2"
         sodipodi:nodetypes="sssss" /><path
         style="fill:#00ff00;fill-opacity:1;stroke:none;stroke-width:0.084;stroke-linecap:round;stroke-dasharray:none;stroke-opacity:1;paint-order:markers fill stroke"
         d="m 86.243549,137.97846 c -0.259294,0.015 -0.370848,0.44521 -0.336703,0.70268 0.03639,0.27441 0.27005,0.68296 0.541652,0.62949 0.227105,-0.0447 0.24738,-0.42897 0.219586,-0.65876 -0.03186,-0.26343 -0.159625,-0.68875 -0.424535,-0.67341 z"
         id="path13-59"
         sodipodi:nodetypes="sssss" /><path
         style="fill:#ffff00;fill-opacity:1;stroke:none;stroke-width:0.084;stroke-linecap:round;stroke-dasharray:none;stroke-opacity:1;paint-order:markers fill stroke"
         d="m 86.976405,136.04617 c -0.259294,0.015 -0.370848,0.44521 -0.336703,0.70268 0.03639,0.27441 0.27005,0.68296 0.541652,0.62949 0.227105,-0.0447 0.24738,-0.42897 0.219586,-0.65876 -0.03186,-0.26343 -0.159625,-0.68875 -0.424535,-0.67341 z"
         id="path13-1-8"
         sodipodi:nodetypes="sssss" /><path
         style="fill:#00ff00;fill-opacity:1;stroke:none;stroke-width:0.084;stroke-linecap:round;stroke-dasharray:none;stroke-opacity:1;paint-order:markers fill stroke"
         d="m 50.829273,135.99444 c -0.251355,0.0654 -0.27663,0.50914 -0.192797,0.75496 0.08935,0.262 0.398387,0.61697 0.65429,0.51142 0.213979,-0.0882 0.15872,-0.46906 0.08652,-0.68898 -0.08275,-0.25211 -0.291226,-0.64424 -0.548021,-0.5774 z"
         id="path13-0"
         sodipodi:nodetypes="sssss" /><path
         style="fill:#ffff00;fill-opacity:1;stroke:none;stroke-width:0.084;stroke-linecap:round;stroke-dasharray:none;stroke-opacity:1;paint-order:markers fill stroke"
         d="m 52.076979,134.61127 c -0.251355,0.0654 -0.27663,0.50913 -0.192797,0.75496 0.08935,0.26199 0.398387,0.61696 0.65429,0.51141 0.21398,-0.0882 0.15872,-0.46905 0.08653,-0.68898 -0.08276,-0.25212 -0.291226,-0.64424 -0.548022,-0.57739 z"
         id="path13-1-9"
         sodipodi:nodetypes="sssss" /><path
         style="fill:#0000ff;fill-opacity:1;stroke:none;stroke-width:0.084;stroke-linecap:round;stroke-dasharray:none;stroke-opacity:1;paint-order:markers fill stroke"
         d="m 53.938809,135.53871 c -0.251355,0.0654 -0.27663,0.50913 -0.192796,0.75495 0.08935,0.262 0.398386,0.61697 0.654289,0.51143 0.21398,-0.0883 0.158721,-0.46907 0.08653,-0.68899 -0.08275,-0.25211 -0.291226,-0.64424 -0.548023,-0.57739 z"
         id="path13-5-7"
         sodipodi:nodetypes="sssss" /><path
         style="fill:#ff0000;fill-opacity:1;stroke:none;stroke-width:0.084;stroke-linecap:round;stroke-dasharray:none;stroke-opacity:1;paint-order:markers fill stroke"
         d="m 55.392087,134.08788 c -0.251354,0.0654 -0.276629,0.50914 -0.192796,0.75496 0.08935,0.262 0.398387,0.61697 0.65429,0.51143 0.213979,-0.0882 0.15872,-0.46907 0.08653,-0.68899 -0.08276,-0.25211 -0.291225,-0.64424 -0.548022,-0.5774 z"
         id="path13-6-3"
         sodipodi:nodetypes="sssss" /><path
         style="fill:#00ff00;fill-opacity:1;stroke:none;stroke-width:0.084;stroke-linecap:round;stroke-dasharray:none;stroke-opacity:1;paint-order:markers fill stroke"
         d="m 57.094541,134.97018 c -0.251354,0.0654 -0.276629,0.50914 -0.192795,0.75496 0.08935,0.26199 0.398386,0.61696 0.654289,0.51141 0.21398,-0.0882 0.15872,-0.46905 0.08653,-0.68898 -0.08275,-0.25211 -0.291225,-0.64423 -0.548022,-0.57739 z"
         id="path13-8-7"
         sodipodi:nodetypes="sssss" /><path
         style="fill:#ffff00;fill-opacity:1;stroke:none;stroke-width:0.084;stroke-linecap:round;stroke-dasharray:none;stroke-opacity:1;paint-order:markers fill stroke"
         d="m 58.342248,133.587 c -0.251354,0.0654 -0.276629,0.50914 -0.192796,0.75496 0.08935,0.262 0.398387,0.61696 0.654289,0.51142 0.21398,-0.0882 0.158721,-0.46907 0.08653,-0.68898 -0.08275,-0.25212 -0.291225,-0.64425 -0.548021,-0.5774 z"
         id="path13-1-6-2"
         sodipodi:nodetypes="sssss" /><path
         style="fill:#0000ff;fill-opacity:1;stroke:none;stroke-width:0.084;stroke-linecap:round;stroke-dasharray:none;stroke-opacity:1;paint-order:markers fill stroke"
         d="m 60.204078,134.51445 c -0.251354,0.0654 -0.276629,0.50913 -0.192796,0.75495 0.08935,0.26199 0.398387,0.61697 0.65429,0.51142 0.213979,-0.0883 0.15872,-0.46906 0.08653,-0.68898 -0.08275,-0.25212 -0.291226,-0.64424 -0.548022,-0.57739 z"
         id="path13-5-5-6"
         sodipodi:nodetypes="sssss" /><path
         style="fill:#ff0000;fill-opacity:1;stroke:none;stroke-width:0.084;stroke-linecap:round;stroke-dasharray:none;stroke-opacity:1;paint-order:markers fill stroke"
         d="m 61.657356,133.06362 c -0.251354,0.0654 -0.276629,0.50914 -0.192795,0.75496 0.08935,0.26199 0.398386,0.61697 0.654288,0.51142 0.213981,-0.0882 0.158722,-0.46906 0.08653,-0.68898 -0.08275,-0.25212 -0.291225,-0.64424 -0.548022,-0.5774 z"
         id="path13-6-0-0"
         sodipodi:nodetypes="sssss" /><path
         style="fill:#00ff00;fill-opacity:1;stroke:none;stroke-width:0.084;stroke-linecap:round;stroke-dasharray:none;stroke-opacity:1;paint-order:markers fill stroke"
         d="m 63.456541,133.53572 c -0.240959,0.097 -0.20944,0.54026 -0.09494,0.77338 0.122029,0.24846 0.473816,0.56113 0.714169,0.4238 0.200978,-0.11481 0.0976,-0.48547 -0.002,-0.69439 -0.114234,-0.2395 -0.371008,-0.60184 -0.617183,-0.50279 z"
         id="path13-7"
         sodipodi:nodetypes="sssss" /><path
         style="fill:#ffff00;fill-opacity:1;stroke:none;stroke-width:0.084;stroke-linecap:round;stroke-dasharray:none;stroke-opacity:1;paint-order:markers fill stroke"
         d="m 64.517663,132.00471 c -0.240959,0.097 -0.20944,0.54026 -0.09494,0.77339 0.12203,0.24846 0.473816,0.56112 0.714168,0.4238 0.200979,-0.11481 0.09761,-0.48548 -0.002,-0.69439 -0.114235,-0.2395 -0.371008,-0.60184 -0.617183,-0.5028 z"
         id="path13-1-5"
         sodipodi:nodetypes="sssss" /><path
         style="fill:#0000ff;fill-opacity:1;stroke:none;stroke-width:0.084;stroke-linecap:round;stroke-dasharray:none;stroke-opacity:1;paint-order:markers fill stroke"
         d="m 66.482568,132.68715 c -0.240959,0.097 -0.209441,0.54025 -0.09494,0.77338 0.12203,0.24846 0.473816,0.56112 0.714168,0.42379 0.200979,-0.11481 0.09761,-0.48547 -0.002,-0.69438 -0.114234,-0.2395 -0.371008,-0.60184 -0.617182,-0.50279 z"
         id="path13-5-4"
         sodipodi:nodetypes="sssss" /><path
         style="fill:#ff0000;fill-opacity:1;stroke:none;stroke-width:0.084;stroke-linecap:round;stroke-dasharray:none;stroke-opacity:1;paint-order:markers fill stroke"
         d="m 67.738957,131.06283 c -0.24096,0.097 -0.209442,0.54026 -0.09494,0.77339 0.12203,0.24845 0.473816,0.56112 0.714168,0.42379 0.200979,-0.11481 0.09761,-0.48547 -0.002,-0.69438 -0.114233,-0.2395 -0.371007,-0.60184 -0.617181,-0.5028 z"
         id="path13-6-1"
         sodipodi:nodetypes="sssss" /><path
         style="fill:#00ff00;fill-opacity:1;stroke:none;stroke-width:0.084;stroke-linecap:round;stroke-dasharray:none;stroke-opacity:1;paint-order:markers fill stroke"
         d="m 69.540028,131.72081 c -0.240959,0.097 -0.20944,0.54026 -0.09494,0.77338 0.12203,0.24846 0.473816,0.56113 0.714168,0.4238 0.200979,-0.11481 0.09761,-0.48547 -0.002,-0.69439 -0.114234,-0.2395 -0.371008,-0.60184 -0.617183,-0.50279 z"
         id="path13-8-2"
         sodipodi:nodetypes="sssss" /><path
         style="fill:#ffff00;fill-opacity:1;stroke:none;stroke-width:0.084;stroke-linecap:round;stroke-dasharray:none;stroke-opacity:1;paint-order:markers fill stroke"
         d="m 70.60115,130.18981 c -0.240959,0.097 -0.20944,0.54026 -0.09494,0.77338 0.12203,0.24846 0.473816,0.56112 0.714168,0.4238 0.200979,-0.11481 0.09761,-0.48548 -0.002,-0.69439 -0.114235,-0.23951 -0.371008,-0.60184 -0.617183,-0.50279 z"
         id="path13-1-6-0"
         sodipodi:nodetypes="sssss" /><path
         style="fill:#0000ff;fill-opacity:1;stroke:none;stroke-width:0.084;stroke-linecap:round;stroke-dasharray:none;stroke-opacity:1;paint-order:markers fill stroke"
         d="m 72.566055,130.87224 c -0.240959,0.097 -0.209441,0.54025 -0.09494,0.77338 0.122031,0.24846 0.473816,0.56112 0.714168,0.42379 0.200979,-0.11481 0.09761,-0.48547 -0.002,-0.69438 -0.114233,-0.2395 -0.371007,-0.60184 -0.617181,-0.50279 z"
         id="path13-5-5-0"
         sodipodi:nodetypes="sssss" /><path
         style="fill:#ff0000;fill-opacity:1;stroke:none;stroke-width:0.084;stroke-linecap:round;stroke-dasharray:none;stroke-opacity:1;paint-order:markers fill stroke"
         d="m 73.822443,129.24792 c -0.240959,0.097 -0.209441,0.54026 -0.09494,0.77339 0.12203,0.24845 0.473815,0.56112 0.714168,0.42379 0.200979,-0.11481 0.09761,-0.48547 -0.002,-0.69438 -0.114235,-0.23951 -0.371008,-0.60184 -0.617183,-0.5028 z"
         id="path13-6-0-1"
         sodipodi:nodetypes="sssss" /><path
         style="fill:#00ff00;fill-opacity:1;stroke:none;stroke-width:0.084;stroke-linecap:round;stroke-dasharray:none;stroke-opacity:1;paint-order:markers fill stroke"
         d="m 75.234553,130.01071 c -0.234047,0.1126 -0.173375,0.55288 -0.04376,0.77795 0.138142,0.23988 0.509771,0.52867 0.74055,0.37581 0.192973,-0.12782 0.06539,-0.49086 -0.04781,-0.69275 -0.129772,-0.23145 -0.409871,-0.57607 -0.648981,-0.46101 z"
         id="path13-71"
         sodipodi:nodetypes="sssss" /><path
         style="fill:#ffff00;fill-opacity:1;stroke:none;stroke-width:0.084;stroke-linecap:round;stroke-dasharray:none;stroke-opacity:1;paint-order:markers fill stroke"
         d="m 76.192453,128.41309 c -0.234047,0.11261 -0.173375,0.55288 -0.04376,0.77795 0.138142,0.23988 0.509772,0.52868 0.74055,0.37581 0.192974,-0.12781 0.06539,-0.49085 -0.04781,-0.69275 -0.129772,-0.23145 -0.40987,-0.57607 -0.648981,-0.46101 z"
         id="path13-1-7"
         sodipodi:nodetypes="sssss" /><path
         style="fill:#0000ff;fill-opacity:1;stroke:none;stroke-width:0.084;stroke-linecap:round;stroke-dasharray:none;stroke-opacity:1;paint-order:markers fill stroke"
         d="m 78.198066,128.77819 c -0.234047,0.11261 -0.173375,0.55288 -0.04376,0.77795 0.138142,0.23988 0.509771,0.52868 0.74055,0.37581 0.192973,-0.12781 0.06539,-0.49085 -0.04781,-0.69275 -0.129772,-0.23145 -0.409871,-0.57607 -0.648981,-0.46101 z"
         id="path13-5-77"
         sodipodi:nodetypes="sssss" /><path
         style="fill:#ff0000;fill-opacity:1;stroke:none;stroke-width:0.084;stroke-linecap:round;stroke-dasharray:none;stroke-opacity:1;paint-order:markers fill stroke"
         d="m 78.744273,126.86758 c -0.234047,0.1126 -0.173375,0.55288 -0.04376,0.77795 0.138142,0.23988 0.509771,0.52867 0.74055,0.37581 0.192973,-0.12781 0.06539,-0.49085 -0.04781,-0.69275 -0.129772,-0.23145 -0.409871,-0.57607 -0.648981,-0.46101 z"
         id="path13-6-7"
         sodipodi:nodetypes="sssss" /><path
         style="fill:#00ff00;fill-opacity:1;stroke:none;stroke-width:0.084;stroke-linecap:round;stroke-dasharray:none;stroke-opacity:1;paint-order:markers fill stroke"
         d="m 80.729718,127.4054 c -0.234047,0.1126 -0.173375,0.55288 -0.04376,0.77795 0.138142,0.23988 0.509771,0.52867 0.74055,0.37581 0.192973,-0.12781 0.06539,-0.49085 -0.04781,-0.69275 -0.129772,-0.23145 -0.409871,-0.57607 -0.648981,-0.46101 z"
         id="path13-8-33"
         sodipodi:nodetypes="sssss" /><path
         style="fill:#ffff00;fill-opacity:1;stroke:none;stroke-width:0.084;stroke-linecap:round;stroke-dasharray:none;stroke-opacity:1;paint-order:markers fill stroke"
         d="m 80.652471,125.70427 c -0.234047,0.11261 -0.173375,0.55288 -0.04376,0.77795 0.138142,0.23988 0.509772,0.52868 0.74055,0.37581 0.192974,-0.12781 0.06539,-0.49085 -0.04781,-0.69274 -0.129772,-0.23146 -0.40987,-0.57608 -0.648981,-0.46102 z"
         id="path13-1-6-5"
         sodipodi:nodetypes="sssss" /><path
         style="fill:#0000ff;fill-opacity:1;stroke:none;stroke-width:0.084;stroke-linecap:round;stroke-dasharray:none;stroke-opacity:1;paint-order:markers fill stroke"
         d="m 82.616678,126.02797 c -0.234047,0.11261 -0.173375,0.55288 -0.04376,0.77795 0.138142,0.23988 0.509771,0.52868 0.74055,0.37581 0.192973,-0.12781 0.06539,-0.49085 -0.04781,-0.69274 -0.129772,-0.23146 -0.409871,-0.57608 -0.648981,-0.46102 z"
         id="path13-5-5-9"
         sodipodi:nodetypes="sssss" /><path
         style="fill:#00ff00;fill-opacity:1;stroke:none;stroke-width:0.084;stroke-linecap:round;stroke-dasharray:none;stroke-opacity:1;paint-order:markers fill stroke"
         d="m 54.777687,125.92701 c -0.259591,0.008 -0.38201,0.43567 -0.3544,0.69393 0.02942,0.27524 0.252658,0.68958 0.525528,0.64301 0.228165,-0.0389 0.25817,-0.42257 0.236207,-0.65299 -0.02518,-0.26415 -0.142122,-0.69257 -0.407335,-0.68395 z"
         id="path13-2"
         sodipodi:nodetypes="sssss" /><path
         style="fill:#ffff00;fill-opacity:1;stroke:none;stroke-width:0.084;stroke-linecap:round;stroke-dasharray:none;stroke-opacity:1;paint-order:markers fill stroke"
         d="m 55.831035,124.5014 c -0.25959,0.008 -0.382009,0.43567 -0.354399,0.69392 0.02943,0.27524 0.252658,0.68958 0.525528,0.64301 0.228164,-0.0389 0.25817,-0.42256 0.236207,-0.65298 -0.02517,-0.26415 -0.142122,-0.69257 -0.407336,-0.68395 z"
         id="path13-1-66"
         sodipodi:nodetypes="sssss" /><path
         style="fill:#0000ff;fill-opacity:1;stroke:none;stroke-width:0.084;stroke-linecap:round;stroke-dasharray:none;stroke-opacity:1;paint-order:markers fill stroke"
         d="m 57.442765,125.81627 c -0.25959,0.008 -0.382009,0.43567 -0.354399,0.69392 0.02942,0.27525 0.252658,0.68958 0.525528,0.64301 0.228164,-0.0389 0.25817,-0.42256 0.236207,-0.65298 -0.02518,-0.26415 -0.142122,-0.69257 -0.407336,-0.68395 z"
         id="path13-5-0"
         sodipodi:nodetypes="sssss" /><path
         style="fill:#ff0000;fill-opacity:1;stroke:none;stroke-width:0.084;stroke-linecap:round;stroke-dasharray:none;stroke-opacity:1;paint-order:markers fill stroke"
         d="m 58.652982,124.42853 c -0.259591,0.008 -0.38201,0.43567 -0.3544,0.69392 0.02943,0.27524 0.252658,0.68958 0.525528,0.64301 0.228165,-0.0389 0.25817,-0.42256 0.236207,-0.65298 -0.02517,-0.26416 -0.142122,-0.69258 -0.407335,-0.68395 z"
         id="path13-6-38"
         sodipodi:nodetypes="sssss" /><path
         style="fill:#00ff00;fill-opacity:1;stroke:none;stroke-width:0.084;stroke-linecap:round;stroke-dasharray:none;stroke-opacity:1;paint-order:markers fill stroke"
         d="m 60.119199,125.75207 c -0.25959,0.008 -0.382009,0.43567 -0.354399,0.69393 0.02942,0.27524 0.252658,0.68958 0.525528,0.64301 0.228165,-0.0389 0.25817,-0.42257 0.236207,-0.65299 -0.02517,-0.26415 -0.142122,-0.69257 -0.407336,-0.68395 z"
         id="path13-8-0"
         sodipodi:nodetypes="sssss" /><path
         style="fill:#ffff00;fill-opacity:1;stroke:none;stroke-width:0.084;stroke-linecap:round;stroke-dasharray:none;stroke-opacity:1;paint-order:markers fill stroke"
         d="m 61.611724,124.09223 c -0.259591,0.008 -0.38201,0.43567 -0.354399,0.69392 0.02942,0.27525 0.252658,0.68958 0.525528,0.64301 0.228164,-0.0389 0.25817,-0.42256 0.236207,-0.65298 -0.02518,-0.26415 -0.142122,-0.69257 -0.407336,-0.68395 z"
         id="path13-1-6-1"
         sodipodi:nodetypes="sssss" /><path
         style="fill:#0000ff;fill-opacity:1;stroke:none;stroke-width:0.084;stroke-linecap:round;stroke-dasharray:none;stroke-opacity:1;paint-order:markers fill stroke"
         d="m 63.369846,125.26071 c -0.259591,0.008 -0.38201,0.43567 -0.354399,0.69392 0.02942,0.27525 0.252658,0.68958 0.525528,0.64301 0.228164,-0.0389 0.25817,-0.42256 0.236207,-0.65298 -0.02517,-0.26415 -0.142122,-0.69257 -0.407336,-0.68395 z"
         id="path13-5-5-2"
         sodipodi:nodetypes="sssss" /><path
         style="fill:#ff0000;fill-opacity:1;stroke:none;stroke-width:0.084;stroke-linecap:round;stroke-dasharray:none;stroke-opacity:1;paint-order:markers fill stroke"
         d="m 64.550783,123.31668 c -0.25959,0.008 -0.382009,0.43567 -0.354399,0.69392 0.02943,0.27524 0.252658,0.68958 0.525528,0.64301 0.228165,-0.0389 0.25817,-0.42256 0.236207,-0.65298 -0.02518,-0.26416 -0.142122,-0.69258 -0.407336,-0.68395 z"
         id="path13-6-0-5"
         sodipodi:nodetypes="sssss" /><path
         style="fill:#00ff00;fill-opacity:1;stroke:none;stroke-width:0.084;stroke-linecap:round;stroke-dasharray:none;stroke-opacity:1;paint-order:markers fill stroke"
         d="m 66.154616,124.23737 c -0.259294,0.015 -0.370848,0.44521 -0.336703,0.70268 0.03639,0.27441 0.27005,0.68296 0.541652,0.62949 0.227105,-0.0447 0.24738,-0.42897 0.219586,-0.65876 -0.03186,-0.26343 -0.159625,-0.68875 -0.424535,-0.67341 z"
         id="path13-78"
         sodipodi:nodetypes="sssss" /><path
         style="fill:#ffff00;fill-opacity:1;stroke:none;stroke-width:0.084;stroke-linecap:round;stroke-dasharray:none;stroke-opacity:1;paint-order:markers fill stroke"
         d="m 67.268091,122.39292 c -0.259294,0.015 -0.370848,0.44521 -0.336703,0.70268 0.03639,0.27441 0.27005,0.68296 0.541652,0.62949 0.227105,-0.0447 0.24738,-0.42897 0.219586,-0.65876 -0.03186,-0.26343 -0.159625,-0.68875 -0.424535,-0.67341 z"
         id="path13-1-35"
         sodipodi:nodetypes="sssss" /><path
         style="fill:#0000ff;fill-opacity:1;stroke:none;stroke-width:0.084;stroke-linecap:round;stroke-dasharray:none;stroke-opacity:1;paint-order:markers fill stroke"
         d="m 69.410352,123.43231 c -0.259294,0.015 -0.370848,0.44521 -0.336703,0.70268 0.03639,0.27441 0.27005,0.68296 0.541652,0.62949 0.227105,-0.0447 0.24738,-0.42897 0.219586,-0.65876 -0.03186,-0.26343 -0.159625,-0.68875 -0.424535,-0.67341 z"
         id="path13-5-1"
         sodipodi:nodetypes="sssss" /><path
         style="fill:#ff0000;fill-opacity:1;stroke:none;stroke-width:0.084;stroke-linecap:round;stroke-dasharray:none;stroke-opacity:1;paint-order:markers fill stroke"
         d="m 70.88505,121.50316 c -0.259294,0.015 -0.370848,0.44521 -0.336703,0.70268 0.03639,0.27441 0.27005,0.68296 0.541652,0.62949 0.227105,-0.0447 0.24738,-0.42897 0.219586,-0.65876 -0.03186,-0.26343 -0.159625,-0.68875 -0.424535,-0.67341 z"
         id="path13-6-2"
         sodipodi:nodetypes="sssss" /><path
         style="fill:#00ff00;fill-opacity:1;stroke:none;stroke-width:0.084;stroke-linecap:round;stroke-dasharray:none;stroke-opacity:1;paint-order:markers fill stroke"
         d="m 72.996954,122.29143 c -0.259294,0.015 -0.370848,0.44521 -0.336703,0.70268 0.03639,0.27441 0.27005,0.68296 0.541652,0.62949 0.227105,-0.0447 0.24738,-0.42897 0.219586,-0.65876 -0.03186,-0.26343 -0.159625,-0.68875 -0.424535,-0.67341 z"
         id="path13-8-01"
         sodipodi:nodetypes="sssss" /><path
         style="fill:#ffff00;fill-opacity:1;stroke:none;stroke-width:0.084;stroke-linecap:round;stroke-dasharray:none;stroke-opacity:1;paint-order:markers fill stroke"
         d="m 74.373935,120.59337 c -0.259294,0.015 -0.370848,0.44521 -0.336703,0.70268 0.03639,0.27441 0.27005,0.68296 0.541652,0.62949 0.227105,-0.0447 0.24738,-0.42897 0.219586,-0.65876 -0.03186,-0.26343 -0.159625,-0.68875 -0.424535,-0.67341 z"
         id="path13-1-6-6"
         sodipodi:nodetypes="sssss" /><path
         style="fill:#0000ff;fill-opacity:1;stroke:none;stroke-width:0.084;stroke-linecap:round;stroke-dasharray:none;stroke-opacity:1;paint-order:markers fill stroke"
         d="m 75.842794,121.63276 c -0.259294,0.015 -0.370848,0.44521 -0.336703,0.70268 0.03639,0.27441 0.27005,0.68296 0.541652,0.62949 0.227105,-0.0447 0.24738,-0.42897 0.219586,-0.65876 -0.03186,-0.26343 -0.159625,-0.68875 -0.424535,-0.67341 z"
         id="path13-5-5-40"
         sodipodi:nodetypes="sssss" /><path
         style="fill:#ff0000;fill-opacity:1;stroke:none;stroke-width:0.084;stroke-linecap:round;stroke-dasharray:none;stroke-opacity:1;paint-order:markers fill stroke"
         d="m 77.024707,119.4401 c -0.259294,0.015 -0.370848,0.44521 -0.336703,0.70268 0.03639,0.27441 0.27005,0.68296 0.541652,0.62949 0.227105,-0.0447 0.24738,-0.42897 0.219586,-0.65876 -0.03186,-0.26343 -0.159625,-0.68875 -0.424535,-0.67341 z"
         id="path13-6-0-61"
         sodipodi:nodetypes="sssss" /><path
         style="fill:#00ff00;fill-opacity:1;stroke:none;stroke-width:0.084;stroke-linecap:round;stroke-dasharray:none;stroke-opacity:1;paint-order:markers fill stroke"
         d="m 78.402506,120.29573 c -0.259294,0.015 -0.370848,0.44521 -0.336703,0.70268 0.03639,0.27441 0.27005,0.68296 0.541652,0.62949 0.227105,-0.0447 0.24738,-0.42897 0.219586,-0.65876 -0.03186,-0.26343 -0.159625,-0.68875 -0.424535,-0.67341 z"
         id="path13-4"
         sodipodi:nodetypes="sssss" /><path
         style="fill:#ffff00;fill-opacity:1;stroke:none;stroke-width:0.084;stroke-linecap:round;stroke-dasharray:none;stroke-opacity:1;paint-order:markers fill stroke"
         d="m 79.193919,118.36345 c -0.259294,0.015 -0.370848,0.44521 -0.336703,0.70268 0.03639,0.27441 0.27005,0.68296 0.541652,0.62949 0.227105,-0.0447 0.24738,-0.42897 0.219586,-0.65876 -0.03186,-0.26343 -0.159625,-0.68875 -0.424535,-0.67341 z"
         id="path13-1-1"
         sodipodi:nodetypes="sssss" /><path
         style="fill:#00ff00;fill-opacity:1;stroke:none;stroke-width:0.084;stroke-linecap:round;stroke-dasharray:none;stroke-opacity:1;paint-order:markers fill stroke"
         d="m 57.406152,118.86761 c -0.244226,0.0884 -0.228345,0.53254 -0.122132,0.76956 0.1132,0.25261 0.453752,0.57747 0.698793,0.4487 0.204899,-0.10766 0.11465,-0.48174 0.02242,-0.69403 -0.105724,-0.24338 -0.349572,-0.61454 -0.599084,-0.52423 z"
         id="path13-3"
         sodipodi:nodetypes="sssss" /><path
         style="fill:#ffff00;fill-opacity:1;stroke:none;stroke-width:0.084;stroke-linecap:round;stroke-dasharray:none;stroke-opacity:1;paint-order:markers fill stroke"
         d="m 58.520558,117.37495 c -0.244226,0.0884 -0.228346,0.53254 -0.122133,0.76955 0.113201,0.25261 0.453752,0.57747 0.698794,0.4487 0.204898,-0.10766 0.114649,-0.48173 0.02242,-0.69403 -0.105725,-0.24338 -0.349573,-0.61454 -0.599084,-0.52422 z"
         id="path13-1-71"
         sodipodi:nodetypes="sssss" /><path
         style="fill:#0000ff;fill-opacity:1;stroke:none;stroke-width:0.084;stroke-linecap:round;stroke-dasharray:none;stroke-opacity:1;paint-order:markers fill stroke"
         d="m 60.460198,118.12618 c -0.244226,0.0884 -0.228346,0.53254 -0.122132,0.76956 0.1132,0.2526 0.453751,0.57747 0.698793,0.4487 0.204899,-0.10766 0.114649,-0.48174 0.02242,-0.69403 -0.105725,-0.24338 -0.349573,-0.61454 -0.599084,-0.52423 z"
         id="path13-5-07"
         sodipodi:nodetypes="sssss" /><path
         style="fill:#ff0000;fill-opacity:1;stroke:none;stroke-width:0.084;stroke-linecap:round;stroke-dasharray:none;stroke-opacity:1;paint-order:markers fill stroke"
         d="m 61.626644,116.43004 c -0.244226,0.0884 -0.228345,0.53254 -0.122132,0.76955 0.1132,0.25261 0.453751,0.57747 0.698793,0.4487 0.204899,-0.10766 0.11465,-0.48173 0.02242,-0.69403 -0.105724,-0.24338 -0.349572,-0.61454 -0.599084,-0.52422 z"
         id="path13-6-34"
         sodipodi:nodetypes="sssss" /><path
         style="fill:#00ff00;fill-opacity:1;stroke:none;stroke-width:0.084;stroke-linecap:round;stroke-dasharray:none;stroke-opacity:1;paint-order:markers fill stroke"
         d="m 63.637643,117.32673 c -0.244226,0.0884 -0.228346,0.53254 -0.122133,0.76955 0.113201,0.25261 0.453752,0.57747 0.698793,0.44871 0.204899,-0.10767 0.11465,-0.48174 0.02242,-0.69404 -0.105725,-0.24337 -0.349573,-0.61453 -0.599084,-0.52422 z"
         id="path13-8-9"
         sodipodi:nodetypes="sssss" /><path
         style="fill:#ffff00;fill-opacity:1;stroke:none;stroke-width:0.084;stroke-linecap:round;stroke-dasharray:none;stroke-opacity:1;paint-order:markers fill stroke"
         d="m 64.693491,115.57056 c -0.244226,0.0884 -0.228346,0.53254 -0.122132,0.76955 0.1132,0.25261 0.453751,0.57747 0.698793,0.4487 0.204899,-0.10766 0.114649,-0.48173 0.02242,-0.69403 -0.105725,-0.24338 -0.349573,-0.61454 -0.599084,-0.52422 z"
         id="path13-1-6-65"
         sodipodi:nodetypes="sssss" /><path
         style="fill:#0000ff;fill-opacity:1;stroke:none;stroke-width:0.084;stroke-linecap:round;stroke-dasharray:none;stroke-opacity:1;paint-order:markers fill stroke"
         d="m 66.633131,116.49746 c -0.244226,0.0884 -0.228346,0.53254 -0.122132,0.76955 0.1132,0.25261 0.453751,0.57747 0.698793,0.44871 0.204899,-0.10767 0.114649,-0.48174 0.02242,-0.69404 -0.105724,-0.24337 -0.349572,-0.61453 -0.599084,-0.52422 z"
         id="path13-5-5-1"
         sodipodi:nodetypes="sssss" /><path
         style="fill:#ff0000;fill-opacity:1;stroke:none;stroke-width:0.084;stroke-linecap:round;stroke-dasharray:none;stroke-opacity:1;paint-order:markers fill stroke"
         d="m 67.59463,114.65492 c -0.244226,0.0884 -0.228346,0.53254 -0.122133,0.76956 0.113201,0.2526 0.453752,0.57747 0.698793,0.4487 0.204899,-0.10766 0.11465,-0.48174 0.02242,-0.69403 -0.105725,-0.24338 -0.349573,-0.61454 -0.599084,-0.52423 z"
         id="path13-6-0-09"
         sodipodi:nodetypes="sssss" /><path
         style="fill:#00ff00;fill-opacity:1;stroke:none;stroke-width:0.084;stroke-linecap:round;stroke-dasharray:none;stroke-opacity:1;paint-order:markers fill stroke"
         d="m 69.493133,115.38636 c -0.236071,0.1083 -0.183478,0.54962 -0.05801,0.77702 0.133722,0.24237 0.499996,0.53793 0.733538,0.38932 0.195283,-0.12426 0.07438,-0.48957 -0.03511,-0.69351 -0.125508,-0.23379 -0.399244,-0.58349 -0.640423,-0.47283 z"
         id="path13-34"
         sodipodi:nodetypes="sssss" /><path
         style="fill:#ffff00;fill-opacity:1;stroke:none;stroke-width:0.084;stroke-linecap:round;stroke-dasharray:none;stroke-opacity:1;paint-order:markers fill stroke"
         d="m 70.293825,113.62024 c -0.236072,0.1083 -0.183479,0.54961 -0.05801,0.77702 0.133722,0.24237 0.499997,0.53793 0.733538,0.38932 0.195283,-0.12426 0.07438,-0.48958 -0.03511,-0.69351 -0.125508,-0.23379 -0.399244,-0.58349 -0.640422,-0.47283 z"
         id="path13-1-84"
         sodipodi:nodetypes="sssss" /><path
         style="fill:#0000ff;fill-opacity:1;stroke:none;stroke-width:0.084;stroke-linecap:round;stroke-dasharray:none;stroke-opacity:1;paint-order:markers fill stroke"
         d="m 72.268292,114.27044 c -0.236072,0.1083 -0.183479,0.54962 -0.05801,0.77702 0.133722,0.24237 0.499997,0.53793 0.733538,0.38932 0.195283,-0.12425 0.07438,-0.48957 -0.03511,-0.69351 -0.125508,-0.23379 -0.399244,-0.58349 -0.640422,-0.47283 z"
         id="path13-5-99"
         sodipodi:nodetypes="sssss" /><path
         style="fill:#ff0000;fill-opacity:1;stroke:none;stroke-width:0.084;stroke-linecap:round;stroke-dasharray:none;stroke-opacity:1;paint-order:markers fill stroke"
         d="m 73.176774,112.33972 c -0.236071,0.1083 -0.183479,0.54961 -0.05801,0.77702 0.133723,0.24237 0.499997,0.53793 0.733538,0.38932 0.195284,-0.12426 0.07438,-0.48958 -0.03511,-0.69351 -0.125509,-0.23379 -0.399244,-0.58349 -0.640423,-0.47283 z"
         id="path13-6-25"
         sodipodi:nodetypes="sssss" /><path
         style="fill:#00ff00;fill-opacity:1;stroke:none;stroke-width:0.084;stroke-linecap:round;stroke-dasharray:none;stroke-opacity:1;paint-order:markers fill stroke"
         d="m 75.131351,113.11822 c -0.236071,0.1083 -0.183478,0.54961 -0.05801,0.77702 0.133722,0.24237 0.499996,0.53793 0.733538,0.38932 0.195283,-0.12426 0.07438,-0.48957 -0.03511,-0.69351 -0.125508,-0.23379 -0.399244,-0.58349 -0.640423,-0.47283 z"
         id="path13-8-5"
         sodipodi:nodetypes="sssss" /><path
         style="fill:#ffff00;fill-opacity:1;stroke:none;stroke-width:0.084;stroke-linecap:round;stroke-dasharray:none;stroke-opacity:1;paint-order:markers fill stroke"
         d="m 75.704311,111.18648 c -0.236072,0.1083 -0.183479,0.54961 -0.05801,0.77702 0.133722,0.24237 0.499997,0.53792 0.733538,0.38931 0.195283,-0.12425 0.07438,-0.48957 -0.03511,-0.6935 -0.125509,-0.23379 -0.399244,-0.58349 -0.640423,-0.47283 z"
         id="path13-1-6-3"
         sodipodi:nodetypes="sssss" /><path
         style="fill:#00ff00;fill-opacity:1;stroke:none;stroke-width:0.084;stroke-linecap:round;stroke-dasharray:none;stroke-opacity:1;paint-order:markers fill stroke"
         d="m 58.946629,111.86844 c -0.239564,0.10033 -0.201777,0.54316 -0.08399,0.77464 0.125532,0.24671 0.481706,0.55437 0.720092,0.41366 0.199334,-0.11765 0.09073,-0.48681 -0.01187,-0.69429 -0.11761,-0.23787 -0.379484,-0.59653 -0.624232,-0.49401 z"
         id="path13-80"
         sodipodi:nodetypes="sssss" /><path
         style="fill:#ffff00;fill-opacity:1;stroke:none;stroke-width:0.084;stroke-linecap:round;stroke-dasharray:none;stroke-opacity:1;paint-order:markers fill stroke"
         d="m 59.985988,110.32258 c -0.239565,0.10033 -0.201778,0.54316 -0.08399,0.77464 0.125532,0.24671 0.481706,0.55437 0.720092,0.41366 0.199334,-0.11765 0.09073,-0.48681 -0.01187,-0.69429 -0.11761,-0.23787 -0.379484,-0.59654 -0.624232,-0.49401 z"
         id="path13-1-88"
         sodipodi:nodetypes="sssss" /><path
         style="fill:#0000ff;fill-opacity:1;stroke:none;stroke-width:0.084;stroke-linecap:round;stroke-dasharray:none;stroke-opacity:1;paint-order:markers fill stroke"
         d="m 61.960349,110.97714 c -0.239565,0.10034 -0.201778,0.54316 -0.08399,0.77465 0.125533,0.24671 0.481706,0.55436 0.720092,0.41365 0.199334,-0.11764 0.09073,-0.4868 -0.01187,-0.69429 -0.117611,-0.23786 -0.379484,-0.59653 -0.624232,-0.49401 z"
         id="path13-5-06"
         sodipodi:nodetypes="sssss" /><path
         style="fill:#ff0000;fill-opacity:1;stroke:none;stroke-width:0.084;stroke-linecap:round;stroke-dasharray:none;stroke-opacity:1;paint-order:markers fill stroke"
         d="m 63.193634,109.33522 c -0.239565,0.10033 -0.201777,0.54316 -0.08399,0.77464 0.125533,0.24671 0.481707,0.55437 0.720092,0.41366 0.199335,-0.11765 0.09073,-0.48681 -0.01187,-0.69429 -0.117611,-0.23786 -0.379484,-0.59653 -0.624232,-0.49401 z"
         id="path13-6-8"
         sodipodi:nodetypes="sssss" /><path
         style="fill:#00ff00;fill-opacity:1;stroke:none;stroke-width:0.084;stroke-linecap:round;stroke-dasharray:none;stroke-opacity:1;paint-order:markers fill stroke"
         d="m 65.062391,110.20188 c -0.239565,0.10034 -0.201777,0.54316 -0.08399,0.77465 0.125533,0.24671 0.481706,0.55436 0.720092,0.41365 0.199334,-0.11764 0.09073,-0.4868 -0.01187,-0.69429 -0.117611,-0.23786 -0.379484,-0.59653 -0.624233,-0.49401 z"
         id="path13-8-1"
         sodipodi:nodetypes="sssss" /><path
         style="fill:#ffff00;fill-opacity:1;stroke:none;stroke-width:0.084;stroke-linecap:round;stroke-dasharray:none;stroke-opacity:1;paint-order:markers fill stroke"
         d="m 66.043192,108.42179 c -0.239565,0.10033 -0.201777,0.54316 -0.08399,0.77464 0.125533,0.24672 0.481706,0.55437 0.720092,0.41366 0.199334,-0.11765 0.09073,-0.48681 -0.01187,-0.69429 -0.117611,-0.23786 -0.379484,-0.59653 -0.624233,-0.49401 z"
         id="path13-1-6-9"
         sodipodi:nodetypes="sssss" /><path
         style="fill:#0000ff;fill-opacity:1;stroke:none;stroke-width:0.084;stroke-linecap:round;stroke-dasharray:none;stroke-opacity:1;paint-order:markers fill stroke"
         d="m 68.134667,109.31058 c -0.239564,0.10034 -0.201777,0.54317 -0.08399,0.77465 0.125532,0.24671 0.481706,0.55436 0.720092,0.41366 0.199334,-0.11765 0.09073,-0.48681 -0.01187,-0.6943 -0.11761,-0.23786 -0.379484,-0.59653 -0.624233,-0.49401 z"
         id="path13-5-5-89"
         sodipodi:nodetypes="sssss" /><path
         style="fill:#ff0000;fill-opacity:1;stroke:none;stroke-width:0.084;stroke-linecap:round;stroke-dasharray:none;stroke-opacity:1;paint-order:markers fill stroke"
         d="m 69.250839,107.43443 c -0.239565,0.10034 -0.201778,0.54317 -0.08399,0.77465 0.125533,0.24671 0.481706,0.55436 0.720092,0.41365 0.199334,-0.11764 0.09073,-0.4868 -0.01187,-0.69429 -0.117611,-0.23786 -0.379485,-0.59653 -0.624233,-0.49401 z"
         id="path13-6-0-7"
         sodipodi:nodetypes="sssss" /><path
         style="fill:#00ff00;fill-opacity:1;stroke:none;stroke-width:0.084;stroke-linecap:round;stroke-dasharray:none;stroke-opacity:1;paint-order:markers fill stroke"
         d="m 71.166609,108.26698 c -0.259294,0.015 -0.370848,0.44521 -0.336703,0.70268 0.03639,0.27441 0.27005,0.68296 0.541652,0.62949 0.227105,-0.0447 0.24738,-0.42897 0.219586,-0.65876 -0.03186,-0.26343 -0.159625,-0.68875 -0.424535,-0.67341 z"
         id="path13-28"
         sodipodi:nodetypes="sssss" /><path
         style="fill:#ffff00;fill-opacity:1;stroke:none;stroke-width:0.084;stroke-linecap:round;stroke-dasharray:none;stroke-opacity:1;paint-order:markers fill stroke"
         d="m 71.782351,106.33469 c -0.259294,0.015 -0.370848,0.44521 -0.336703,0.70268 0.03639,0.27441 0.27005,0.68296 0.541652,0.62949 0.227105,-0.0447 0.24738,-0.42897 0.219586,-0.65876 -0.03186,-0.26343 -0.159625,-0.68875 -0.424535,-0.67341 z"
         id="path13-1-90"
         sodipodi:nodetypes="sssss" /><path
         style="fill:#0000ff;fill-opacity:1;stroke:none;stroke-width:0.084;stroke-linecap:round;stroke-dasharray:none;stroke-opacity:1;paint-order:markers fill stroke"
         d="m 73.42688,107.13985 c -0.259294,0.015 -0.370848,0.44521 -0.336703,0.70268 0.03639,0.27441 0.27005,0.68296 0.541652,0.62949 0.227105,-0.0447 0.24738,-0.42897 0.219586,-0.65876 -0.03186,-0.26343 -0.159625,-0.68875 -0.424535,-0.67341 z"
         id="path13-5-78"
         sodipodi:nodetypes="sssss" /><path
         style="fill:#00ff00;fill-opacity:1;stroke:none;stroke-width:0.084;stroke-linecap:round;stroke-dasharray:none;stroke-opacity:1;paint-order:markers fill stroke"
         d="m 61.849023,103.68711 c -0.247452,0.0789 -0.248707,0.52334 -0.15171,0.76427 0.103377,0.25679 0.431151,0.59454 0.680975,0.47531 0.208897,-0.0997 0.133136,-0.47696 0.04916,-0.69265 -0.09626,-0.24727 -0.32562,-0.62756 -0.578428,-0.54693 z"
         id="path13-65"
         sodipodi:nodetypes="sssss" /><path
         style="fill:#ffff00;fill-opacity:1;stroke:none;stroke-width:0.084;stroke-linecap:round;stroke-dasharray:none;stroke-opacity:1;paint-order:markers fill stroke"
         d="m 63.020146,102.23852 c -0.247452,0.0789 -0.248707,0.52334 -0.15171,0.76427 0.103378,0.25678 0.431151,0.59453 0.680975,0.47531 0.208897,-0.0997 0.133136,-0.47696 0.04916,-0.69265 -0.09626,-0.24728 -0.325621,-0.62756 -0.578429,-0.54693 z"
         id="path13-1-39"
         sodipodi:nodetypes="sssss" /><path
         style="fill:#0000ff;fill-opacity:1;stroke:none;stroke-width:0.084;stroke-linecap:round;stroke-dasharray:none;stroke-opacity:1;paint-order:markers fill stroke"
         d="m 64.929382,103.06397 c -0.247452,0.0789 -0.248707,0.52334 -0.15171,0.76427 0.103378,0.25679 0.431151,0.59454 0.680975,0.47531 0.208897,-0.0997 0.133136,-0.47695 0.04916,-0.69265 -0.09626,-0.24727 -0.325621,-0.62756 -0.578429,-0.54693 z"
         id="path13-5-2"
         sodipodi:nodetypes="sssss" /><path
         style="fill:#ff0000;fill-opacity:1;stroke:none;stroke-width:0.084;stroke-linecap:round;stroke-dasharray:none;stroke-opacity:1;paint-order:markers fill stroke"
         d="m 66.302121,101.53672 c -0.247452,0.0789 -0.248707,0.52334 -0.15171,0.76427 0.103377,0.25679 0.431151,0.59454 0.680975,0.47531 0.208897,-0.0997 0.133136,-0.47695 0.04916,-0.69265 -0.09626,-0.24727 -0.32562,-0.62756 -0.578428,-0.54693 z"
         id="path13-6-4"
         sodipodi:nodetypes="sssss" /><path
         style="fill:#00ff00;fill-opacity:1;stroke:none;stroke-width:0.084;stroke-linecap:round;stroke-dasharray:none;stroke-opacity:1;paint-order:markers fill stroke"
         d="m 68.049774,102.32571 c -0.247452,0.0789 -0.248707,0.52334 -0.15171,0.76427 0.103377,0.25679 0.431151,0.59454 0.680975,0.47531 0.208897,-0.0997 0.133136,-0.47695 0.04916,-0.69265 -0.09626,-0.24727 -0.32562,-0.62756 -0.578428,-0.54693 z"
         id="path13-8-6"
         sodipodi:nodetypes="sssss" /><path
         style="fill:#ffff00;fill-opacity:1;stroke:none;stroke-width:0.084;stroke-linecap:round;stroke-dasharray:none;stroke-opacity:1;paint-order:markers fill stroke"
         d="m 68.620511,100.21463 c -0.247452,0.0789 -0.248707,0.52334 -0.15171,0.76427 0.103378,0.25679 0.431151,0.59453 0.680975,0.47531 0.208897,-0.0997 0.133136,-0.47696 0.04916,-0.69265 -0.09626,-0.24728 -0.325621,-0.62756 -0.578429,-0.54693 z"
         id="path13-1-6-18"
         sodipodi:nodetypes="sssss" /><ellipse
         style="fill:#ff0000;fill-opacity:1;stroke:#bc0000;stroke-width:0.0839999;stroke-linecap:round;stroke-dasharray:none;stroke-opacity:1;paint-order:markers fill stroke"
         id="path14-9"
         cx="54.326164"
         cy="139.80975"
         rx="1.0540221"
         ry="1.0247437" /><ellipse
         style="fill:#ff0000;fill-opacity:1;stroke:#bc0000;stroke-width:0.0839999;stroke-linecap:round;stroke-dasharray:none;stroke-opacity:1;paint-order:markers fill stroke"
         id="path14-0"
         cx="66.313324"
         cy="128.87885"
         rx="1.0540221"
         ry="1.0247437" /><ellipse
         style="fill:#ff0000;fill-opacity:1;stroke:#bc0000;stroke-width:0.0839999;stroke-linecap:round;stroke-dasharray:none;stroke-opacity:1;paint-order:markers fill stroke"
         id="path14-8"
         cx="61.734673"
         cy="147.59761"
         rx="1.0540221"
         ry="1.0247437" /><ellipse
         style="fill:#ff0000;fill-opacity:1;stroke:#bc0000;stroke-width:0.0839999;stroke-linecap:round;stroke-dasharray:none;stroke-opacity:1;paint-order:markers fill stroke"
         id="path14-3"
         cx="71.604729"
         cy="146.89691"
         rx="1.0540221"
         ry="1.0247437" /><ellipse
         style="fill:#ff0000;fill-opacity:1;stroke:#bc0000;stroke-width:0.0839999;stroke-linecap:round;stroke-dasharray:none;stroke-opacity:1;paint-order:markers fill stroke"
         id="path14-5"
         cx="63.967796"
         cy="139.30139"
         rx="1.0540221"
         ry="1.0247437" /><ellipse
         style="fill:#ff0000;fill-opacity:1;stroke:#bc0000;stroke-width:0.0839999;stroke-linecap:round;stroke-dasharray:none;stroke-opacity:1;paint-order:markers fill stroke"
         id="path14-7"
         cx="80.893341"
         cy="145.95155"
         rx="1.0540221"
         ry="1.0247437" /><ellipse
         style="fill:#ff0000;fill-opacity:1;stroke:#bc0000;stroke-width:0.0839999;stroke-linecap:round;stroke-dasharray:none;stroke-opacity:1;paint-order:markers fill stroke"
         id="path14-4"
         cx="73.906914"
         cy="136.53851"
         rx="1.0540221"
         ry="1.0247437" /><ellipse
         style="fill:#ff0000;fill-opacity:1;stroke:#bc0000;stroke-width:0.0839999;stroke-linecap:round;stroke-dasharray:none;stroke-opacity:1;paint-order:markers fill stroke"
         id="path14-98"
         cx="87.637978"
         cy="143.60066"
         rx="1.0540221"
         ry="1.0247437" /><ellipse
         style="fill:#ff0000;fill-opacity:1;stroke:#bc0000;stroke-width:0.0839999;stroke-linecap:round;stroke-dasharray:none;stroke-opacity:1;paint-order:markers fill stroke"
         id="path14-49"
         cx="79.538422"
         cy="132.01457"
         rx="1.0540221"
         ry="1.0247437" /><ellipse
         style="fill:#ff0000;fill-opacity:1;stroke:#bc0000;stroke-width:0.0839999;stroke-linecap:round;stroke-dasharray:none;stroke-opacity:1;paint-order:markers fill stroke"
         id="path14-08"
         cx="73.195595"
         cy="127.39526"
         rx="1.0540221"
         ry="1.0247437" /><ellipse
         style="fill:#ff0000;fill-opacity:1;stroke:#bc0000;stroke-width:0.0839999;stroke-linecap:round;stroke-dasharray:none;stroke-opacity:1;paint-order:markers fill stroke"
         id="path14-76"
         cx="57.997688"
         cy="129.94534"
         rx="1.0540221"
         ry="1.0247437" /><ellipse
         style="fill:#ff0000;fill-opacity:1;stroke:#bc0000;stroke-width:0.0839999;stroke-linecap:round;stroke-dasharray:none;stroke-opacity:1;paint-order:markers fill stroke"
         id="path14-1"
         cx="63.747627"
         cy="121.2301"
         rx="1.0540221"
         ry="1.0247437" /><ellipse
         style="fill:#ff0000;fill-opacity:1;stroke:#bc0000;stroke-width:0.0839999;stroke-linecap:round;stroke-dasharray:none;stroke-opacity:1;paint-order:markers fill stroke"
         id="path14-55"
         cx="71.118851"
         cy="111.53793"
         rx="1.0540221"
         ry="1.0247437" /><ellipse
         style="fill:#ff0000;fill-opacity:1;stroke:#bc0000;stroke-width:0.0839999;stroke-linecap:round;stroke-dasharray:none;stroke-opacity:1;paint-order:markers fill stroke"
         id="path14-2"
         cx="64.29142"
         cy="106.58683"
         rx="1.0540221"
         ry="1.0247437" /><ellipse
         style="fill:#ff0000;fill-opacity:1;stroke:#bc0000;stroke-width:0.0839999;stroke-linecap:round;stroke-dasharray:none;stroke-opacity:1;paint-order:markers fill stroke"
         id="path14-96"
         cx="73.857094"
         cy="118.11401"
         rx="1.0540221"
         ry="1.0247437" /><path
         sodipodi:type="star"
         style="fill:#ffff00;fill-opacity:1;stroke:#d4c400;stroke-width:0.0839999;stroke-linecap:round;stroke-dasharray:none;stroke-opacity:1;paint-order:markers fill stroke"
         id="path14"
         inkscape:flatsided="false"
         sodipodi:sides="5"
         sodipodi:cx="63.433838"
         sodipodi:cy="86.62114"
         sodipodi:r1="2.484354"
         sodipodi:r2="1.2421771"
         sodipodi:arg1="0.92729522"
         sodipodi:arg2="1.5556137"
         inkscape:rounded="0"
         inkscape:randomized="0"
         d="m 64.92445,88.608623 -1.471753,-0.74545 -1.448443,0.789789 0.254167,-1.630077 -1.198727,-1.133493 1.628838,-0.261994 0.707588,-1.490326 0.75251,1.468156 1.636041,0.212421 -1.163761,1.169364 z"
         inkscape:transform-center-x="0.016056931"
         inkscape:transform-center-y="-0.30182337"
         transform="matrix(1.3773931,0,0,1.3347748,-20.44383,-19.989813)" /></g></g></svg>
