<svg width="466" height="699" viewBox="0 0 466 699" fill="none" xmlns="http://www.w3.org/2000/svg">
    <path d="M233.447 698.016C361.839 698.016 465.92 667.773 465.92 630.467C465.92 593.161 361.839 562.918 233.447 562.918C105.056 562.918 0.974304 593.161 0.974304 630.467C0.974304 667.773 105.056 698.016 233.447 698.016Z" fill="black" fill-opacity="0.29"/>
    <path d="M223.028 652.29C264.464 652.29 298.055 638.868 298.055 622.312C298.055 605.755 264.464 592.334 223.028 592.334C181.591 592.334 148 605.755 148 622.312C148 638.868 181.591 652.29 223.028 652.29Z" fill="#502D16" stroke="#3A261B" stroke-width="1.16409" stroke-linecap="round"/>
    <path d="M223.122 640.02C264.559 640.02 298.149 626.599 298.149 610.042C298.149 593.486 264.559 580.064 223.122 580.064C181.686 580.064 148.095 593.486 148.095 610.042C148.095 626.599 181.686 640.02 223.122 640.02Z" fill="#502D16" stroke="#3A261B" stroke-width="1.16423" stroke-linecap="round"/>
    <path d="M148.042 609.264C148.042 624.938 148.042 624.938 148.042 624.938V609.264Z" fill="#502D16"/>
    <path d="M148.042 609.264C148.042 624.938 148.042 624.938 148.042 624.938" stroke="#3A261B" stroke-width="0.973599" stroke-linecap="round"/>
    <path d="M298.186 609.719C298.186 625.394 298.186 625.394 298.186 625.394V609.719Z" fill="#502D16"/>
    <path d="M298.186 609.719C298.186 625.394 298.186 625.394 298.186 625.394" stroke="#3A261B" stroke-width="0.973599" stroke-linecap="round"/>
    <path d="M240.633 512.993H200.677V610.98H240.633V512.993Z" fill="#502D16" stroke="#3A261B" stroke-width="0.695433" stroke-linecap="round"/>
    <path d="M89.5816 420.349L78.7257 443.721L59.1852 477.11L44.7108 494.639C44.7108 494.639 28.4424 497.525 22.9991 503.82C19.0112 508.432 17.3444 515.673 17.2093 522.184C17.0342 530.63 18.7175 540.222 23.7228 546.391C30.6107 554.879 42.0644 556.626 51.948 558.911C60.23 560.826 77.2783 559.745 77.2783 559.745C77.2783 559.745 76.0057 566.891 78.002 568.927C83.6078 574.643 100.437 568.093 100.437 568.093C100.437 568.093 97.953 575.445 99.7137 578.109C104.474 585.315 122.873 583.118 122.873 583.118C122.873 583.118 139.527 576.243 147.479 578.944C152.399 580.615 154.103 589.105 159.059 590.63C174.51 595.384 206.101 579.779 206.101 579.779C206.101 579.779 203.266 589.905 205.377 593.969C207.152 597.386 211.332 598.992 214.786 598.977C219.318 598.957 227.089 592.3 227.089 592.3C227.089 592.3 228.597 598.301 230.707 599.812C235.016 602.898 240.912 601.668 245.906 600.647C250.803 599.646 256.027 597.891 259.656 593.969C263.593 589.715 266.894 577.275 266.894 577.275C266.894 577.275 266.344 587.828 269.065 591.465C272.055 595.462 277.683 597.893 282.092 596.473C288.191 594.509 294.395 579.779 294.395 579.779C294.395 579.779 303.116 590.511 308.87 590.63C314.495 590.747 317.767 581.479 323.344 580.614C329.551 579.651 335.188 585.983 341.437 586.457C348.246 586.971 355.791 587.051 361.701 583.118C365.422 580.642 369.662 571.432 369.662 571.432C369.662 571.432 394.465 571.995 396.44 561.415C397.195 557.372 388.479 553.068 388.479 553.068C388.479 553.068 405.073 554.273 413.086 552.235C420.262 550.408 427.364 547.135 433.35 542.218C439.192 537.418 444.358 531.097 447.824 523.854C450.002 519.304 452.073 513.976 451.443 508.83C450.928 504.624 448.218 501.026 445.653 497.978C438.616 489.617 428.119 486.192 420.323 478.78C409.397 468.392 390.65 443.722 390.65 443.722L371.11 408.664L345.779 404.491L355.188 414.507C355.188 414.507 356.635 422.854 353.74 422.854C350.845 422.854 323.344 419.516 323.344 419.516L316.107 432.036L297.29 432.87L271.236 415.341L276.302 432.035L266.894 441.217L236.497 427.027L217.68 398.647L216.957 415.341L210.443 422.019L198.864 417.845L188.732 391.969L172.086 412.837L159.059 417.845L143.861 406.159L143.137 396.978L125.768 417.011L113.464 420.349L109.122 408.663L111.293 397.812L89.5816 420.349Z" fill="#245C24" stroke="#1B451B" stroke-width="1.31906" stroke-linecap="round"/>
    <path d="M104.268 360.158C104.268 360.158 87.1712 390.956 77.4417 405.564C69.6756 417.223 60.9633 428.188 52.3276 439.175C45.8626 447.401 34.8041 453.064 32.3505 463.352C31.3236 467.658 32.1419 473.218 35.2044 476.325C38.5322 479.702 44.2393 479.2 48.903 479.274C55.4709 479.379 62.2826 478.435 68.3093 475.736C77.91 471.436 93.4234 456.276 93.4234 456.276C93.4234 456.276 88.274 469.173 91.1403 474.556C92.6583 477.407 96.5565 478.845 99.702 478.684C106.774 478.322 112.753 472.43 117.967 467.48C122.787 462.904 129.382 450.969 129.382 450.969C129.382 450.969 131.002 464.099 135.09 468.66C137.755 471.633 142.018 473.168 145.935 473.377C150.503 473.621 155.076 471.567 159.063 469.249C167.517 464.333 180.752 449.2 180.752 449.2C180.752 449.2 183.972 469.393 190.455 476.325C193.598 479.685 198.49 481.638 203.012 481.633C206.51 481.628 210.67 480.436 212.715 477.505C215.949 472.869 213.857 460.404 213.857 460.404C213.857 460.404 227.647 477.357 236.117 483.991C239.917 486.967 244.385 488.916 248.674 491.068C253.888 493.683 258.888 497.554 264.656 498.144C268.332 498.519 273.09 498.676 275.501 495.785C277.615 493.249 276.59 489.064 276.071 485.76C275.415 481.581 271.505 473.967 271.505 473.967C271.505 473.967 287.399 483.107 296.049 485.76C301.207 487.343 306.671 487.618 312.03 488.119C316.961 488.579 322.705 491.473 326.87 488.709C329.814 486.756 330.866 478.684 330.866 478.684C330.866 478.684 330.875 478.166 331.376 476.847C333.984 469.99 342.812 478.989 348.56 479.864C353.112 480.557 358.201 483.876 362.259 481.633C364.884 480.181 366.254 475.736 366.254 473.377C366.254 471.019 362.143 466.118 358.834 463.943C357.51 463.072 354.268 462.763 354.268 462.763L388.514 464.532C388.514 464.532 409.827 463.358 417.624 456.866C420.936 454.108 423.218 449.466 423.331 445.073C423.459 440.145 420.981 435.013 417.624 431.51C410.733 424.319 398.724 425.07 390.797 419.127C382.076 412.588 375.785 403.098 369.108 394.36C364.105 387.812 359.354 380.999 355.409 373.721C349.708 363.203 351.219 346.772 341.14 340.699C337.673 338.61 333.056 342.847 329.154 341.878C324.33 340.68 316.596 333.623 316.596 333.623L312.601 347.185L298.902 349.544L286.916 350.723L258.948 332.443L261.231 350.723L250.387 348.365L241.254 336.571L209.862 367.235L183.035 375.49L165.912 373.721L154.496 362.517L140.227 371.362L111.117 377.259L105.41 366.645L104.268 360.158Z" fill="#245C24" stroke="#273A1B" stroke-width="1.31906" stroke-linecap="round"/>
    <path d="M122.195 280.798L114.18 298.742L99.7527 324.378L89.066 337.836C89.066 337.836 77.0549 340.052 73.036 344.886C70.0917 348.427 68.8611 353.985 68.7613 358.985C68.6318 365.47 69.8749 372.834 73.5703 377.571C78.6557 384.088 87.1121 385.429 94.4093 387.184C100.524 388.654 113.111 387.824 113.111 387.824C113.111 387.824 112.171 393.311 113.645 394.874C117.784 399.262 130.21 394.233 130.21 394.233C130.21 394.233 128.375 399.878 129.675 401.924C133.19 407.456 146.774 405.769 146.774 405.769C146.774 405.769 159.07 400.491 164.941 402.565C168.574 403.848 169.832 410.366 173.491 411.537C184.898 415.187 208.222 403.205 208.222 403.205C208.222 403.205 206.129 410.98 207.688 414.1C208.999 416.724 212.084 417.957 214.634 417.946C217.981 417.936 223.718 412.819 223.718 412.819C223.718 412.819 224.832 417.426 226.39 418.587C229.571 420.956 233.924 420.011 237.611 419.226C241.226 418.457 245.084 417.11 247.763 414.099C250.67 410.833 253.107 401.281 253.107 401.281C253.107 401.281 252.701 409.384 254.71 412.176C256.917 415.245 261.073 417.112 264.328 416.022C268.831 414.514 273.411 403.204 273.411 403.204C273.411 403.204 279.85 411.444 284.098 411.536C288.251 411.626 290.667 404.509 294.785 403.845C299.367 403.107 303.529 407.968 308.143 408.331C313.17 408.726 318.741 408.787 323.104 405.768C325.851 403.867 328.982 396.795 328.982 396.795C328.982 396.795 347.294 397.228 348.752 389.105C349.31 386 342.875 382.696 342.875 382.696C342.875 382.696 355.126 383.62 361.042 382.055C366.34 380.653 371.584 378.14 376.003 374.365C380.317 370.68 384.131 365.826 386.69 360.265C388.298 356.772 389.827 352.681 389.362 348.73C388.982 345.501 386.981 342.738 385.087 340.398C379.891 333.978 372.141 331.349 366.385 325.658C358.319 317.682 344.478 298.741 344.478 298.741L330.051 271.824L311.349 268.62L318.295 276.31C318.295 276.31 319.364 282.719 317.227 282.719C315.089 282.719 294.785 280.156 294.785 280.156L289.441 289.769L275.549 290.409L256.313 276.951L260.053 289.768L253.107 296.818L230.665 285.923L216.772 264.133L216.238 276.951L211.429 282.077L202.879 278.873L195.399 259.006L183.109 275.028L173.491 278.873L162.27 269.901L161.736 262.851L148.912 278.232L139.828 280.796L136.622 271.823L138.225 263.492L122.195 280.798Z" fill="#245C24" stroke="#273A1B" stroke-width="1.31906" stroke-linecap="round"/>
    <path d="M144.956 219.881C144.956 219.881 133.738 242.614 127.355 253.396C122.26 262.003 116.543 270.096 110.878 278.206C106.636 284.278 99.3803 288.458 97.7705 296.052C97.0968 299.23 97.6337 303.334 99.6429 305.628C101.826 308.12 105.571 307.749 108.631 307.804C112.94 307.885 117.409 307.184 121.363 305.193C127.662 302.018 137.841 290.829 137.841 290.829C137.841 290.829 134.462 300.348 136.343 304.322C137.338 306.426 139.896 307.488 141.96 307.369C146.6 307.101 150.523 302.752 153.943 299.099C157.106 295.721 161.433 286.911 161.433 286.911C161.433 286.911 162.496 296.603 165.178 299.969C166.927 302.164 169.723 303.297 172.293 303.451C175.29 303.632 178.291 302.115 180.907 300.405C186.453 296.776 195.137 285.606 195.137 285.606C195.137 285.606 197.25 300.511 201.503 305.628C203.565 308.108 206.775 309.549 209.742 309.545C212.037 309.542 214.766 308.663 216.108 306.498C218.23 303.077 216.857 293.876 216.857 293.876C216.857 293.876 225.905 306.389 231.462 311.286C233.955 313.483 236.887 314.921 239.701 316.509C243.122 318.44 246.402 321.297 250.187 321.733C252.599 322.009 255.72 322.126 257.302 319.992C258.689 318.119 258.017 315.031 257.676 312.592C257.245 309.507 254.68 303.887 254.68 303.887C254.68 303.887 265.108 310.633 270.783 312.592C274.168 313.76 277.753 313.963 281.269 314.333C284.504 314.672 288.273 316.808 291.006 314.769C292.937 313.328 293.627 307.369 293.627 307.369C293.627 307.369 293.633 306.986 293.962 306.013C295.673 300.951 301.465 307.594 305.236 308.24C308.223 308.753 311.562 311.202 314.224 309.546C315.946 308.474 316.845 305.193 316.845 303.452C316.845 301.711 314.148 298.094 311.977 296.488C311.108 295.845 308.981 295.618 308.981 295.618L331.45 296.923C331.45 296.923 345.434 296.057 350.549 291.265C352.722 289.229 354.219 285.803 354.294 282.56C354.378 278.922 352.751 275.135 350.549 272.549C346.028 267.241 338.149 267.795 332.948 263.408C327.226 258.582 323.098 251.577 318.718 245.127C315.435 240.294 312.318 235.265 309.73 229.893C305.989 222.13 306.981 210.001 300.368 205.518C298.093 203.977 295.064 207.104 292.503 206.388C289.338 205.503 284.265 200.295 284.265 200.295L281.643 210.306L272.656 212.047L264.791 212.917L246.442 199.424L247.94 212.917L240.824 211.176L234.833 202.47L214.236 225.104L196.635 231.198L185.4 229.892L177.911 221.622L168.548 228.151L149.45 232.504L145.705 224.669L144.956 219.881Z" fill="#245C24" stroke="#273A1B" stroke-width="1.31906" stroke-linecap="round"/>
    <path d="M164.669 128.979C159.122 136.185 156.478 145.507 150.755 152.565C144.277 160.551 131.558 163.476 128.074 173.254C126.562 177.501 126.13 184.454 129.936 186.693C133.806 188.97 142.277 181.401 142.277 181.401C142.277 181.401 136.124 197.22 131.623 204.297C125.209 214.384 114.903 221.449 108.664 231.652C103.887 239.464 93.5226 248.994 97.9062 257.048C100.819 262.401 109.925 261.403 115.578 259.507C124.809 256.41 136.646 238.745 136.646 238.745C136.646 238.745 130.939 254.009 135.844 257.908C141.51 262.412 149.593 253.813 156.319 251.31C163.568 248.612 177.705 242.248 177.705 242.248C177.705 242.248 175.038 249.468 177.321 251.413C181.856 255.275 188.593 246.944 194.466 247.17C197.531 247.287 200.267 250.878 203.232 250.066C209.692 248.296 214.926 241.44 216.797 234.812C217.492 232.351 215.498 227.241 215.498 227.241C215.498 227.241 218.991 236.794 223.11 238.433C225.972 239.572 230.6 239.103 232.085 236.329C233.488 233.709 229.208 227.854 229.208 227.854C229.208 227.854 234.788 245.428 242.151 246.795C244.799 247.288 247.992 244.732 248.811 242.084C250.942 235.2 241.583 221.729 241.583 221.729C241.583 221.729 262.994 251.847 276.091 246.642C282.986 243.901 281.064 224.326 281.064 224.326C281.064 224.326 297.496 243.054 308.349 248.082C318.218 252.655 332.692 260.624 340.467 252.855C343.011 250.313 340.537 245.381 339.307 241.952C334.165 227.616 321.747 217.273 314.228 204.105C306.089 189.849 301.083 173.811 292.654 159.736C288.63 153.016 284.089 146.568 278.905 140.758C273.977 135.236 262.562 125.838 262.562 125.838L248.713 128.559L229.11 114.328L221.752 135.702L207.057 120.021L188.897 129.226L177.323 116.189C177.323 116.189 168.342 124.208 164.669 128.979Z" fill="#245C24" stroke="#273A1B" stroke-width="1.31906" stroke-linecap="round"/>
    <path d="M214.237 30.286C201.814 51.7053 200.121 55.1547 189.63 74.9919C182.834 87.8416 175.049 100.13 167.455 112.51C158.152 127.676 129.635 142.288 138.811 157.533C142.039 162.895 151.912 158.767 157.291 155.657C163.607 152.005 170.227 137.836 170.227 137.836C170.227 137.836 164.556 152.597 169.303 156.595C175.396 161.728 186.361 156.165 192.402 150.967C199.035 145.26 202.566 126.58 202.566 126.58C202.566 126.58 201.029 157.28 211.805 164.098C215.548 166.466 222.278 164.998 224.741 161.285C227.71 156.807 217.91 148.826 221.969 145.339C229.703 138.696 240.512 154.857 250.612 155.657C255.611 156.052 263.166 157.402 265.396 152.843C266.927 149.712 260.776 143.463 260.776 143.463C260.776 143.463 282.094 165.6 293.115 176.292C300.05 183.019 304.863 197.311 314.367 195.989C317.245 195.59 319.176 191.429 318.987 188.485C318.545 181.615 306.051 172.54 306.051 172.54C306.051 172.54 281.629 142.007 270.94 125.642C260.342 109.417 249.008 93.2283 242.297 74.9919C236.145 58.2771 231.74 50.8288 224.464 31.6392C222.522 26.5167 216.004 27.2402 214.237 30.286Z" fill="#245C24" stroke="#273A1B" stroke-width="1.32085" stroke-linecap="round"/>
    <path d="M17.2411 516.12C17.2411 516.12 72.1018 520.787 99.5753 520.29C125.223 519.826 150.751 516.418 176.259 513.618C216.183 509.236 250.392 513.289 289.446 503.67C316.101 497.105 347.602 489.506 373.215 479.444C389.234 473.151 420.84 449.405 420.84 449.405" stroke="black" stroke-width="2.20724" stroke-linecap="round"/>
    <path d="M47.1074 442.734C47.1074 442.734 87.6436 438.946 107.647 435.228C138.156 429.558 168.105 420.978 198.053 412.712C227.584 404.562 257.592 397.581 286.038 386.026C308.435 376.928 329.799 365.148 350.614 352.669C359.005 347.638 374.83 335.99 374.83 335.99L376.444 332.654" stroke="black" stroke-width="2.20724" stroke-linecap="round"/>
    <path d="M88.2744 340.159C88.2744 340.159 145.201 338.273 173.03 332.654C192.659 328.691 230.341 314.307 230.341 314.307C230.341 314.307 280.637 302.906 304.603 293.459C319.219 287.698 346.578 271.777 346.578 271.777" stroke="black" stroke-width="2.20724" stroke-linecap="round"/>
    <path d="M116.526 269.275C116.526 269.275 184.568 253.55 217.426 241.755C234.614 235.585 251.186 229.853 268.043 222.777C280.034 217.743 292.507 211.602 303.796 205.062C306.472 203.511 311.061 199.224 311.061 199.224" stroke="black" stroke-width="2.20724" stroke-linecap="round"/>
    <path d="M134.285 198.39C134.285 198.39 193.006 184.921 221.462 175.04C238.04 169.284 254.153 162.066 269.894 154.192C274.88 151.697 284.424 145.852 284.424 145.852" stroke="black" stroke-width="2.20724" stroke-linecap="round"/>
    <path d="M160.922 118.332C160.922 118.332 187.433 112.213 200.475 108.325C210.285 105.4 220.414 103.06 229.534 98.3177C235.402 95.2671 245.678 86.6427 245.678 86.6427" stroke="black" stroke-width="2.20724" stroke-linecap="round"/>
    <path d="M26.9225 516.366C24.3951 516.517 23.3077 520.85 23.6406 523.442C23.9953 526.206 26.2728 530.32 28.9203 529.782C31.1339 529.331 31.3316 525.462 31.0606 523.148C30.7501 520.495 29.5047 516.212 26.9225 516.366Z" fill="#00FF00"/>
    <path d="M41.486 505.163C38.9585 505.314 37.8712 509.647 38.204 512.239C38.5587 515.003 40.8363 519.117 43.4837 518.579C45.6974 518.128 45.895 514.259 45.6241 511.945C45.3136 509.292 44.0682 505.009 41.486 505.163Z" fill="#FFFF00"/>
    <path d="M57.516 517.989C54.9886 518.14 53.9012 522.473 54.234 525.065C54.5887 527.829 56.8663 531.943 59.5137 531.404C61.7274 530.954 61.925 527.085 61.6541 524.771C61.3435 522.118 60.0982 517.835 57.516 517.989Z" fill="#0000FF"/>
    <path d="M74.1735 506.523C71.646 506.674 70.5586 511.006 70.8915 513.599C71.2462 516.362 73.5238 520.476 76.1712 519.938C78.3848 519.488 78.5825 515.618 78.3116 513.304C78.001 510.651 76.7556 506.368 74.1735 506.523Z" fill="#FF0000"/>
    <path d="M88.7657 518.589C86.2383 518.74 85.1509 523.072 85.4838 525.665C85.8385 528.428 88.116 532.542 90.7635 532.004C92.9771 531.554 93.1748 527.684 92.9038 525.37C92.5933 522.717 91.3479 518.434 88.7657 518.589Z" fill="#00FF00"/>
    <path d="M103.329 507.385C100.802 507.536 99.7145 511.869 100.047 514.462C100.402 517.225 102.68 521.339 105.327 520.801C107.541 520.351 107.738 516.481 107.467 514.167C107.157 511.514 105.911 507.231 103.329 507.385Z" fill="#FFFF00"/>
    <path d="M119.359 520.211C116.832 520.362 115.744 524.695 116.077 527.287C116.432 530.051 118.709 534.165 121.357 533.627C123.571 533.176 123.768 529.307 123.497 526.993C123.187 524.34 121.941 520.057 119.359 520.211Z" fill="#0000FF"/>
    <path d="M136.017 505.797C133.489 505.948 132.402 510.28 132.735 512.873C133.089 515.636 135.367 519.75 138.014 519.212C140.228 518.762 140.426 514.892 140.155 512.578C139.844 509.925 138.599 505.642 136.017 505.797Z" fill="#FF0000"/>
    <path d="M155.954 514.526C153.426 514.677 152.339 519.009 152.672 521.602C153.026 524.365 155.304 528.48 157.951 527.941C160.165 527.491 160.363 523.621 160.092 521.307C159.781 518.654 158.536 514.371 155.954 514.526Z" fill="#00FF00"/>
    <path d="M173.371 499.195C170.844 499.346 169.756 503.678 170.089 506.271C170.444 509.035 172.721 513.149 175.369 512.61C177.582 512.16 177.78 508.29 177.509 505.976C177.198 503.324 175.953 499.041 173.371 499.195Z" fill="#FFFF00"/>
    <path d="M194.252 509.072C191.725 509.223 190.638 513.555 190.97 516.148C191.325 518.912 193.603 523.026 196.25 522.487C198.464 522.037 198.661 518.167 198.39 515.853C198.08 513.201 196.834 508.918 194.252 509.072Z" fill="#0000FF"/>
    <path d="M208.912 496.722C206.385 496.873 205.297 501.205 205.63 503.798C205.985 506.561 208.262 510.675 210.91 510.137C213.124 509.687 213.321 505.817 213.05 503.503C212.74 500.85 211.494 496.567 208.912 496.722Z" fill="#FF0000"/>
    <path d="M224.361 509.082C221.833 509.233 220.746 513.566 221.079 516.158C221.434 518.922 223.711 523.036 226.359 522.498C228.572 522.047 228.77 518.178 228.499 515.864C228.188 513.211 226.943 508.928 224.361 509.082Z" fill="#00FF00"/>
    <path d="M240.922 496.11C238.395 496.261 237.307 500.593 237.64 503.186C237.995 505.95 240.272 510.064 242.92 509.525C245.133 509.075 245.331 505.205 245.06 502.891C244.75 500.239 243.504 495.956 240.922 496.11Z" fill="#FFFF00"/>
    <path d="M255.525 508.346C252.997 508.497 251.91 512.829 252.243 515.422C252.598 518.186 254.875 522.3 257.523 521.761C259.736 521.311 259.934 517.441 259.663 515.127C259.352 512.475 258.107 508.191 255.525 508.346Z" fill="#0000FF"/>
    <path d="M270.185 494.226C267.657 494.377 266.57 498.709 266.903 501.302C267.257 504.065 269.535 508.18 272.182 507.641C274.396 507.191 274.594 503.321 274.323 501.007C274.012 498.354 272.767 494.071 270.185 494.226Z" fill="#FF0000"/>
    <path d="M291.527 501.952C289.148 502.846 289.31 507.319 290.35 509.704C291.457 512.245 294.782 515.511 297.169 514.21C299.164 513.122 298.278 509.357 297.376 507.22C296.341 504.771 293.958 501.038 291.527 501.952Z" fill="#00FF00"/>
    <path d="M302.364 486.901C299.985 487.795 300.148 492.268 301.187 494.652C302.295 497.194 305.62 500.46 308.006 499.159C310.001 498.071 309.115 494.306 308.213 492.169C307.178 489.72 304.795 485.987 302.364 486.901Z" fill="#FFFF00"/>
    <path d="M321.283 494.432C318.904 495.326 319.067 499.799 320.106 502.184C321.214 504.726 324.539 507.991 326.925 506.69C328.92 505.602 328.034 501.837 327.132 499.7C326.097 497.251 323.714 493.518 321.283 494.432Z" fill="#0000FF"/>
    <path d="M334.053 478.507C331.674 479.401 331.836 483.874 332.876 486.259C333.983 488.801 337.308 492.066 339.695 490.765C341.69 489.677 340.804 485.912 339.902 483.775C338.867 481.326 336.484 477.593 334.053 478.507Z" fill="#FF0000"/>
    <path d="M353.382 485.737C351.003 486.631 351.165 491.103 352.204 493.488C353.312 496.03 356.637 499.296 359.024 497.995C361.019 496.907 360.133 493.141 359.23 491.005C358.196 488.556 355.812 484.823 353.382 485.737Z" fill="#00FF00"/>
    <path d="M362.507 468.032C360.128 468.926 360.29 473.399 361.329 475.784C362.437 478.326 365.762 481.591 368.148 480.29C370.144 479.202 369.258 475.437 368.355 473.301C367.321 470.852 364.937 467.118 362.507 468.032Z" fill="#FFFF00"/>
    <path d="M380.284 476.153C377.905 477.047 378.068 481.52 379.107 483.905C380.215 486.446 383.54 489.712 385.926 488.411C387.922 487.323 387.035 483.557 386.133 481.421C385.098 478.972 382.715 475.239 380.284 476.153Z" fill="#0000FF"/>
    <path d="M386.49 457.87C384.111 458.764 384.274 463.236 385.313 465.621C386.421 468.163 389.746 471.429 392.132 470.127C394.127 469.04 393.241 465.274 392.339 463.138C391.304 460.689 388.921 456.956 386.49 457.87Z" fill="#FF0000"/>
    <path d="M404.244 460.387C401.717 460.538 400.63 464.87 400.962 467.463C401.317 470.227 403.595 474.341 406.242 473.802C408.456 473.352 408.653 469.483 408.383 467.169C408.072 464.516 406.827 460.233 404.244 460.387Z" fill="#00FF00"/>
    <path d="M411.388 440.929C408.86 441.08 407.773 445.412 408.106 448.005C408.461 450.769 410.738 454.883 413.385 454.344C415.599 453.894 415.797 450.024 415.526 447.71C415.215 445.057 413.97 440.774 411.388 440.929Z" fill="#FFFF00"/>
    <path d="M59.0481 440.408C56.5981 441.066 56.3517 445.535 57.1688 448.01C58.0398 450.649 61.0521 454.223 63.5465 453.16C65.6322 452.272 65.0935 448.437 64.3898 446.222C63.5832 443.683 61.5512 439.735 59.0481 440.408Z" fill="#00FF00"/>
    <path d="M71.2098 426.479C68.7598 427.137 68.5134 431.606 69.3306 434.081C70.2015 436.72 73.2138 440.294 75.7082 439.231C77.7939 438.343 77.2553 434.508 76.5516 432.293C75.7449 429.754 73.7129 425.805 71.2098 426.479Z" fill="#FFFF00"/>
    <path d="M89.3578 435.818C86.9078 436.477 86.6614 440.945 87.4786 443.421C88.3495 446.059 91.3618 449.634 93.8562 448.571C95.9419 447.682 95.4033 443.848 94.6996 441.633C93.893 439.094 91.8609 435.145 89.3578 435.818Z" fill="#0000FF"/>
    <path d="M103.523 421.208C101.073 421.867 100.827 426.335 101.644 428.811C102.515 431.449 105.527 435.024 108.022 433.961C110.108 433.073 109.569 429.237 108.865 427.023C108.059 424.484 106.027 420.535 103.523 421.208Z" fill="#FF0000"/>
    <path d="M120.118 430.093C117.668 430.752 117.422 435.22 118.239 437.696C119.11 440.334 122.122 443.909 124.616 442.846C126.702 441.958 126.163 438.122 125.46 435.908C124.653 433.369 122.621 429.42 120.118 430.093Z" fill="#00FF00"/>
    <path d="M132.28 416.164C129.83 416.823 129.583 421.292 130.401 423.767C131.272 426.406 134.284 429.98 136.778 428.917C138.864 428.029 138.325 424.194 137.622 421.979C136.815 419.44 134.783 415.491 132.28 416.164Z" fill="#FFFF00"/>
    <path d="M150.428 425.504C147.978 426.163 147.731 430.631 148.549 433.106C149.419 435.745 152.432 439.32 154.926 438.257C157.012 437.367 156.473 433.533 155.77 431.318C154.963 428.779 152.931 424.831 150.428 425.504Z" fill="#0000FF"/>
    <path d="M164.593 410.893C162.143 411.552 161.897 416.021 162.714 418.496C163.585 421.134 166.597 424.709 169.092 423.646C171.178 422.758 170.639 418.923 169.935 416.708C169.129 414.169 167.097 410.22 164.593 410.893Z" fill="#FF0000"/>
    <path d="M182.131 415.648C179.782 416.625 180.089 421.088 181.205 423.436C182.395 425.938 185.824 429.087 188.167 427.704C190.126 426.548 189.118 422.815 188.147 420.711C187.034 418.299 184.53 414.65 182.131 415.648Z" fill="#00FF00"/>
    <path d="M192.474 400.23C190.125 401.207 190.432 405.671 191.548 408.018C192.738 410.52 196.167 413.669 198.51 412.286C200.469 411.13 199.461 407.397 198.49 405.293C197.377 402.882 194.873 399.233 192.474 400.23Z" fill="#FFFF00"/>
    <path d="M211.627 407.102C209.278 408.079 209.585 412.543 210.701 414.89C211.891 417.392 215.32 420.541 217.663 419.158C219.622 418.002 218.614 414.269 217.643 412.166C216.529 409.754 214.026 406.105 211.627 407.102Z" fill="#0000FF"/>
    <path d="M223.873 390.745C221.525 391.722 221.832 396.186 222.948 398.534C224.137 401.036 227.566 404.184 229.909 402.801C231.868 401.645 230.861 397.912 229.89 395.809C228.776 393.397 226.273 389.748 223.873 390.745Z" fill="#FF0000"/>
    <path d="M241.429 397.371C239.08 398.348 239.387 402.812 240.503 405.159C241.693 407.661 245.122 410.81 247.465 409.427C249.424 408.271 248.416 404.538 247.445 402.435C246.332 400.023 243.828 396.374 241.429 397.371Z" fill="#00FF00"/>
    <path d="M251.772 381.954C249.423 382.93 249.73 387.394 250.847 389.742C252.036 392.244 255.465 395.392 257.808 394.01C259.767 392.853 258.759 389.121 257.788 387.017C256.675 384.605 254.172 380.956 251.772 381.954Z" fill="#FFFF00"/>
    <path d="M270.925 388.826C268.576 389.803 268.883 394.266 269.999 396.614C271.189 399.116 274.618 402.265 276.961 400.882C278.92 399.725 277.912 395.993 276.941 393.889C275.828 391.477 273.324 387.828 270.925 388.826Z" fill="#0000FF"/>
    <path d="M283.171 372.468C280.822 373.445 281.13 377.909 282.246 380.257C283.435 382.759 286.864 385.907 289.207 384.524C291.166 383.368 290.159 379.635 289.188 377.532C288.074 375.12 285.571 371.471 283.171 372.468Z" fill="#FF0000"/>
    <path d="M296.936 380.15C294.654 381.284 295.246 385.718 296.509 387.984C297.856 390.4 301.478 393.308 303.728 391.769C305.608 390.481 304.365 386.826 303.261 384.792C301.997 382.462 299.266 378.991 296.936 380.15Z" fill="#00FF00"/>
    <path d="M306.273 364.062C303.991 365.196 304.583 369.629 305.846 371.896C307.192 374.311 310.815 377.22 313.064 375.68C314.945 374.393 313.702 370.737 312.598 368.704C311.333 366.373 308.603 362.903 306.273 364.062Z" fill="#FFFF00"/>
    <path d="M325.822 367.738C323.541 368.872 324.132 373.306 325.396 375.572C326.742 377.988 330.365 380.896 332.614 379.357C334.495 378.07 333.251 374.414 332.148 372.381C330.883 370.05 328.153 366.58 325.822 367.738Z" fill="#0000FF"/>
    <path d="M331.146 348.498C328.865 349.632 329.456 354.066 330.72 356.332C332.066 358.748 335.688 361.656 337.938 360.117C339.819 358.83 338.575 355.174 337.472 353.14C336.207 350.81 333.477 347.339 331.146 348.498Z" fill="#FF0000"/>
    <path d="M350.499 353.914C348.218 355.048 348.809 359.482 350.072 361.748C351.419 364.164 355.041 367.072 357.291 365.533C359.172 364.245 357.928 360.59 356.825 358.556C355.56 356.226 352.83 352.755 350.499 353.914Z" fill="#00FF00"/>
    <path d="M349.746 336.783C347.465 337.917 348.056 342.35 349.32 344.617C350.666 347.033 354.288 349.941 356.538 348.401C358.419 347.114 357.175 343.458 356.072 341.425C354.807 339.095 352.077 335.624 349.746 336.783Z" fill="#FFFF00"/>
    <path d="M368.892 340.043C366.61 341.177 367.202 345.61 368.465 347.877C369.812 350.293 373.434 353.201 375.684 351.661C377.565 350.374 376.321 346.718 375.218 344.685C373.953 342.354 371.223 338.884 368.892 340.043Z" fill="#0000FF"/>
    <path d="M97.5346 339.026C95.0042 339.106 93.811 343.413 94.0801 346.014C94.3669 348.786 96.5428 352.958 99.2026 352.489C101.427 352.097 101.719 348.234 101.505 345.913C101.26 343.253 100.12 338.939 97.5346 339.026Z" fill="#00FF00"/>
    <path d="M107.802 324.67C105.272 324.75 104.078 329.057 104.348 331.658C104.634 334.43 106.81 338.602 109.47 338.133C111.694 337.741 111.987 333.878 111.773 331.557C111.527 328.897 110.387 324.583 107.802 324.67Z" fill="#FFFF00"/>
    <path d="M123.512 337.911C120.982 337.991 119.789 342.298 120.058 344.899C120.344 347.67 122.52 351.843 125.18 351.374C127.404 350.982 127.697 347.119 127.483 344.798C127.237 342.138 126.097 337.824 123.512 337.911Z" fill="#0000FF"/>
    <path d="M135.309 323.936C132.778 324.017 131.585 328.323 131.854 330.924C132.141 333.696 134.317 337.868 136.977 337.399C139.201 337.008 139.493 333.144 139.279 330.824C139.034 328.163 137.894 323.849 135.309 323.936Z" fill="#FF0000"/>
    <path d="M149.6 337.264C147.07 337.345 145.877 341.652 146.146 344.252C146.433 347.024 148.609 351.197 151.268 350.728C153.492 350.336 153.785 346.472 153.571 344.152C153.326 341.492 152.186 337.178 149.6 337.264Z" fill="#00FF00"/>
    <path d="M164.149 320.549C161.618 320.63 160.425 324.937 160.694 327.537C160.981 330.309 163.157 334.481 165.817 334.012C168.041 333.621 168.333 329.757 168.119 327.437C167.874 324.777 166.734 320.462 164.149 320.549Z" fill="#FFFF00"/>
    <path d="M181.286 332.316C178.755 332.397 177.562 336.704 177.831 339.304C178.118 342.076 180.294 346.249 182.954 345.78C185.178 345.388 185.47 341.524 185.256 339.204C185.011 336.544 183.871 332.23 181.286 332.316Z" fill="#0000FF"/>
    <path d="M192.797 312.739C190.267 312.82 189.073 317.126 189.342 319.727C189.629 322.499 191.805 326.671 194.465 326.202C196.689 325.811 196.981 321.947 196.767 319.627C196.522 316.967 195.382 312.652 192.797 312.739Z" fill="#FF0000"/>
    <path d="M208.43 322.011C205.902 322.162 204.815 326.494 205.148 329.087C205.503 331.85 207.78 335.964 210.428 335.426C212.641 334.976 212.839 331.106 212.568 328.792C212.257 326.139 211.012 321.856 208.43 322.011Z" fill="#00FF00"/>
    <path d="M219.283 303.437C216.756 303.588 215.669 307.92 216.001 310.513C216.356 313.276 218.634 317.391 221.281 316.852C223.495 316.402 223.692 312.532 223.422 310.218C223.111 307.565 221.866 303.282 219.283 303.437Z" fill="#FFFF00"/>
    <path d="M240.165 313.904C237.638 314.055 236.55 318.387 236.883 320.98C237.238 323.743 239.515 327.857 242.163 327.319C244.376 326.869 244.574 322.999 244.303 320.685C243.992 318.032 242.747 313.749 240.165 313.904Z" fill="#0000FF"/>
    <path d="M254.539 294.477C252.012 294.628 250.924 298.96 251.257 301.553C251.612 304.316 253.889 308.43 256.537 307.892C258.751 307.442 258.948 303.572 258.677 301.258C258.367 298.605 257.121 294.322 254.539 294.477Z" fill="#FF0000"/>
    <path d="M275.125 302.415C272.597 302.566 271.51 306.898 271.843 309.491C272.198 312.254 274.475 316.368 277.123 315.83C279.336 315.38 279.534 311.51 279.263 309.196C278.952 306.543 277.707 302.26 275.125 302.415Z" fill="#00FF00"/>
    <path d="M288.547 285.315C286.019 285.466 284.932 289.798 285.265 292.391C285.62 295.154 287.897 299.269 290.545 298.73C292.758 298.28 292.956 294.41 292.685 292.096C292.374 289.443 291.129 285.16 288.547 285.315Z" fill="#FFFF00"/>
    <path d="M302.864 295.782C300.337 295.933 299.249 300.265 299.582 302.858C299.937 305.621 302.214 309.736 304.862 309.197C307.076 308.747 307.273 304.877 307.002 302.563C306.692 299.91 305.446 295.627 302.864 295.782Z" fill="#0000FF"/>
    <path d="M314.385 273.701C311.857 273.852 310.77 278.185 311.103 280.777C311.458 283.541 313.735 287.655 316.383 287.117C318.596 286.666 318.794 282.797 318.523 280.483C318.212 277.83 316.967 273.547 314.385 273.701Z" fill="#FF0000"/>
    <path d="M327.815 282.318C325.287 282.469 324.2 286.801 324.533 289.394C324.888 292.157 327.165 296.271 329.812 295.733C332.026 295.283 332.224 291.413 331.953 289.099C331.642 286.446 330.397 282.163 327.815 282.318Z" fill="#00FF00"/>
    <path d="M335.529 262.859C333.002 263.01 331.914 267.342 332.247 269.935C332.602 272.699 334.879 276.813 337.527 276.274C339.74 275.824 339.938 271.954 339.667 269.64C339.357 266.988 338.111 262.705 335.529 262.859Z" fill="#FFFF00"/>
    <path d="M123.155 267.936C120.775 268.826 120.929 273.299 121.965 275.686C123.068 278.23 126.388 281.501 128.776 280.204C130.773 279.12 129.894 275.353 128.995 273.215C127.964 270.764 125.587 267.027 123.155 267.936Z" fill="#00FF00"/>
    <path d="M134.018 252.904C131.637 253.795 131.792 258.267 132.827 260.654C133.931 263.198 137.25 266.469 139.639 265.173C141.636 264.088 140.756 260.321 139.857 258.184C138.827 255.733 136.45 251.995 134.018 252.904Z" fill="#FFFF00"/>
    <path d="M152.924 260.47C150.544 261.36 150.698 265.832 151.734 268.219C152.837 270.763 156.157 274.035 158.545 272.738C160.542 271.654 159.663 267.887 158.764 265.749C157.733 263.298 155.356 259.56 152.924 260.47Z" fill="#0000FF"/>
    <path d="M164.294 243.389C161.914 244.279 162.068 248.752 163.104 251.139C164.207 253.683 167.527 256.954 169.915 255.657C171.912 254.573 171.033 250.806 170.134 248.668C169.103 246.217 166.726 242.48 164.294 243.389Z" fill="#FF0000"/>
    <path d="M183.896 252.419C181.515 253.309 181.67 257.782 182.706 260.168C183.809 262.712 187.128 265.984 189.517 264.687C191.514 263.603 190.634 259.836 189.735 257.698C188.705 255.247 186.328 251.509 183.896 252.419Z" fill="#00FF00"/>
    <path d="M194.188 234.734C191.807 235.624 191.962 240.096 192.997 242.483C194.101 245.027 197.42 248.298 199.809 247.002C201.806 245.918 200.926 242.151 200.027 240.013C198.997 237.562 196.62 233.824 194.188 234.734Z" fill="#FFFF00"/>
    <path d="M213.094 244.068C210.714 244.958 210.868 249.431 211.904 251.817C213.007 254.361 216.327 257.633 218.715 256.336C220.712 255.252 219.833 251.485 218.934 249.347C217.903 246.896 215.526 243.158 213.094 244.068Z" fill="#0000FF"/>
    <path d="M222.466 225.513C220.086 226.403 220.241 230.876 221.276 233.263C222.379 235.806 225.699 239.078 228.087 237.781C230.085 236.697 229.205 232.93 228.306 230.792C227.275 228.341 224.898 224.604 222.466 225.513Z" fill="#FF0000"/>
    <path d="M240.972 232.879C238.671 233.969 239.183 238.414 240.406 240.704C241.71 243.144 245.28 246.121 247.556 244.624C249.46 243.373 248.281 239.694 247.214 237.64C245.991 235.286 243.323 231.764 240.972 232.879Z" fill="#00FF00"/>
    <path d="M248.776 215.094C246.475 216.184 246.988 220.628 248.211 222.918C249.514 225.359 253.085 228.336 255.361 226.839C257.265 225.588 256.086 221.909 255.019 219.855C253.795 217.501 251.127 213.979 248.776 215.094Z" fill="#FFFF00"/>
    <path d="M268.022 221.641C265.721 222.732 266.234 227.176 267.457 229.466C268.76 231.907 272.331 234.883 274.607 233.387C276.51 232.135 275.332 228.456 274.265 226.403C273.041 224.048 270.373 220.527 268.022 221.641Z" fill="#0000FF"/>
    <path d="M276.878 202.198C274.576 203.289 275.089 207.733 276.312 210.023C277.616 212.464 281.186 215.44 283.462 213.944C285.366 212.692 284.187 209.014 283.12 206.96C281.897 204.606 279.228 201.084 276.878 202.198Z" fill="#FF0000"/>
    <path d="M295.93 210.038C293.629 211.129 294.141 215.573 295.364 217.863C296.668 220.304 300.238 223.28 302.514 221.783C304.418 220.532 303.239 216.853 302.172 214.8C300.949 212.445 298.28 208.924 295.93 210.038Z" fill="#00FF00"/>
    <path d="M301.514 190.585C299.213 191.676 299.726 196.12 300.949 198.41C302.252 200.851 305.823 203.827 308.099 202.33C310.002 201.079 308.824 197.4 307.757 195.347C306.533 192.992 303.865 189.471 301.514 190.585Z" fill="#FFFF00"/>
    <path d="M138.171 197.452C135.836 198.463 136.204 202.922 137.352 205.253C138.576 207.738 142.048 210.836 144.371 209.419C146.314 208.234 145.256 204.517 144.256 202.427C143.109 200.032 140.557 196.42 138.171 197.452Z" fill="#00FF00"/>
    <path d="M148.302 181.885C145.967 182.896 146.335 187.355 147.483 189.686C148.707 192.171 152.179 195.269 154.502 193.852C156.445 192.667 155.387 188.95 154.387 186.86C153.24 184.465 150.688 180.853 148.302 181.885Z" fill="#FFFF00"/>
    <path d="M167.547 188.477C165.212 189.487 165.58 193.947 166.728 196.278C167.952 198.762 171.424 201.86 173.747 200.443C175.69 199.259 174.632 195.541 173.631 193.452C172.485 191.056 169.932 187.444 167.547 188.477Z" fill="#0000FF"/>
    <path d="M179.568 171.942C177.233 172.953 177.601 177.412 178.75 179.743C179.973 182.228 183.445 185.326 185.768 183.909C187.711 182.724 186.653 179.006 185.653 176.917C184.506 174.522 181.954 170.91 179.568 171.942Z" fill="#FF0000"/>
    <path d="M197.784 180.67C195.448 181.68 195.817 186.139 196.965 188.471C198.189 190.955 201.66 194.053 203.984 192.636C205.927 191.451 204.868 187.734 203.868 185.644C202.722 183.249 200.169 179.637 197.784 180.67Z" fill="#00FF00"/>
    <path d="M207.344 162.744C205.009 163.754 205.377 168.214 206.525 170.545C207.749 173.029 211.22 176.127 213.544 174.71C215.487 173.526 214.429 169.808 213.428 167.719C212.282 165.323 209.729 161.711 207.344 162.744Z" fill="#FFFF00"/>
    <path d="M227.73 171.694C225.395 172.704 225.763 177.164 226.912 179.495C228.135 181.979 231.607 185.078 233.931 183.661C235.874 182.476 234.815 178.758 233.815 176.669C232.668 174.274 230.116 170.662 227.73 171.694Z" fill="#0000FF"/>
    <path d="M238.61 152.801C236.275 153.811 236.643 158.271 237.791 160.602C239.015 163.086 242.487 166.184 244.81 164.767C246.753 163.583 245.695 159.865 244.695 157.776C243.548 155.38 240.996 151.768 238.61 152.801Z" fill="#FF0000"/>
    <path d="M257.284 161.185C254.756 161.336 253.669 165.668 254.002 168.261C254.357 171.024 256.634 175.139 259.282 174.6C261.495 174.15 261.693 170.28 261.422 167.966C261.111 165.313 259.866 161.03 257.284 161.185Z" fill="#00FF00"/>
    <path d="M263.286 141.726C260.758 141.877 259.671 146.21 260.004 148.802C260.358 151.566 262.636 155.68 265.283 155.142C267.497 154.692 267.695 150.822 267.424 148.508C267.113 145.855 265.868 141.572 263.286 141.726Z" fill="#FFFF00"/>
    <path d="M279.315 149.834C276.788 149.985 275.701 154.318 276.033 156.911C276.388 159.674 278.666 163.788 281.313 163.25C283.527 162.8 283.724 158.93 283.454 156.616C283.143 153.963 281.898 149.68 279.315 149.834Z" fill="#0000FF"/>
    <path d="M166.462 115.064C164.05 115.859 164.037 120.334 164.983 122.761C165.991 125.347 169.185 128.748 171.621 127.547C173.657 126.543 172.918 122.744 172.1 120.572C171.161 118.082 168.926 114.252 166.462 115.064Z" fill="#00FF00"/>
    <path d="M177.877 100.477C175.465 101.271 175.453 105.747 176.398 108.173C177.406 110.759 180.601 114.16 183.036 112.96C185.072 111.956 184.334 108.157 183.515 105.984C182.577 103.494 180.341 99.6647 177.877 100.477Z" fill="#FFFF00"/>
    <path d="M196.487 108.789C194.075 109.584 194.063 114.059 195.008 116.485C196.016 119.071 199.211 122.473 201.646 121.272C203.682 120.268 202.944 116.469 202.125 114.297C201.187 111.807 198.951 107.977 196.487 108.789Z" fill="#0000FF"/>
    <path d="M209.868 93.4093C207.456 94.2039 207.443 98.6795 208.389 101.106C209.397 103.692 212.591 107.093 215.027 105.892C217.063 104.888 216.324 101.089 215.506 98.9171C214.568 96.427 212.332 92.5974 209.868 93.4093Z" fill="#FF0000"/>
    <path d="M226.903 101.355C224.491 102.149 224.479 106.625 225.424 109.051C226.432 111.637 229.627 115.038 232.062 113.837C234.098 112.833 233.36 109.034 232.541 106.862C231.603 104.372 229.367 100.543 226.903 101.355Z" fill="#00FF00"/>
    <path d="M232.466 80.0954C230.054 80.8899 230.042 85.3655 230.987 87.7918C231.995 90.3777 235.19 93.7788 237.625 92.5783C239.661 91.5743 238.923 87.7752 238.104 85.6031C237.166 83.1129 234.93 79.2834 232.466 80.0954Z" fill="#FFFF00"/>
    <path d="M93.1336 489.148C98.8077 489.148 103.408 484.528 103.408 478.829C103.408 473.13 98.8077 468.509 93.1336 468.509C87.4594 468.509 82.8596 473.13 82.8596 478.829C82.8596 484.528 87.4594 489.148 93.1336 489.148Z" fill="#FF0000" stroke="#BC0000" stroke-width="0.31748" stroke-linecap="round"/>
    <path d="M209.977 379.071C215.651 379.071 220.251 374.451 220.251 368.752C220.251 363.053 215.651 358.432 209.977 358.432C204.303 358.432 199.703 363.053 199.703 368.752C199.703 374.451 204.303 379.071 209.977 379.071Z" fill="#FF0000" stroke="#BC0000" stroke-width="0.31748" stroke-linecap="round"/>
    <path d="M165.347 567.574C171.021 567.574 175.621 562.954 175.621 557.255C175.621 551.556 171.021 546.935 165.347 546.935C159.673 546.935 155.073 551.556 155.073 557.255C155.073 562.954 159.673 567.574 165.347 567.574Z" fill="#FF0000" stroke="#BC0000" stroke-width="0.31748" stroke-linecap="round"/>
    <path d="M261.554 560.518C267.228 560.518 271.828 555.898 271.828 550.199C271.828 544.499 267.228 539.879 261.554 539.879C255.88 539.879 251.28 544.499 251.28 550.199C251.28 555.898 255.88 560.518 261.554 560.518Z" fill="#FF0000" stroke="#BC0000" stroke-width="0.31748" stroke-linecap="round"/>
    <path d="M187.114 484.029C192.788 484.029 197.388 479.409 197.388 473.71C197.388 468.011 192.788 463.39 187.114 463.39C181.44 463.39 176.84 468.011 176.84 473.71C176.84 479.409 181.44 484.029 187.114 484.029Z" fill="#FF0000" stroke="#BC0000" stroke-width="0.31748" stroke-linecap="round"/>
    <path d="M352.094 550.998C357.768 550.998 362.368 546.378 362.368 540.679C362.368 534.979 357.768 530.359 352.094 530.359C346.42 530.359 341.82 534.979 341.82 540.679C341.82 546.378 346.42 550.998 352.094 550.998Z" fill="#FF0000" stroke="#BC0000" stroke-width="0.31748" stroke-linecap="round"/>
    <path d="M283.995 456.206C289.669 456.206 294.268 451.586 294.268 445.887C294.268 440.188 289.669 435.567 283.995 435.567C278.32 435.567 273.721 440.188 273.721 445.887C273.721 451.586 278.32 456.206 283.995 456.206Z" fill="#FF0000" stroke="#BC0000" stroke-width="0.31748" stroke-linecap="round"/>
    <path d="M417.837 527.324C423.511 527.324 428.11 522.704 428.11 517.005C428.11 511.305 423.511 506.685 417.837 506.685C412.162 506.685 407.563 511.305 407.563 517.005C407.563 522.704 412.162 527.324 417.837 527.324Z" fill="#FF0000" stroke="#BC0000" stroke-width="0.31748" stroke-linecap="round"/>
    <path d="M338.887 410.649C344.561 410.649 349.161 406.029 349.161 400.33C349.161 394.63 344.561 390.01 338.887 390.01C333.213 390.01 328.613 394.63 328.613 400.33C328.613 406.029 333.213 410.649 338.887 410.649Z" fill="#FF0000" stroke="#BC0000" stroke-width="0.31748" stroke-linecap="round"/>
    <path d="M277.061 364.131C282.735 364.131 287.335 359.511 287.335 353.812C287.335 348.112 282.735 343.492 277.061 343.492C271.387 343.492 266.787 348.112 266.787 353.812C266.787 359.511 271.387 364.131 277.061 364.131Z" fill="#FF0000" stroke="#BC0000" stroke-width="0.31748" stroke-linecap="round"/>
    <path d="M128.921 389.811C134.595 389.811 139.195 385.191 139.195 379.492C139.195 373.792 134.595 369.172 128.921 369.172C123.247 369.172 118.647 373.792 118.647 379.492C118.647 385.191 123.247 389.811 128.921 389.811Z" fill="#FF0000" stroke="#BC0000" stroke-width="0.31748" stroke-linecap="round"/>
    <path d="M184.968 302.046C190.642 302.046 195.242 297.426 195.242 291.727C195.242 286.028 190.642 281.407 184.968 281.407C179.294 281.407 174.694 286.028 174.694 291.727C174.694 297.426 179.294 302.046 184.968 302.046Z" fill="#FF0000" stroke="#BC0000" stroke-width="0.31748" stroke-linecap="round"/>
    <path d="M256.818 204.444C262.492 204.444 267.092 199.823 267.092 194.124C267.092 188.425 262.492 183.805 256.818 183.805C251.144 183.805 246.544 188.425 246.544 194.124C246.544 199.823 251.144 204.444 256.818 204.444Z" fill="#FF0000" stroke="#BC0000" stroke-width="0.31748" stroke-linecap="round"/>
    <path d="M190.269 154.585C195.943 154.585 200.543 149.965 200.543 144.265C200.543 138.566 195.943 133.946 190.269 133.946C184.594 133.946 179.995 138.566 179.995 144.265C179.995 149.965 184.594 154.585 190.269 154.585Z" fill="#FF0000" stroke="#BC0000" stroke-width="0.31748" stroke-linecap="round"/>
    <path d="M283.509 270.666C289.183 270.666 293.783 266.046 293.783 260.347C293.783 254.648 289.183 250.028 283.509 250.028C277.835 250.028 273.235 254.648 273.235 260.347C273.235 266.046 277.835 270.666 283.509 270.666Z" fill="#FF0000" stroke="#BC0000" stroke-width="0.31748" stroke-linecap="round"/>
    <path d="M235.996 60.6408L216.236 50.6209L196.789 61.2369L200.202 39.3262L184.108 24.0902L205.977 20.5686L215.477 0.536339L225.58 20.2706L247.545 23.1259L231.921 38.844L235.996 60.6408Z" fill="#FFFF00" stroke="#D4C400" stroke-width="0.430476" stroke-linecap="round"/>
</svg>
