<?xml version="1.0" encoding="UTF-8" standalone="no"?>
<!-- Created with Inkscape (http://www.inkscape.org/) -->

<svg
   width="130mm"
   height="65mm"
   viewBox="0 0 130 65"
   version="1.1"
   id="svg1"
   inkscape:version="1.4 (86a8ad7, 2024-10-11)"
   sodipodi:docname="Mesa.svg"
   inkscape:export-filename="Mesa.png"
   inkscape:export-xdpi="96"
   inkscape:export-ydpi="96"
   xmlns:inkscape="http://www.inkscape.org/namespaces/inkscape"
   xmlns:sodipodi="http://sodipodi.sourceforge.net/DTD/sodipodi-0.dtd"
   xmlns="http://www.w3.org/2000/svg"
   xmlns:svg="http://www.w3.org/2000/svg">
  <sodipodi:namedview
     id="namedview1"
     pagecolor="#505050"
     bordercolor="#ffffff"
     borderopacity="1"
     inkscape:showpageshadow="0"
     inkscape:pageopacity="0"
     inkscape:pagecheckerboard="1"
     inkscape:deskcolor="#505050"
     inkscape:document-units="mm"
     inkscape:zoom="1"
     inkscape:cx="307.5"
     inkscape:cy="36"
     inkscape:window-width="1440"
     inkscape:window-height="878"
     inkscape:window-x="-6"
     inkscape:window-y="-6"
     inkscape:window-maximized="1"
     inkscape:current-layer="layer1" />
  <defs
     id="defs1" />
  <g
     inkscape:label="Capa 1"
     inkscape:groupmode="layer"
     id="layer1">
    <g
       id="g10"
       transform="translate(-21.960417,-166.95209)">
      <path
         style="fill:#241c1c;fill-opacity:0.292793;stroke-width:0.264583"
         d="m 38.099999,197.64374 c -12.7,27.51666 -12.964583,27.78125 -12.964583,27.78125 l -2.116667,3.70416 124.354161,1.32292 3.96875,-1.5875 -16.93333,-30.42708 z"
         id="path10"
         sodipodi:nodetypes="ccccccc" />
      <g
         id="g9"
         transform="translate(-13.758333,4.2333333)">
        <path
           style="fill:#693b1d;fill-opacity:1;stroke-width:0.322179"
           d="m 43.937369,184.61302 v 36.18177 h 3.236585 2.451956 v -36.18177 z"
           id="path6" />
        <path
           style="fill:#502d16;fill-opacity:1;stroke-width:0.285817"
           d="m 49.619709,220.78858 1.818617,-5.1201 0.003,-31.11825 -1.815606,0.0642 z"
           id="path7"
           sodipodi:nodetypes="ccccc" />
        <path
           style="fill:#693b1d;fill-opacity:1;stroke-width:0.277308"
           d="m 53.185144,178.32089 v 26.80533 h 3.236585 2.451956 v -26.80533 z"
           id="path6-1" />
        <path
           style="fill:#502d16;fill-opacity:1;stroke-width:0.246011"
           d="m 58.867484,205.12162 0.82643,-3.79324 -0.129292,-23.12016 -0.691127,0.11375 z"
           id="path7-52"
           sodipodi:nodetypes="ccccc" />
        <path
           style="fill:#61371b;fill-opacity:1;stroke-width:0.264583"
           d="m 57.082596,197.84797 -5.84365,11.14145 0.114568,3.59193 5.763805,-11.22502 z"
           id="path8"
           sodipodi:nodetypes="ccccc" />
        <path
           style="fill:#784421;fill-opacity:1;stroke-width:0.264583"
           d="m 51.286408,208.96283 5.798539,-11.16702 -3.876298,0.10029 -1.754528,3.70778 z"
           id="path9"
           sodipodi:nodetypes="ccccc" />
        <path
           style="fill:#693b1d;fill-opacity:1;stroke-width:0.322179"
           d="m 156.71811,186.65481 v 36.18177 h -3.23659 -2.45195 v -36.18177 z"
           id="path6-16" />
        <path
           style="fill:#502d16;fill-opacity:1;stroke-width:0.285817"
           d="m 151.03577,222.83037 -1.81862,-5.1201 -0.003,-31.11825 1.81561,0.0642 z"
           id="path7-8"
           sodipodi:nodetypes="ccccc" />
        <path
           style="fill:#693b1d;fill-opacity:1;stroke-width:0.277308"
           d="m 147.47033,180.36268 v 26.80533 h -3.23658 -2.45196 v -26.80533 z"
           id="path6-1-5" />
        <path
           style="fill:#502d16;fill-opacity:1;stroke-width:0.246011"
           d="m 141.78799,207.16341 -0.82643,-3.79324 0.12929,-23.12016 0.69113,0.11375 z"
           id="path7-52-7"
           sodipodi:nodetypes="ccccc" />
        <path
           style="fill:#61371b;fill-opacity:1;stroke-width:0.264583"
           d="m 143.57288,199.88976 5.84365,11.14145 -0.11457,3.59193 -5.7638,-11.22502 z"
           id="path8-6"
           sodipodi:nodetypes="ccccc" />
        <path
           style="fill:#693b1d;fill-opacity:1;stroke-width:0.538227"
           d="m 151.00355,184.5113 -101.452786,0.0132 -0.0021,3.14254 -0.02144,2.49833 101.522956,0.0569 z"
           id="path6-8"
           sodipodi:nodetypes="cccccc" />
        <path
           style="fill:#784421;fill-opacity:1;stroke-width:0.264583"
           d="m 149.36907,211.00462 -5.79854,-11.16702 3.8763,0.10029 1.75452,3.70778 z"
           id="path9-1"
           sodipodi:nodetypes="ccccc" />
        <path
           style="fill:#61371b;fill-opacity:1;stroke-width:0.227469"
           d="m 49.701583,164.69237 -11.096781,19.46437 11.428026,0.12242 110.139692,0.12242 -11.2624,-19.58679 z"
           id="path4"
           sodipodi:nodetypes="cccccc" />
        <path
           style="fill:#502d16;fill-opacity:1;stroke-width:0.335545"
           d="m 38.605003,184.15304 0.0085,3.39162 117.360547,-0.0828 4.17811,0.0769 0.005,-3.15282 z"
           id="path5"
           sodipodi:nodetypes="cccccc" />
      </g>
    </g>
  </g>
</svg>
