<?xml version="1.0" encoding="UTF-8" standalone="no"?>
<!-- Created with Inkscape (http://www.inkscape.org/) -->

<svg
   width="130mm"
   height="68mm"
   viewBox="0 0 130 68"
   version="1.1"
   id="svg1"
   xml:space="preserve"
   inkscape:version="1.4 (86a8ad7, 2024-10-11)"
   sodipodi:docname="Sofa.svg"
   xmlns:inkscape="http://www.inkscape.org/namespaces/inkscape"
   xmlns:sodipodi="http://sodipodi.sourceforge.net/DTD/sodipodi-0.dtd"
   xmlns="http://www.w3.org/2000/svg"
   xmlns:svg="http://www.w3.org/2000/svg"><sodipodi:namedview
     id="namedview1"
     pagecolor="#505050"
     bordercolor="#ffffff"
     borderopacity="1"
     inkscape:showpageshadow="0"
     inkscape:pageopacity="0"
     inkscape:pagecheckerboard="1"
     inkscape:deskcolor="#505050"
     inkscape:document-units="mm"
     inkscape:zoom="1.1296016"
     inkscape:cx="181.92255"
     inkscape:cy="179.70938"
     inkscape:window-width="1440"
     inkscape:window-height="878"
     inkscape:window-x="-6"
     inkscape:window-y="-6"
     inkscape:window-maximized="1"
     inkscape:current-layer="svg1" /><defs
     id="defs1" /><g
     id="g15"
     transform="translate(-60.286987,-79.499324)"><path
       style="display:inline;fill:#af9883;fill-opacity:1;stroke:#7c5e45;stroke-width:0.45;stroke-linecap:round;stroke-dasharray:none;stroke-opacity:1;paint-order:markers fill stroke"
       d="m 64.965852,134.15511 123.348168,-0.16563 0.16562,-31.79973 c 0,0 -0.28946,-0.8849 -0.76453,-1.31702 -0.76418,-0.6951 -3.0034,-1.581388 -3.0034,-1.581388 0,0 -3.74893,-2.264494 -5.21715,-3.850748 -0.26534,-0.28667 -0.35011,-0.712388 -0.62108,-0.993743 -0.32397,-0.336391 -0.91519,-0.3886 -1.15937,-0.786712 -0.84705,-1.381023 -0.72133,-3.301125 -1.57342,-4.927301 -0.39139,-0.746948 -0.47328,-1.639318 -0.91093,-2.360136 -0.32479,-0.534944 -0.76801,-0.999364 -1.24218,-1.407801 -0.63523,-0.547175 -1.34721,-1.022194 -2.1117,-1.366395 -0.79695,-0.358815 -1.66304,-0.5639 -2.52576,-0.7039 -1.09126,-0.177087 -2.20759,-0.127561 -3.31247,-0.165622 -5.83581,-0.20103 -11.6756,-0.285132 -17.51469,-0.331247 -8.86063,-0.06998 -26.58259,0.08281 -26.58259,0.08281 L 91.838281,82.356328 c 0,0 -3.707125,0.09087 -5.548391,0.289843 -1.098623,0.118719 -2.213736,0.21715 -3.271065,0.538277 -0.957434,0.290787 -1.904074,0.681401 -2.732789,1.242176 -0.727633,0.492375 -1.383078,1.114879 -1.904672,1.82186 -0.311481,0.422189 -0.494862,0.926586 -0.7039,1.4078 -0.457616,1.053452 -0.854515,2.134544 -1.200772,3.22966 -0.262402,0.829904 -0.454193,1.680653 -0.662492,2.525761 -0.04407,0.17879 -0.0206,0.386054 -0.12422,0.538276 -0.301594,0.443064 -0.918516,0.561578 -1.324988,0.910928 -0.229563,0.197303 -0.509773,0.381005 -0.621088,0.662496 -0.176674,0.446771 -4.476515,3.505843 -4.678868,3.643717 -0.449345,0.306163 -0.996676,0.435175 -1.490612,0.662496 -0.583248,0.268422 -1.273948,0.385502 -1.739048,0.828122 -0.44286,0.42146 -0.722018,1.02154 -0.869522,1.61483 -0.506183,2.03596 -0.251374,7.02565 -0.251374,7.02565 l 0.275631,13.55811 z"
       id="path1"
       sodipodi:nodetypes="cccscssssssssssccssssssssssssssccc" /><path
       style="fill:none;fill-opacity:0.103746;stroke:#7c5e45;stroke-width:0.450001;stroke-linecap:round;stroke-dasharray:none;stroke-opacity:1;paint-order:markers fill stroke"
       d="m 68.804218,99.312303 c 0.908611,-0.148746 1.867395,-0.02048 2.752169,0.234225 0.696292,0.200446 1.34197,0.575432 1.932374,0.995462 0.461237,0.32814 0.997124,0.65507 1.229693,1.17114 0.866712,1.92321 0.234228,6.32413 0.234228,6.32413 0,0 0.207266,3.13684 0,4.68454 -0.02954,0.22058 -0.09081,0.43839 -0.175673,0.64413 -0.316668,0.76767 -1.276405,1.3375 -1.229691,2.1666 0.01493,0.26506 0.378973,0.39417 0.468453,0.64412 0.224066,0.6259 0.117115,1.99094 0.117115,1.99094 0,0 -0.306841,1.93105 -0.117115,2.86928 0.07269,0.35945 0.288173,0.67611 0.468455,0.99546 0.103791,0.18386 0.351341,0.52701 0.351341,0.52701 l -0.05856,11.53569 -9.896094,0.11711 c 0.62887,0.22195 -0.358178,-20.86211 0.05855,-31.91344 0.02271,-0.60214 0.32982,-1.21892 0.761238,-1.63959 0.807413,-0.787292 1.990615,-1.164617 3.103517,-1.346807 z"
       id="path2"
       sodipodi:nodetypes="sssscsssscsscccsss" /><path
       style="fill:none;fill-opacity:0.103746;stroke:#7c5e45;stroke-width:0.450001;stroke-linecap:round;stroke-dasharray:none;stroke-opacity:1;paint-order:markers fill stroke"
       d="m 75.655362,94.159304 c 0.65104,-0.267268 1.29885,-0.574979 1.990932,-0.70268 0.748847,-0.138175 1.524741,-0.120395 2.283714,-0.05856 0.831778,0.06777 1.732316,0.0588 2.459384,0.468456 0.457569,0.257811 0.799671,0.711635 1.054023,1.171135 0.206455,0.372971 0.395722,0.805708 0.35134,1.229691 -0.03909,0.373414 -0.285617,0.707898 -0.52701,0.995466 -0.429257,0.511367 -1.013821,0.877519 -1.581034,1.229693 -1.105079,0.686126 -2.337276,1.142551 -3.513407,1.698145 -0.758078,0.35811 -1.46957,0.85379 -2.283714,1.05403 -0.379554,0.0934 -0.795162,0.16536 -1.171136,0.0585 -0.661412,-0.18799 -1.081017,-0.86789 -1.698146,-1.17113 -0.459834,-0.225953 -0.963425,-0.358886 -1.463921,-0.468459 -0.787552,-0.172418 -2.400827,-0.292785 -2.400827,-0.292785 0,0 0.697677,-0.86444 1.112579,-1.229691 0.999798,-0.880152 2.286724,-1.395293 3.279179,-2.283717 0.154595,-0.13839 0.271202,-0.314131 0.409898,-0.468452 0.230833,-0.256837 0.424177,-0.55707 0.702681,-0.761238 0.29576,-0.216818 0.656219,-0.329135 0.995465,-0.468404 z"
       id="path3"
       sodipodi:nodetypes="ssssssssssssscsssss" /><path
       style="fill:#af9883;fill-opacity:1;stroke:#7c5e45;stroke-width:0.450001;stroke-linecap:round;stroke-dasharray:none;stroke-opacity:1;paint-order:markers fill stroke"
       d="m 83.033516,97.643433 0.175671,10.452387 -8.139393,5.03588 c 0,0 -0.120889,-3.3958 -0.07289,-5.09295 0.03267,-1.15519 0.304381,-2.3041 0.245463,-3.45825 -0.05755,-1.1273 -0.582473,-3.33582 -0.582473,-3.33582 l 1.171135,0.0585 c 0,0 3.150935,-1.584469 4.743098,-2.34227 0.465299,-0.221463 0.952917,-0.397463 1.405364,-0.644123 0.366052,-0.19956 1.054022,-0.673354 1.054022,-0.673354 z"
       id="path4"
       sodipodi:nodetypes="cccssccsscc" /><path
       style="fill:none;fill-opacity:0.103746;stroke:#7c5e45;stroke-width:0.450001;stroke-linecap:round;stroke-dasharray:none;stroke-opacity:1;paint-order:markers fill stroke"
       d="m 178.65674,133.97792 v -11.88703 c 0,0 0.33881,-0.1173 0.46846,-0.23423 0.18899,-0.17044 0.37669,-0.3918 0.40989,-0.64412 0.2248,-1.70819 -0.0731,-5.32867 -0.0585,-5.32867 0,0 0.37414,0.0866 0.52701,0 0.19808,-0.11215 0.31784,-0.36042 0.35134,-0.58557 0.0474,-0.31841 -0.0782,-0.65534 -0.23423,-0.9369 -0.36805,-0.66406 -1.24624,-0.89723 -1.40536,-1.6396 -0.14104,-0.65802 -0.14639,-1.80549 -0.14639,-2.72288 0,-1.62007 0.14639,-3.26943 0.14639,-4.8895 0,-0.93691 -0.31706,-1.92909 0,-2.81072 0.19706,-0.54795 0.69879,-0.93711 1.11258,-1.34681 0.37475,-0.37105 0.7514,-0.77329 1.22969,-0.995464 0.84712,-0.393503 1.81812,-0.530839 2.75217,-0.527011 0.49763,0.002 0.98346,0.163163 1.46392,0.292783 0.75686,0.20419 1.54112,0.518782 2.15196,1.010112 0.49821,0.40073 1.0585,0.80618 1.06866,1.39072 0.0545,3.13508 -0.23423,31.972 -0.23423,31.972 z"
       id="path5"
       sodipodi:nodetypes="ccsscssssssssssssscc" /><path
       style="fill:none;fill-opacity:0.103746;stroke:#7c5e45;stroke-width:0.450001;stroke-linecap:round;stroke-dasharray:none;stroke-opacity:1;paint-order:markers fill stroke"
       d="m 184.86376,99.487973 -5.50434,-4.098975 -0.70268,-1.054024 -1.11258,-0.70268 -1.99093,-0.585568 -3.45485,-0.117112 -1.34681,0.761238 -1.22969,1.171135 -0.11711,1.581031 1.46392,1.698149 3.04495,1.463918 2.1666,0.936905 1.28825,0.46846 h 1.58104 l 0.99546,-0.11712 1.05402,-0.936904 2.75217,-0.468453 z"
       id="path6" /><path
       style="fill:#af9883;fill-opacity:1;stroke:#7c5e45;stroke-width:0.450001;stroke-linecap:round;stroke-dasharray:none;stroke-opacity:1;paint-order:markers fill stroke"
       d="m 170.34168,97.731269 0.0585,10.305991 8.08084,4.80166 c 0.31145,0.10382 0.0217,-6.94661 0.23423,-10.59878 0.0322,-0.55389 1.05402,-1.28825 1.05402,-1.28825 0,0 -1.62025,0.11893 -2.40083,-0.0586 -2.50452,-0.56961 -7.02676,-3.162021 -7.02676,-3.162021 z"
       id="path7"
       sodipodi:nodetypes="cccscsc" /><path
       style="fill:#9d8167;fill-opacity:1;stroke:#7c5e45;stroke-width:0.450001;stroke-linecap:round;stroke-dasharray:none;stroke-opacity:1;paint-order:markers fill stroke"
       d="m 74.074329,115.97171 c 0,0 2.690963,0.24395 4.040417,0.29278 8.953329,0.32397 17.919189,0.12069 26.877564,0 6.8823,-0.0927 20.64127,-0.55629 20.64127,-0.55629 0,0 0.43318,-0.0904 0.58836,-0.23329 0.17647,-0.16254 0.26789,-0.41071 0.31927,-0.64506 0.3421,-1.56045 0.35937,-3.20474 0.0878,-4.88949 -0.0859,-0.53299 -0.61563,-0.91462 -1.05402,-1.22969 -0.40176,-0.28875 -0.89066,-0.46065 -1.37609,-0.55629 -1.9534,-0.38488 -5.97279,-0.0293 -5.97279,-0.0293 l -34.958882,-0.0557 -8.322583,5.13433 c 0,0 -0.828233,0.97013 -1.117959,1.53202 -0.110014,0.21336 -0.196253,0.44522 -0.227732,0.6832 -0.01541,0.1165 -0.04632,0.25541 0.02069,0.35195 0.09448,0.13611 0.454685,0.20083 0.454685,0.20083 z"
       id="path8"
       sodipodi:nodetypes="csscssssscccsssc" /><path
       style="fill:#9d8167;fill-opacity:1;stroke:#7c5e45;stroke-width:0.450001;stroke-linecap:round;stroke-dasharray:none;stroke-opacity:1;paint-order:markers fill stroke"
       d="m 75.193109,115.97792 c -0.399682,-0.0214 -1.200769,0 -1.200769,0 l 0.0414,1.49061 c 0,0 -0.06161,1.62877 -0.0414,2.44295 0.01029,0.41485 -0.01047,0.83782 0.08281,1.24218 0.09045,0.39209 0.05308,1.12045 0.455465,1.11795 19.279596,-0.11989 51.094875,-0.12421 51.094875,-0.12421 0,0 0.20642,-0.092 0.28984,-0.16563 0.15521,-0.13701 0.29909,-0.30335 0.37266,-0.49687 0.0591,-0.15535 0.0325,-0.33091 0.0414,-0.49687 0.0907,-1.68191 0.12422,-5.05152 0.12422,-5.05152 l -0.0517,-0.42441 c 0,0 -0.46648,0.1011 -0.7039,0.14493 -0.34972,0.0645 -2.26698,0.15527 -2.26698,0.15527 0,0 -28.680414,1.21457 -48.237871,0.16562 z"
       id="path9"
       sodipodi:nodetypes="sccssscsssccscs" /><path
       style="fill:#9d8167;fill-opacity:1;stroke:#7c5e45;stroke-width:0.450001;stroke-linecap:round;stroke-dasharray:none;stroke-opacity:1;paint-order:markers fill stroke"
       d="m 127.92352,115.64667 c 0,0 34.2197,0.6107 51.32261,0.20703 0.26942,-0.006 0.5922,0.1208 0.80741,-0.0414 0.20391,-0.15369 0.23198,-0.4698 0.24844,-0.72461 0.0222,-0.3444 -0.0273,-0.71979 -0.20703,-1.01444 -0.25811,-0.42327 -1.15936,-0.93163 -1.15936,-0.93163 l -8.67454,-5.21715 -8.67454,-0.10351 -11.34521,-0.0828 -18.9225,0.20704 -2.60857,0.14492 c 0,0 -0.69594,0.20434 -1.01444,0.37265 -0.26243,0.13868 -0.52013,0.30241 -0.7246,0.51757 -0.1411,0.14848 -0.33125,0.51758 -0.33125,0.51758 l 0.18633,1.96678 -0.0828,2.69138 c 0,0 -0.0144,0.52827 0.0828,0.76601 0.0632,0.15464 0.19199,0.27565 0.31054,0.39335 0.11168,0.11087 0.22653,0.23142 0.37265,0.28984 0.1288,0.0515 0.41406,0.0414 0.41406,0.0414 z"
       id="path10"
       sodipodi:nodetypes="cssssccccccsscccsssc" /><path
       style="fill:#9d8167;fill-opacity:1;stroke:#7c5e45;stroke-width:0.450001;stroke-linecap:round;stroke-dasharray:none;stroke-opacity:1;paint-order:markers fill stroke"
       d="m 126.59976,115.12263 c 0,0 -0.57512,4.16506 -0.0585,6.14846 0.0397,0.15229 0.13193,0.29031 0.23422,0.4099 0.16248,0.18996 0.58557,0.46846 0.58557,0.46846 h 41.51676 c 5.37095,-0.0134 1.73495,0.049 9.72042,-0.0586 0.23583,-0.003 0.4743,-0.12913 0.64413,-0.29279 0.18857,-0.18171 0.32868,-0.44179 0.35134,-0.70268 0.14038,-1.61645 -0.12261,-5.13793 -0.0586,-5.15299 h -23.12993 l -19.03095,-0.17567 -9.36909,-0.17567 c 0,0 -0.41188,0.0531 -0.6002,-0.0146 -0.16352,-0.0588 -0.2908,-0.19554 -0.4099,-0.32206 -0.15865,-0.16854 -0.39526,-0.57093 -0.39526,-0.57093 z"
       id="path11"
       sodipodi:nodetypes="cssccsssccccsscc" /><path
       style="fill:#3d2311;fill-opacity:1;stroke:#000000;stroke-width:0.450001;stroke-linecap:round;stroke-dasharray:none;stroke-opacity:1;paint-order:markers fill stroke"
       d="m 175.60241,133.94808 1.69764,11.2624 2.23592,-0.0414 1.53202,-11.221 z"
       id="path12" /><path
       style="fill:#3d2311;fill-opacity:1;stroke:#2d1a0c;stroke-width:0.450001;stroke-linecap:round;stroke-dasharray:none;stroke-opacity:1;paint-order:markers fill stroke"
       d="m 72.46032,134.23792 1.449208,11.17959 h 2.235917 l 1.656236,-11.17959 z"
       id="path13" /></g><g
     inkscape:label="Capa 1"
     inkscape:groupmode="layer"
     id="layer1" /><g
     id="g51"
     transform="matrix(0.52996094,0,0,0.56175265,37.936495,-120.24747)"><path
       style="fill:#8c8c8c;fill-opacity:1;stroke:#505050;stroke-width:0.450001;stroke-linecap:round;stroke-dasharray:none;stroke-opacity:1;paint-order:markers fill stroke"
       d="m 119.16617,251.66504 c -1.53975,-0.0207 -2.95721,-0.88153 -4.47183,-1.15936 -1.99388,-0.36574 -4.01938,-0.73414 -6.04526,-0.6625 -2.159,0.0764 -4.32486,0.48274 -6.37651,1.15937 -1.84066,0.60705 -3.586964,1.51881 -5.217147,2.56717 -0.989942,0.63662 -1.987551,1.32493 -2.732789,2.23592 -1.383875,1.69166 -2.653863,3.65006 -3.064036,5.79682 -0.286615,1.50008 0.119573,3.07476 0.496871,4.55464 0.250752,0.98353 0.937736,2.02435 1.573424,2.81561 0.968766,1.20586 2.040827,1.90294 3.395282,2.64997 1.364771,0.75272 2.819877,1.35284 4.306215,1.82186 1.13072,0.35681 2.30824,0.55218 3.47809,0.74531 1.6452,0.27161 3.30201,0.52912 4.96871,0.57967 1.98963,0.0604 3.97845,-0.16994 5.96245,-0.33123 1.54956,-0.12597 3.15544,-0.0272 4.63746,-0.49689 0.54183,-0.17172 1.15062,-0.37259 1.49061,-0.82809 0.15223,-0.20396 0.16563,-0.74533 0.16563,-0.74533 0,0 0.25123,0.2625 0.41406,0.33126 0.82008,0.3463 1.76149,0.27594 2.64997,0.33126 1.73569,0.10806 3.48228,0.12046 5.21715,0 1.19559,-0.083 2.54596,0.14046 3.56091,-0.49689 0.25286,-0.15879 0.21724,-0.64061 0.49686,-0.74531 0.29475,-0.11036 0.59827,0.21245 0.91094,0.24845 0.74092,0.0853 1.4975,0.022 2.23591,-0.0828 0.67611,-0.096 1.38012,-0.18471 1.98749,-0.49686 0.64444,-0.33121 1.20914,-0.83763 1.65623,-1.40782 0.41894,-0.5343 0.71863,-1.17068 0.91093,-1.82184 0.14159,-0.47946 0.20367,-0.99213 0.16563,-1.49061 -0.0566,-0.74111 -0.27591,-1.47478 -0.57969,-2.15313 -0.35046,-0.78261 -1.6143,-1.85875 -1.4078,-2.15309 0.22439,-0.31985 1.58206,-1.45477 2.31873,-2.23592 0.87304,-0.92575 1.78049,-1.83833 2.48436,-2.89841 0.30728,-0.46279 0.94835,-0.97353 0.7453,-1.49061 -0.34483,-0.87811 -1.73085,-0.78114 -2.64997,-0.99375 -1.40493,-0.32498 -4.30622,-0.41406 -4.30622,-0.41406 l -0.82812,0.0828 c 0,0 -1.47909,-1.46314 -2.31873,-2.07029 -0.67143,-0.48551 -1.41623,-0.86328 -2.1531,-1.24218 -0.59324,-0.30505 -1.20094,-0.58428 -1.82186,-0.82811 -0.48751,-0.19144 -0.86943,-0.25316 -1.24217,-0.6211 -0.4784,-0.47222 -0.58591,-1.1984 -0.91094,-1.78045 -0.44085,-0.78946 -0.84947,-1.60748 -1.4078,-2.31873 -0.55441,-0.70626 -1.0068,-1.90467 -1.90467,-1.90467 -0.66364,0 -0.99603,0.88735 -1.4078,1.4078 -0.68446,0.8651 -1.19621,1.85529 -1.73905,2.8156 -0.50425,0.89204 -0.7187,1.97441 -1.4078,2.73279 -0.30896,0.34002 -0.73604,0.5668 -1.15936,0.74531 -0.33935,0.1431 -0.70831,0.25337 -1.07656,0.24842 z"
       id="path15"
       sodipodi:nodetypes="sssssssssssssssscsssssssssssssssssccssssasssssss" /><path
       style="opacity:1;fill:none;fill-opacity:1;stroke:#505050;stroke-width:0.450001;stroke-linecap:round;stroke-dasharray:none;stroke-opacity:1;paint-order:markers fill stroke"
       d="m 137.90122,254.60489 c 0,0 0.97546,1.4417 1.34681,2.22515 0.275,0.58017 0.52983,1.18346 0.64412,1.81526 0.20503,1.13339 0.19582,2.31127 0.0586,3.45485 -0.15624,1.30207 -0.39355,2.64109 -0.99547,3.8062 -0.36248,0.70163 -0.89366,1.33748 -1.52247,1.81526 -0.75116,0.57075 -1.67013,0.90943 -2.5765,1.17112 -0.41638,0.12022 -1.28825,0.17568 -1.28825,0.17568 0,0 -0.9494,-0.53461 -1.46392,-0.70268 -0.81152,-0.26509 -2.51794,-0.46844 -2.51794,-0.46844 0,0 -1.71836,0.14883 -2.5765,0.23421 -0.72284,0.0719 -2.1666,0.23423 -2.1666,0.23423"
       id="path16"
       sodipodi:nodetypes="csssssscscsc" /><path
       style="opacity:1;fill:none;fill-opacity:1;stroke:#505050;stroke-width:0.460982;stroke-linecap:round;stroke-dasharray:none;stroke-opacity:1;paint-order:markers fill stroke"
       d="m 127.38582,267.8918 c 0,0 -1.46394,-0.6804 -2.18675,-1.03669 -0.94541,-0.46602 -1.97029,-0.82718 -2.81153,-1.4398 -0.77498,-0.56437 -1.35313,-1.32721 -1.9993,-2.01573 -0.77462,-0.8254 -1.64353,-1.59632 -2.24923,-2.53408 -0.5065,-0.78417 -0.90456,-1.64426 -1.12461,-2.53407 -0.23185,-0.93755 -0.27468,-1.85816 -0.0549,-2.79818 0.18842,-0.80586 0.75778,-1.60186 1.33792,-2.22923 0.74305,-0.80355 1.53139,-1.42106 2.52816,-1.94128 1.05674,-0.55152 2.19782,-0.98793 3.37383,-1.26703 1.03569,-0.2458 2.11709,-0.32968 3.18641,-0.34556 0.98224,-0.0145 2.93648,0.23037 2.93648,0.23037 l 0.31239,0.0576"
       id="path17"
       sodipodi:nodetypes="csssssssssscc" /><path
       style="opacity:1;fill:#c6bbb9;fill-opacity:1;stroke:none;stroke-width:0.450001;stroke-linecap:round;stroke-dasharray:none;stroke-opacity:1;paint-order:markers fill stroke"
       d="m 123.23275,250.11065 c 0,0 0.61169,-1.89524 1.02474,-2.53258 0.4295,-0.66273 0.73308,-1.79233 1.52248,-1.81526 0.93854,-0.0273 1.37914,1.29085 1.93237,2.04949 0.38092,0.52235 0.90763,1.75671 0.90763,1.75671 0,0 -1.67316,-0.0212 -2.59114,-1e-5 -0.88158,0.0203 -2.79608,0.54165 -2.79608,0.54165 z"
       id="path18"
       sodipodi:nodetypes="cssscsc" /><path
       style="opacity:1;fill:#c6bbb9;fill-opacity:1;stroke:none;stroke-width:0.450001;stroke-linecap:round;stroke-dasharray:none;stroke-opacity:1;paint-order:markers fill stroke"
       d="m 138.95525,255.76139 c 0,0 1.76634,-0.29079 2.63505,-0.16103 0.72669,0.10854 1.84986,-0.0438 2.10804,0.64412 0.2988,0.79614 -0.82869,1.49231 -1.3468,2.1666 -0.53846,0.70078 -2.0934,1.85918 -2.0934,1.85918 0,0 -0.083,-1.69854 -0.36599,-2.53258 -0.25535,-0.75264 -0.9369,-1.97629 -0.9369,-1.97629 z"
       id="path19"
       sodipodi:nodetypes="cssscsc" /><path
       style="opacity:1;fill:none;fill-opacity:1;stroke:#505050;stroke-width:0.450001;stroke-linecap:round;stroke-dasharray:none;stroke-opacity:1;paint-order:markers fill stroke"
       d="m 133.62658,269.06841 c 0,0 0.79931,0.60453 0.9369,1.05402 0.0865,0.28244 -0.34871,1.10955 -0.43917,1.39074 -0.10162,0.31588 -0.46845,0.87834 -0.46845,0.87834"
       id="path20"
       sodipodi:nodetypes="cssc" /><path
       style="opacity:1;fill:none;fill-opacity:1;stroke:#505050;stroke-width:0.450001;stroke-linecap:round;stroke-dasharray:none;stroke-opacity:1;paint-order:markers fill stroke"
       d="m 105.05087,258.11829 c 0,0 1.61519,0.0124 2.40083,0.17567 0.8099,0.16828 1.60662,0.44153 2.34226,0.8198 0.5731,0.29469 1.11579,0.66669 1.58104,1.11258 0.46225,0.44302 0.93502,0.92733 1.17113,1.52247 0.21702,0.54701 0.44632,1.12712 0.46551,1.7153 0.0185,0.56608 -0.19264,1.19499 -0.34834,1.73956 -0.20427,0.71463 -0.62132,1.37461 -1.11258,1.93236 -0.46962,0.53317 -1.04925,0.99887 -1.69815,1.28826 -0.47198,0.21049 -1.00685,0.25805 -1.52247,0.29278 -0.70218,0.0473 -1.4082,-0.043 -2.10805,-0.1171 -1.00203,-0.10615 -1.99945,-0.2653 -2.98639,-0.46847 -0.84855,-0.17468 -1.71301,-0.32378 -2.51795,-0.64413 -0.37343,-0.14862 -1.054017,-0.58555 -1.054017,-0.58555"
       id="path21"
       sodipodi:nodetypes="cssssssssssssc" /><path
       style="opacity:1;fill:none;fill-opacity:1;stroke:#505050;stroke-width:0.450001;stroke-linecap:round;stroke-dasharray:none;stroke-opacity:1;paint-order:markers fill stroke"
       d="m 107.86159,268.77563 c 0,0 1.95244,0.18983 2.92784,0.29278 1.23043,0.12987 2.46896,0.20465 3.68908,0.4099 1.04599,0.17596 2.07364,0.44887 3.10351,0.70268 0.58842,0.14501 1.17913,0.28492 1.7567,0.46844 0.53561,0.17019 1.0729,0.3455 1.58103,0.58558 0.24518,0.11584 0.5571,0.18112 0.70268,0.40989 0.11575,0.18189 0.0586,0.64413 0.0586,0.64413"
       id="path22"
       sodipodi:nodetypes="cssssssc" /><path
       style="opacity:1;fill:none;fill-opacity:1;stroke:#000000;stroke-width:0.450001;stroke-linecap:round;stroke-dasharray:none;stroke-opacity:1;paint-order:markers fill stroke"
       d="m 131.19647,260.37273 c 0,0 -0.056,0.84472 0.0878,1.22969 0.11096,0.29714 0.32175,0.56499 0.57093,0.76124 0.24212,0.19069 0.54654,0.30721 0.84908,0.36598 0.41207,0.08 1.25897,-0.0293 1.25897,-0.0293"
       id="path23"
       sodipodi:nodetypes="csssc" /><path
       style="opacity:1;fill:none;fill-opacity:1;stroke:#000000;stroke-width:0.450001;stroke-linecap:round;stroke-dasharray:none;stroke-opacity:1;paint-order:markers fill stroke"
       d="m 123.55481,255.84922 c 0,0 0.0624,0.48354 0.16103,0.70268 0.10334,0.22969 0.25187,0.44647 0.43918,0.61485 0.25837,0.23226 0.58783,0.37662 0.90763,0.51237 0.17338,0.0736 0.35341,0.15424 0.54165,0.16103 0.29462,0.0106 0.59576,-0.0674 0.86371,-0.19031 0.11088,-0.0509 0.29278,-0.21959 0.29278,-0.21959"
       id="path24"
       sodipodi:nodetypes="csssssc" /><path
       style="opacity:1;fill:#000000;fill-opacity:1;stroke:#000000;stroke-width:0.450001;stroke-linecap:round;stroke-dasharray:none;stroke-opacity:1;paint-order:markers fill stroke"
       d="m 126.39481,260.51912 c -0.1388,0.0577 -0.23303,0.21878 -0.2635,0.36598 -0.0739,0.35711 0.0696,0.74326 0.23423,1.06866 0.0968,0.19129 0.23967,0.37454 0.42453,0.4831 0.27978,0.1643 0.62892,0.17059 0.95155,0.20494 0.21835,0.0233 0.45672,0.086 0.65876,0 0.16194,-0.0689 0.33554,-0.20725 0.36598,-0.38061 0.0332,-0.18934 -0.11775,-0.37408 -0.23422,-0.52702 -0.25627,-0.33652 -0.62084,-0.58305 -0.98083,-0.80515 -0.24541,-0.15141 -0.51407,-0.26931 -0.79052,-0.35134 -0.11844,-0.0351 -0.2519,-0.10599 -0.36598,-0.0586 z"
       id="path25"
       sodipodi:nodetypes="sssssssssss" /><path
       style="opacity:1;fill:none;fill-opacity:1;stroke:#000000;stroke-width:0.450001;stroke-linecap:round;stroke-dasharray:none;stroke-opacity:1;paint-order:markers fill stroke"
       d="m 128.7664,265.01336 c 0,0 -0.62942,0.27896 -0.96619,0.30742 -0.27987,0.0236 -0.57298,-0.0145 -0.83443,-0.11711 -0.18271,-0.0717 -0.35706,-0.18623 -0.4831,-0.33671 -0.13459,-0.16068 -0.22013,-0.36586 -0.2635,-0.57093 -0.0646,-0.30558 -0.0574,-0.63298 0.0146,-0.9369 0.0725,-0.30581 0.4099,-0.84908 0.4099,-0.84908 l -0.6734,0.49774 c 0,0 -0.32919,0.3449 -0.54165,0.43917 -0.2618,0.11617 -0.56738,0.18354 -0.84908,0.13176 -0.35896,-0.066 -0.72944,-0.25204 -0.95154,-0.54165 -0.14117,-0.18408 -0.15457,-0.44239 -0.17567,-0.67341 -0.0183,-0.19977 0.0439,-0.6002 0.0439,-0.6002"
       id="path26"
       sodipodi:nodetypes="csssssccssssc" /><path
       style="opacity:1;fill:#505050;fill-opacity:1;stroke:none;stroke-width:0.450001;stroke-linecap:round;stroke-dasharray:none;stroke-opacity:1;paint-order:markers fill stroke"
       d="m 98.43395,252.90674 1.522476,-0.70268 c 0,0 1.621804,2.0137 1.990934,3.22062 0.14283,0.46701 0.47145,1.20322 0.0585,1.46392 -0.35438,0.22372 -0.79593,-0.31104 -1.11258,-0.58557 -1.056091,-0.91561 -2.45933,-3.39629 -2.45933,-3.39629 z"
       id="path27"
       sodipodi:nodetypes="ccsssc" /><path
       style="opacity:1;fill:#505050;fill-opacity:1;stroke:none;stroke-width:0.450001;stroke-linecap:round;stroke-dasharray:none;stroke-opacity:1;paint-order:markers fill stroke"
       d="m 102.82571,251.15004 c 0,0 0.61501,2.43556 1.22969,3.5134 0.24019,0.42117 0.45952,1.19726 0.93691,1.11258 0.4499,-0.0798 0.46016,-0.8314 0.46845,-1.28825 0.0242,-1.33308 -1.22969,-3.80619 -1.22969,-3.80619 z"
       id="path28"
       sodipodi:nodetypes="cssscc" /><path
       style="opacity:1;fill:#505050;fill-opacity:1;stroke:none;stroke-width:0.450001;stroke-linecap:round;stroke-dasharray:none;stroke-opacity:1;paint-order:markers fill stroke"
       d="m 107.33458,250.09601 c 0,0 -0.01,2.94304 0.52701,4.27465 0.14592,0.36208 0.31494,0.89162 0.70268,0.93691 0.30284,0.0354 0.58523,-0.30421 0.70268,-0.58557 0.61881,-1.4824 -0.40989,-4.80166 -0.40989,-4.80166 z"
       id="path29"
       sodipodi:nodetypes="cssscc" /><path
       style="opacity:1;fill:#505050;fill-opacity:1;stroke:none;stroke-width:0.450001;stroke-linecap:round;stroke-dasharray:none;stroke-opacity:1;paint-order:markers fill stroke"
       d="m 111.60923,250.09601 c 0,0 -0.36578,2.74468 -0.17567,4.09898 0.0515,0.36675 0.0973,0.78457 0.35134,1.05402 0.14422,0.15295 0.39062,0.31293 0.58556,0.23423 0.39695,-0.16026 0.42165,-0.75622 0.52701,-1.17114 0.32276,-1.27107 0.29279,-3.9233 0.29279,-3.9233 z"
       id="path30"
       sodipodi:nodetypes="csssscc" /><path
       style="opacity:1;fill:#505050;fill-opacity:1;stroke:none;stroke-width:0.450001;stroke-linecap:round;stroke-dasharray:none;stroke-opacity:1;paint-order:markers fill stroke"
       d="m 116.00098,250.97437 c 0,0 -0.99915,2.50107 -0.9369,3.80619 0.0197,0.41313 0.0117,1.05914 0.40989,1.17113 0.26705,0.0751 0.49019,-0.29623 0.64413,-0.52701 0.79158,-1.1867 1.22969,-4.09897 1.22969,-4.09897 z"
       id="path31"
       sodipodi:nodetypes="cssscc" /><path
       style="opacity:1;fill:#505050;fill-opacity:1;stroke:none;stroke-width:0.450001;stroke-linecap:round;stroke-dasharray:none;stroke-opacity:1;paint-order:markers fill stroke"
       d="m 101.44445,267.73052 -1.3664,5.23785 2.091,0.66249 1.51132,-5.44486 z"
       id="path32" /><path
       style="opacity:1;fill:#505050;fill-opacity:1;stroke:none;stroke-width:0.450001;stroke-linecap:round;stroke-dasharray:none;stroke-opacity:1;paint-order:markers fill stroke"
       d="m 106.78581,268.72427 -1.13866,5.50699 2.17381,0.31054 1.09725,-5.50699 z"
       id="path33" /><path
       style="opacity:1;fill:#505050;fill-opacity:1;stroke:none;stroke-width:0.450001;stroke-linecap:round;stroke-dasharray:none;stroke-opacity:1;paint-order:markers fill stroke"
       d="m 111.73382,269.26254 -0.6418,5.36207 2.17381,-0.1035 0.6832,-5.05153 z"
       id="path34" /><path
       style="opacity:1;fill:#505050;fill-opacity:1;stroke:none;stroke-width:0.450001;stroke-linecap:round;stroke-dasharray:none;stroke-opacity:1;paint-order:markers fill stroke"
       d="m 116.74393,269.96646 -0.18633,4.16129 1.94608,-0.12422 0.22773,-3.4367 z"
       id="path35" /><path
       style="opacity:1;fill:#505050;fill-opacity:1;stroke:none;stroke-width:0.450001;stroke-linecap:round;stroke-dasharray:none;stroke-opacity:1;paint-order:markers fill stroke"
       d="m 135.71998,252.93602 c 0,0 -1.02974,1.10288 -1.39072,1.7567 -0.17008,0.30805 -0.41199,0.64885 -0.35134,0.99547 0.0239,0.13663 0.12681,0.29851 0.2635,0.32206 0.24164,0.0416 0.44472,-0.21942 0.62949,-0.38062 0.66673,-0.58166 1.66887,-2.06413 1.66887,-2.06413 z"
       id="path36"
       sodipodi:nodetypes="csssscc" /><path
       style="opacity:1;fill:#505050;fill-opacity:1;stroke:none;stroke-width:0.450001;stroke-linecap:round;stroke-dasharray:none;stroke-opacity:1;paint-order:markers fill stroke"
       d="m 133.53874,251.48674 c 0,0 -1.22615,1.56191 -1.72742,2.41547 -0.19676,0.33504 -0.46207,0.66712 -0.49774,1.05402 -0.0176,0.19093 -1e-5,0.43247 0.14639,0.55629 0.12346,0.10442 0.33059,0.0976 0.4831,0.0439 0.55661,-0.19603 0.89304,-0.77868 1.27361,-1.22969 0.56386,-0.66823 1.47856,-2.1666 1.47856,-2.1666 z"
       id="path37"
       sodipodi:nodetypes="cssssscc" /><path
       style="opacity:1;fill:#505050;fill-opacity:1;stroke:none;stroke-width:0.450001;stroke-linecap:round;stroke-dasharray:none;stroke-opacity:1;paint-order:markers fill stroke"
       d="m 131.25503,250.37416 c 0,0 -0.87915,1.12654 -1.17114,1.77134 -0.11476,0.25342 -0.29532,0.53748 -0.21959,0.80516 0.0291,0.10298 0.13172,0.18886 0.23423,0.21958 0.13756,0.0412 0.29515,-0.0109 0.42454,-0.0732 0.3706,-0.17842 0.64031,-0.52033 0.92227,-0.81979 0.37877,-0.40228 1.02474,-1.30289 1.02474,-1.30289 z"
       id="path38"
       sodipodi:nodetypes="csssascc" /><path
       style="opacity:1;fill:none;fill-opacity:1;stroke:#505050;stroke-width:0.450001;stroke-linecap:round;stroke-dasharray:none;stroke-opacity:1;paint-order:markers fill stroke"
       d="m 134.54412,270.15777 c 0.1404,0.0187 -0.37808,-0.37001 -1.22969,-0.46844 -0.37853,-0.0437 -1.12721,0.19029 -1.12721,0.19029"
       id="path43"
       sodipodi:nodetypes="csc" /><path
       style="opacity:1;fill:none;fill-opacity:1;stroke:#505050;stroke-width:0.450001;stroke-linecap:round;stroke-dasharray:none;stroke-opacity:1;paint-order:markers fill stroke"
       d="m 134.37317,270.95688 c 0,0 -0.54083,-0.3486 -0.84907,-0.40992 -0.50334,-0.10013 -1.53711,0.0878 -1.53711,0.0878"
       id="path44"
       sodipodi:nodetypes="csc" /><path
       style="opacity:1;fill:none;fill-opacity:1;stroke:#505050;stroke-width:0.450001;stroke-linecap:round;stroke-dasharray:none;stroke-opacity:1;paint-order:markers fill stroke"
       d="m 133.81688,271.89377 c 0,0 -0.59724,-0.45141 -0.95154,-0.48308 -0.30446,-0.0272 -0.87835,0.2635 -0.87835,0.2635"
       id="path45"
       sodipodi:nodetypes="csc" /><path
       style="opacity:1;fill:none;fill-opacity:1;stroke:#dcdcdc;stroke-width:0.450001;stroke-linecap:round;stroke-dasharray:none;stroke-opacity:1;paint-order:markers fill stroke"
       d="m 123.32058,258.93809 c 0,0 -2.39513,-2.17234 -3.74763,-3.04495 -0.5868,-0.37859 -1.87382,-0.93691 -1.87382,-0.93691"
       id="path46"
       sodipodi:nodetypes="csc" /><path
       style="opacity:1;fill:none;fill-opacity:1;stroke:#dcdcdc;stroke-width:0.450001;stroke-linecap:round;stroke-dasharray:none;stroke-opacity:1;paint-order:markers fill stroke"
       d="m 122.50079,259.75788 c 0,0 -2.30426,-1.67112 -3.6598,-2.25443 -0.90787,-0.39067 -2.78145,-0.90763 -2.78145,-0.90763"
       id="path47"
       sodipodi:nodetypes="csc" /><path
       style="opacity:1;fill:none;fill-opacity:1;stroke:#dcdcdc;stroke-width:0.450001;stroke-linecap:round;stroke-dasharray:none;stroke-opacity:1;paint-order:markers fill stroke"
       d="m 122.03233,260.57768 c 0,0 -2.39139,-1.01996 -3.63052,-1.40536 -0.80469,-0.25028 -2.45938,-0.58557 -2.45938,-0.58557"
       id="path48"
       sodipodi:nodetypes="csc" /><path
       style="opacity:1;fill:none;fill-opacity:1;stroke:#dcdcdc;stroke-width:0.450001;stroke-linecap:round;stroke-dasharray:none;stroke-opacity:1;paint-order:markers fill stroke"
       d="m 131.51853,264.2082 c 0,0 2.24737,0.45977 3.27918,0.93692 0.76652,0.35447 2.10804,1.40536 2.10804,1.40536"
       id="path49"
       sodipodi:nodetypes="csc" /><path
       style="opacity:1;fill:none;fill-opacity:1;stroke:#dcdcdc;stroke-width:0.450001;stroke-linecap:round;stroke-dasharray:none;stroke-opacity:1;paint-order:markers fill stroke"
       d="m 130.23028,264.91088 c 0,0 2.72294,0.68725 3.98186,1.28826 0.96736,0.46182 2.69361,1.7567 2.69361,1.7567"
       id="path50"
       sodipodi:nodetypes="csc" /><path
       style="opacity:1;fill:none;fill-opacity:1;stroke:#dcdcdc;stroke-width:0.450001;stroke-linecap:round;stroke-dasharray:none;stroke-opacity:1;paint-order:markers fill stroke"
       d="m 129.64472,266.19914 c 0,0 2.31052,0.43764 3.27917,1.05402 0.62922,0.40039 1.96166,1.58101 1.96166,1.58101"
       id="path51"
       sodipodi:nodetypes="csc" /></g></svg>
